<svg xmlns="http://www.w3.org/2000/svg" xmlns:xlink="http://www.w3.org/1999/xlink" width="250" zoomAndPan="magnify" viewBox="0 0 187.5 74.999997" height="100" preserveAspectRatio="xMidYMid meet" version="1.0"><defs><g/><clipPath id="1dd46de2fe"><path d="M 91 25 L 95 25 L 95 29 L 91 29 Z M 91 25 " clip-rule="nonzero"/></clipPath><clipPath id="19139c6acf"><path d="M 78.664062 15.964844 L 94.53125 7.5625 L 103.28125 24.089844 L 87.417969 32.492188 Z M 78.664062 15.964844 " clip-rule="nonzero"/></clipPath><clipPath id="ba00aae55c"><path d="M 78.664062 15.964844 L 94.53125 7.5625 L 103.28125 24.089844 L 87.417969 32.492188 Z M 78.664062 15.964844 " clip-rule="nonzero"/></clipPath><clipPath id="e0dbf9d377"><path d="M 80 11 L 103 11 L 103 30 L 80 30 Z M 80 11 " clip-rule="nonzero"/></clipPath><clipPath id="dedae7f0f5"><path d="M 78.664062 15.964844 L 94.53125 7.5625 L 103.28125 24.089844 L 87.417969 32.492188 Z M 78.664062 15.964844 " clip-rule="nonzero"/></clipPath><clipPath id="fdcc46883b"><path d="M 78.664062 15.964844 L 94.53125 7.5625 L 103.28125 24.089844 L 87.417969 32.492188 Z M 78.664062 15.964844 " clip-rule="nonzero"/></clipPath><clipPath id="61b5b32859"><path d="M 0.0546875 2 L 73 2 L 73 9 L 0.0546875 9 Z M 0.0546875 2 " clip-rule="nonzero"/></clipPath><clipPath id="390eef66bf"><rect x="0" width="75" y="0" height="11"/></clipPath><clipPath id="1c84f11c8e"><path d="M 0.0117188 1 L 2 1 L 2 3.902344 L 0.0117188 3.902344 Z M 0.0117188 1 " clip-rule="nonzero"/></clipPath><clipPath id="0ffb7d1139"><path d="M 1 1 L 4 1 L 4 3.902344 L 1 3.902344 Z M 1 1 " clip-rule="nonzero"/></clipPath><clipPath id="f872feb0c9"><path d="M 3 1 L 6 1 L 6 3.902344 L 3 3.902344 Z M 3 1 " clip-rule="nonzero"/></clipPath><clipPath id="9cd16454f5"><path d="M 5 1 L 7 1 L 7 3.902344 L 5 3.902344 Z M 5 1 " clip-rule="nonzero"/></clipPath><clipPath id="616aedf39b"><path d="M 6 0.550781 L 8 0.550781 L 8 3.902344 L 6 3.902344 Z M 6 0.550781 " clip-rule="nonzero"/></clipPath><clipPath id="646f699aa6"><path d="M 7 1 L 9 1 L 9 3.902344 L 7 3.902344 Z M 7 1 " clip-rule="nonzero"/></clipPath><clipPath id="3cdf995dd9"><path d="M 9 1 L 11 1 L 11 3.902344 L 9 3.902344 Z M 9 1 " clip-rule="nonzero"/></clipPath><clipPath id="e626be8b70"><path d="M 10 1 L 13 1 L 13 3.902344 L 10 3.902344 Z M 10 1 " clip-rule="nonzero"/></clipPath><clipPath id="35ff4ae6d9"><path d="M 12 3 L 13 3 L 13 3.902344 L 12 3.902344 Z M 12 3 " clip-rule="nonzero"/></clipPath><clipPath id="6c5fd327a5"><path d="M 13 1 L 16 1 L 16 3.902344 L 13 3.902344 Z M 13 1 " clip-rule="nonzero"/></clipPath><clipPath id="ad78930d73"><path d="M 15 1 L 18 1 L 18 3.902344 L 15 3.902344 Z M 15 1 " clip-rule="nonzero"/></clipPath><clipPath id="f144fd6899"><path d="M 17 0.550781 L 20 0.550781 L 20 3.902344 L 17 3.902344 Z M 17 0.550781 " clip-rule="nonzero"/></clipPath><clipPath id="b87ee05d40"><path d="M 19 1 L 22 1 L 22 3.902344 L 19 3.902344 Z M 19 1 " clip-rule="nonzero"/></clipPath><clipPath id="83aa3a0df1"><path d="M 21 1 L 23 1 L 23 3.902344 L 21 3.902344 Z M 21 1 " clip-rule="nonzero"/></clipPath><clipPath id="d3afef8bce"><path d="M 22 1 L 24 1 L 24 3.902344 L 22 3.902344 Z M 22 1 " clip-rule="nonzero"/></clipPath><clipPath id="f705258778"><path d="M 24 1 L 26 1 L 26 3.902344 L 24 3.902344 Z M 24 1 " clip-rule="nonzero"/></clipPath><clipPath id="cfd881a4b5"><path d="M 25 3 L 26 3 L 26 3.902344 L 25 3.902344 Z M 25 3 " clip-rule="nonzero"/></clipPath><clipPath id="0653685247"><path d="M 26 0.550781 L 28 0.550781 L 28 3.902344 L 26 3.902344 Z M 26 0.550781 " clip-rule="nonzero"/></clipPath><clipPath id="c4c21a0570"><path d="M 28 1 L 30 1 L 30 3.902344 L 28 3.902344 Z M 28 1 " clip-rule="nonzero"/></clipPath><clipPath id="6f8a1f41be"><path d="M 29 3 L 30 3 L 30 3.902344 L 29 3.902344 Z M 29 3 " clip-rule="nonzero"/></clipPath><clipPath id="9c6e88494c"><path d="M 30 1 L 32 1 L 32 3.902344 L 30 3.902344 Z M 30 1 " clip-rule="nonzero"/></clipPath><clipPath id="9b4529cdd9"><path d="M 31 0.550781 L 34 0.550781 L 34 3.902344 L 31 3.902344 Z M 31 0.550781 " clip-rule="nonzero"/></clipPath><clipPath id="9fecce2102"><path d="M 33 0.550781 L 34 0.550781 L 34 3.902344 L 33 3.902344 Z M 33 0.550781 " clip-rule="nonzero"/></clipPath><clipPath id="90f897fa85"><path d="M 34 0.550781 L 36 0.550781 L 36 3.902344 L 34 3.902344 Z M 34 0.550781 " clip-rule="nonzero"/></clipPath><clipPath id="a961b2bf1b"><path d="M 35 1 L 38 1 L 38 3.902344 L 35 3.902344 Z M 35 1 " clip-rule="nonzero"/></clipPath><clipPath id="6cec5f75cc"><path d="M 37 0.550781 L 40 0.550781 L 40 3.902344 L 37 3.902344 Z M 37 0.550781 " clip-rule="nonzero"/></clipPath><clipPath id="c2e0fa521d"><path d="M 39 1 L 42 1 L 42 3.902344 L 39 3.902344 Z M 39 1 " clip-rule="nonzero"/></clipPath><clipPath id="f6b6f3039b"><path d="M 41 1 L 43 1 L 43 3.902344 L 41 3.902344 Z M 41 1 " clip-rule="nonzero"/></clipPath><clipPath id="d4aef78f70"><path d="M 42 1 L 45 1 L 45 3.902344 L 42 3.902344 Z M 42 1 " clip-rule="nonzero"/></clipPath><clipPath id="e41be9372e"><path d="M 44 1 L 46 1 L 46 3.902344 L 44 3.902344 Z M 44 1 " clip-rule="nonzero"/></clipPath><clipPath id="07d3458432"><path d="M 45 3 L 46 3 L 46 3.902344 L 45 3.902344 Z M 45 3 " clip-rule="nonzero"/></clipPath><clipPath id="3f892a2fda"><path d="M 46 1 L 49 1 L 49 3.902344 L 46 3.902344 Z M 46 1 " clip-rule="nonzero"/></clipPath><clipPath id="9e8341b521"><path d="M 48 1 L 50 1 L 50 3.902344 L 48 3.902344 Z M 48 1 " clip-rule="nonzero"/></clipPath><clipPath id="90f4075922"><path d="M 49 3 L 50 3 L 50 3.902344 L 49 3.902344 Z M 49 3 " clip-rule="nonzero"/></clipPath><clipPath id="e4e7c6e3ff"><path d="M 50 0.550781 L 51 0.550781 L 51 3.902344 L 50 3.902344 Z M 50 0.550781 " clip-rule="nonzero"/></clipPath><clipPath id="2b931aac08"><path d="M 50 1 L 53 1 L 53 3.902344 L 50 3.902344 Z M 50 1 " clip-rule="nonzero"/></clipPath><clipPath id="7e847a09fa"><path d="M 52 1 L 54 1 L 54 3.902344 L 52 3.902344 Z M 52 1 " clip-rule="nonzero"/></clipPath><clipPath id="06f0fd03f6"><path d="M 53 3 L 54 3 L 54 3.902344 L 53 3.902344 Z M 53 3 " clip-rule="nonzero"/></clipPath><clipPath id="8411c5ae66"><path d="M 54 1 L 56 1 L 56 3.902344 L 54 3.902344 Z M 54 1 " clip-rule="nonzero"/></clipPath><clipPath id="9a914a7f4e"><path d="M 56 1 L 58 1 L 58 3.902344 L 56 3.902344 Z M 56 1 " clip-rule="nonzero"/></clipPath><clipPath id="f777f20aeb"><path d="M 57 1 L 59 1 L 59 3.902344 L 57 3.902344 Z M 57 1 " clip-rule="nonzero"/></clipPath><clipPath id="922a55260a"><path d="M 58 1 L 61 1 L 61 3.902344 L 58 3.902344 Z M 58 1 " clip-rule="nonzero"/></clipPath><clipPath id="2a9abf2b3b"><path d="M 60 1 L 62 1 L 62 3.902344 L 60 3.902344 Z M 60 1 " clip-rule="nonzero"/></clipPath><clipPath id="3fefba4713"><path d="M 61 1 L 63 1 L 63 3.902344 L 61 3.902344 Z M 61 1 " clip-rule="nonzero"/></clipPath><clipPath id="6a9e5d6911"><path d="M 63 1 L 65 1 L 65 3.902344 L 63 3.902344 Z M 63 1 " clip-rule="nonzero"/></clipPath><clipPath id="c7be07de2a"><path d="M 64 0.550781 L 66 0.550781 L 66 3.902344 L 64 3.902344 Z M 64 0.550781 " clip-rule="nonzero"/></clipPath><clipPath id="24ddce5e1e"><path d="M 65 1 L 67 1 L 67 3.902344 L 65 3.902344 Z M 65 1 " clip-rule="nonzero"/></clipPath><clipPath id="f8d4c94d00"><path d="M 66 1 L 69 1 L 69 3.902344 L 66 3.902344 Z M 66 1 " clip-rule="nonzero"/></clipPath><clipPath id="c097c67194"><path d="M 68 1 L 70 1 L 70 3.902344 L 68 3.902344 Z M 68 1 " clip-rule="nonzero"/></clipPath><clipPath id="81ec7535b0"><path d="M 69 3 L 70 3 L 70 3.902344 L 69 3.902344 Z M 69 3 " clip-rule="nonzero"/></clipPath><clipPath id="7df7c7246b"><path d="M 70 3 L 71 3 L 71 3.902344 L 70 3.902344 Z M 70 3 " clip-rule="nonzero"/></clipPath><clipPath id="f7d36dd314"><rect x="0" width="72" y="0" height="4"/></clipPath></defs><g clip-path="url(#1dd46de2fe)"><g clip-path="url(#19139c6acf)"><g clip-path="url(#ba00aae55c)"><path fill="#f3f6ff" d="M 94.316406 25.375 L 91.605469 27.566406 C 91.480469 27.664062 91.464844 27.847656 91.5625 27.972656 C 91.652344 28.082031 91.804688 28.109375 91.925781 28.046875 C 91.941406 28.039062 91.957031 28.027344 91.972656 28.015625 L 94.679688 25.824219 C 94.804688 25.722656 94.824219 25.542969 94.722656 25.417969 C 94.621094 25.292969 94.441406 25.273438 94.316406 25.375 Z M 94.316406 25.375 " fill-opacity="1" fill-rule="nonzero"/></g></g></g><g clip-path="url(#e0dbf9d377)"><g clip-path="url(#dedae7f0f5)"><g clip-path="url(#fdcc46883b)"><path fill="#f3f6ff" d="M 101.972656 21.835938 C 101.617188 21.308594 101.050781 20.960938 100.421875 20.875 L 98.179688 20.578125 C 97.589844 19.445312 96.804688 18.824219 95.851562 18.722656 C 95.824219 18.714844 95.796875 18.710938 95.769531 18.710938 L 92.707031 18.65625 L 87.980469 12.609375 C 87.710938 12.265625 87.328125 12.050781 86.898438 11.996094 C 86.464844 11.945312 86.039062 12.0625 85.699219 12.332031 L 80.964844 16.046875 C 80.265625 16.597656 80.140625 17.621094 80.691406 18.324219 L 83.457031 21.863281 L 83.105469 22.015625 C 82.625 22.230469 82.410156 22.792969 82.621094 23.273438 L 82.875 23.84375 C 83.089844 24.320312 83.652344 24.539062 84.132812 24.324219 L 85.0625 23.917969 L 85.109375 23.976562 C 84.996094 24.078125 84.910156 24.203125 84.851562 24.347656 C 84.761719 24.585938 84.769531 24.84375 84.871094 25.074219 L 85.125 25.644531 C 85.289062 26.011719 85.652344 26.222656 86.03125 26.210938 C 86.019531 26.363281 86.046875 26.515625 86.113281 26.660156 L 86.363281 27.226562 C 86.527344 27.597656 86.898438 27.808594 87.277344 27.792969 C 87.265625 27.949219 87.292969 28.105469 87.359375 28.25 L 87.613281 28.820312 C 87.824219 29.300781 88.390625 29.515625 88.871094 29.300781 L 89.167969 29.167969 L 89.3125 29.351562 C 89.578125 29.691406 89.964844 29.910156 90.394531 29.960938 C 90.726562 30.003906 91.054688 29.941406 91.347656 29.789062 C 91.433594 29.742188 91.515625 29.6875 91.59375 29.628906 L 94.996094 26.957031 C 95.003906 26.953125 95.015625 26.949219 95.023438 26.945312 L 97.394531 26.042969 L 98.601562 26.175781 C 99.289062 26.253906 99.976562 26.121094 100.578125 25.800781 C 100.695312 25.738281 100.808594 25.671875 100.917969 25.59375 C 101.59375 25.128906 102.078125 24.433594 102.285156 23.636719 C 102.441406 23.019531 102.328125 22.363281 101.972656 21.835938 Z M 83.898438 23.792969 C 83.710938 23.878906 83.488281 23.792969 83.40625 23.605469 L 83.152344 23.035156 C 83.070312 22.851562 83.152344 22.628906 83.339844 22.546875 L 83.824219 22.335938 L 84.695312 23.445312 Z M 85.65625 25.410156 L 85.402344 24.839844 C 85.363281 24.75 85.359375 24.648438 85.394531 24.554688 C 85.429688 24.464844 85.5 24.390625 85.589844 24.347656 L 86.746094 23.835938 C 86.933594 23.753906 87.152344 23.835938 87.234375 24.023438 L 87.488281 24.59375 C 87.570312 24.78125 87.488281 25 87.300781 25.085938 L 86.144531 25.597656 C 85.957031 25.679688 85.738281 25.597656 85.65625 25.410156 Z M 86.894531 26.992188 L 86.640625 26.421875 C 86.601562 26.332031 86.597656 26.230469 86.636719 26.140625 C 86.671875 26.046875 86.738281 25.972656 86.832031 25.933594 L 87.714844 25.539062 C 87.804688 25.5 87.90625 25.496094 88 25.53125 C 88.09375 25.566406 88.164062 25.636719 88.207031 25.726562 L 88.460938 26.296875 C 88.542969 26.484375 88.457031 26.703125 88.269531 26.789062 L 87.386719 27.179688 C 87.199219 27.265625 86.976562 27.179688 86.894531 26.992188 Z M 88.140625 28.582031 L 87.890625 28.015625 C 87.847656 27.925781 87.847656 27.824219 87.882812 27.730469 C 87.914062 27.644531 87.976562 27.578125 88.054688 27.535156 C 88.0625 27.53125 88.074219 27.527344 88.082031 27.523438 L 88.5 27.332031 C 88.6875 27.246094 88.90625 27.332031 88.988281 27.519531 L 89.242188 28.089844 C 89.328125 28.277344 89.242188 28.496094 89.054688 28.578125 C 89.054688 28.578125 89.050781 28.582031 89.050781 28.582031 L 88.632812 28.773438 C 88.445312 28.855469 88.226562 28.769531 88.140625 28.582031 Z M 91.234375 29.171875 C 91.015625 29.34375 90.742188 29.417969 90.464844 29.386719 C 90.1875 29.351562 89.941406 29.210938 89.769531 28.992188 L 89.644531 28.835938 C 89.859375 28.566406 89.921875 28.1875 89.773438 27.851562 L 89.519531 27.285156 C 89.417969 27.050781 89.230469 26.878906 89.007812 26.789062 C 89.09375 26.5625 89.097656 26.300781 88.988281 26.0625 L 88.738281 25.492188 C 88.632812 25.257812 88.445312 25.082031 88.207031 24.988281 C 88.164062 24.972656 88.121094 24.960938 88.078125 24.949219 C 88.121094 24.757812 88.105469 24.550781 88.019531 24.359375 L 87.765625 23.789062 C 87.550781 23.308594 86.988281 23.09375 86.507812 23.304688 L 85.628906 23.699219 L 81.148438 17.964844 C 80.792969 17.515625 80.875 16.859375 81.324219 16.503906 L 81.335938 16.496094 L 81.6875 16.695312 C 82.011719 16.875 82.414062 16.84375 82.703125 16.617188 L 85.832031 14.167969 C 86.121094 13.9375 86.25 13.558594 86.152344 13.199219 L 86.042969 12.800781 L 86.058594 12.789062 C 86.277344 12.617188 86.550781 12.539062 86.828125 12.574219 C 87.105469 12.605469 87.351562 12.746094 87.523438 12.964844 L 92.046875 18.75 C 91.894531 18.804688 91.753906 18.878906 91.625 18.976562 L 89.75 20.394531 C 89.578125 20.523438 89.480469 20.714844 89.480469 20.929688 C 89.476562 21.140625 89.574219 21.339844 89.742188 21.46875 L 90.015625 21.683594 C 90.507812 22.066406 91.207031 22.082031 91.714844 21.71875 L 92.324219 21.285156 C 92.363281 21.257812 92.417969 21.25 92.46875 21.265625 L 94.535156 21.9375 L 96.144531 23.992188 C 96.496094 24.445312 96.417969 25.101562 95.964844 25.453125 Z M 101.722656 23.492188 C 101.550781 24.152344 101.148438 24.730469 100.589844 25.117188 C 100.027344 25.503906 99.34375 25.675781 98.667969 25.601562 L 97.390625 25.457031 C 97.34375 25.453125 97.296875 25.457031 97.253906 25.472656 L 96.484375 25.765625 C 97.042969 25.195312 97.105469 24.28125 96.601562 23.636719 L 95.414062 22.117188 C 95.472656 22.082031 95.519531 22.027344 95.539062 21.957031 C 95.589844 21.804688 95.507812 21.640625 95.355469 21.59375 L 94.800781 21.414062 C 94.800781 21.410156 94.800781 21.410156 94.800781 21.410156 L 92.644531 20.710938 C 92.421875 20.640625 92.175781 20.679688 91.984375 20.8125 L 91.375 21.246094 C 91.074219 21.460938 90.664062 21.453125 90.375 21.226562 L 90.097656 21.011719 C 90.066406 20.984375 90.058594 20.953125 90.058594 20.933594 C 90.0625 20.914062 90.066406 20.882812 90.097656 20.855469 L 91.976562 19.441406 C 92.125 19.328125 92.300781 19.261719 92.480469 19.242188 C 92.550781 19.265625 92.632812 19.265625 92.703125 19.234375 L 95.699219 19.289062 C 95.710938 19.292969 95.726562 19.292969 95.742188 19.296875 C 96.558594 19.359375 97.207031 19.910156 97.726562 20.972656 C 97.769531 21.058594 97.855469 21.117188 97.949219 21.132812 L 100.34375 21.449219 C 100.8125 21.511719 101.230469 21.773438 101.492188 22.164062 C 101.753906 22.550781 101.839844 23.039062 101.722656 23.492188 Z M 101.722656 23.492188 " fill-opacity="1" fill-rule="nonzero"/></g></g></g><g transform="matrix(1, 0, 0, 1, 55, 30)"><g clip-path="url(#390eef66bf)"><g clip-path="url(#61b5b32859)"><g fill="#ddeef0" fill-opacity="1"><g transform="translate(0.0745665, 8.104277)"><g><path d="M 3.328125 0.15625 C 2.984375 0.15625 2.648438 0.101562 2.328125 0 C 2.015625 -0.101562 1.722656 -0.25 1.453125 -0.4375 C 1.179688 -0.632812 0.941406 -0.863281 0.734375 -1.125 C 0.535156 -1.382812 0.378906 -1.671875 0.265625 -1.984375 C 0.160156 -2.296875 0.109375 -2.628906 0.109375 -2.984375 C 0.109375 -3.328125 0.164062 -3.65625 0.28125 -3.96875 C 0.394531 -4.289062 0.550781 -4.578125 0.75 -4.828125 C 0.957031 -5.085938 1.203125 -5.3125 1.484375 -5.5 C 1.765625 -5.695312 2.066406 -5.84375 2.390625 -5.9375 C 2.722656 -6.039062 3.066406 -6.09375 3.421875 -6.09375 C 3.660156 -6.09375 3.890625 -6.070312 4.109375 -6.03125 C 4.335938 -5.988281 4.554688 -5.929688 4.765625 -5.859375 C 4.972656 -5.785156 5.160156 -5.707031 5.328125 -5.625 L 5.390625 -3.828125 C 5.179688 -3.941406 4.972656 -4.039062 4.765625 -4.125 C 4.566406 -4.207031 4.359375 -4.273438 4.140625 -4.328125 C 3.921875 -4.378906 3.679688 -4.40625 3.421875 -4.40625 C 3.222656 -4.40625 3.035156 -4.367188 2.859375 -4.296875 C 2.679688 -4.234375 2.523438 -4.140625 2.390625 -4.015625 C 2.265625 -3.890625 2.164062 -3.738281 2.09375 -3.5625 C 2.019531 -3.382812 1.984375 -3.191406 1.984375 -2.984375 C 1.984375 -2.753906 2.015625 -2.550781 2.078125 -2.375 C 2.148438 -2.195312 2.25 -2.046875 2.375 -1.921875 C 2.507812 -1.804688 2.660156 -1.710938 2.828125 -1.640625 C 2.992188 -1.578125 3.175781 -1.546875 3.375 -1.546875 C 3.445312 -1.546875 3.523438 -1.546875 3.609375 -1.546875 C 3.703125 -1.554688 3.785156 -1.570312 3.859375 -1.59375 L 3.859375 -2.96875 L 5.5625 -2.96875 L 5.5625 -0.484375 C 5.15625 -0.242188 4.765625 -0.078125 4.390625 0.015625 C 4.023438 0.109375 3.671875 0.15625 3.328125 0.15625 Z M 3.328125 0.15625 "/></g></g><g transform="translate(5.84258, 8.104277)"><g><path d="M 4.1875 0 L 3.953125 -0.921875 L 2.265625 -0.921875 L 2.015625 0 L 0.015625 0 L 2.046875 -5.9375 L 4.25 -5.9375 L 6.28125 0 Z M 2.6875 -2.484375 L 3.515625 -2.484375 L 3.125 -3.921875 L 3.078125 -3.921875 Z M 2.6875 -2.484375 "/></g></g><g transform="translate(12.139555, 8.104277)"><g><path d="M 0.15625 -1.390625 L 0.15625 -2.90625 L 2.78125 -2.90625 L 2.78125 -1.390625 Z M 0.15625 -1.390625 "/></g></g><g transform="translate(15.06829, 8.104277)"><g><path d="M 0.296875 0 L 0.296875 -5.9375 L 2.671875 -5.9375 C 3.003906 -5.9375 3.304688 -5.890625 3.578125 -5.796875 C 3.859375 -5.703125 4.097656 -5.5625 4.296875 -5.375 C 4.492188 -5.1875 4.644531 -4.960938 4.75 -4.703125 C 4.863281 -4.453125 4.921875 -4.171875 4.921875 -3.859375 C 4.921875 -3.546875 4.863281 -3.257812 4.75 -3 C 4.644531 -2.75 4.492188 -2.53125 4.296875 -2.34375 C 4.097656 -2.164062 3.863281 -2.023438 3.59375 -1.921875 C 3.320312 -1.828125 3.019531 -1.78125 2.6875 -1.78125 L 2.203125 -1.78125 L 2.203125 0 Z M 2.203125 -3.40625 L 2.578125 -3.40625 C 2.753906 -3.40625 2.882812 -3.445312 2.96875 -3.53125 C 3.050781 -3.625 3.09375 -3.734375 3.09375 -3.859375 C 3.09375 -3.992188 3.050781 -4.101562 2.96875 -4.1875 C 2.882812 -4.28125 2.753906 -4.328125 2.578125 -4.328125 L 2.203125 -4.328125 Z M 2.203125 -3.40625 "/></g></g><g transform="translate(20.019525, 8.104277)"><g><path d="M 5.296875 0 L 3.25 0 L 2.265625 -1.921875 L 2.203125 -1.921875 L 2.203125 0 L 0.296875 0 L 0.296875 -5.9375 L 2.671875 -5.9375 C 3.003906 -5.9375 3.304688 -5.882812 3.578125 -5.78125 C 3.859375 -5.6875 4.097656 -5.546875 4.296875 -5.359375 C 4.492188 -5.171875 4.644531 -4.945312 4.75 -4.6875 C 4.863281 -4.425781 4.921875 -4.132812 4.921875 -3.8125 C 4.921875 -3.4375 4.84375 -3.113281 4.6875 -2.84375 C 4.53125 -2.570312 4.3125 -2.359375 4.03125 -2.203125 Z M 2.203125 -4.328125 L 2.203125 -3.40625 L 2.609375 -3.40625 C 2.753906 -3.40625 2.867188 -3.445312 2.953125 -3.53125 C 3.046875 -3.613281 3.09375 -3.722656 3.09375 -3.859375 C 3.09375 -4.003906 3.046875 -4.117188 2.953125 -4.203125 C 2.867188 -4.285156 2.757812 -4.328125 2.625 -4.328125 Z M 2.203125 -4.328125 "/></g></g><g transform="translate(25.274135, 8.104277)"><g><path d="M 3.34375 0.15625 C 2.976562 0.15625 2.628906 0.101562 2.296875 0 C 1.972656 -0.101562 1.675781 -0.25 1.40625 -0.4375 C 1.144531 -0.625 0.914062 -0.847656 0.71875 -1.109375 C 0.519531 -1.367188 0.367188 -1.65625 0.265625 -1.96875 C 0.160156 -2.289062 0.109375 -2.628906 0.109375 -2.984375 C 0.109375 -3.335938 0.160156 -3.671875 0.265625 -3.984375 C 0.367188 -4.296875 0.519531 -4.582031 0.71875 -4.84375 C 0.914062 -5.101562 1.144531 -5.328125 1.40625 -5.515625 C 1.675781 -5.703125 1.972656 -5.84375 2.296875 -5.9375 C 2.628906 -6.039062 2.976562 -6.09375 3.34375 -6.09375 C 3.707031 -6.09375 4.050781 -6.039062 4.375 -5.9375 C 4.695312 -5.84375 4.992188 -5.703125 5.265625 -5.515625 C 5.535156 -5.328125 5.765625 -5.101562 5.953125 -4.84375 C 6.148438 -4.582031 6.300781 -4.296875 6.40625 -3.984375 C 6.507812 -3.671875 6.5625 -3.335938 6.5625 -2.984375 C 6.5625 -2.628906 6.507812 -2.289062 6.40625 -1.96875 C 6.300781 -1.65625 6.148438 -1.367188 5.953125 -1.109375 C 5.765625 -0.847656 5.535156 -0.625 5.265625 -0.4375 C 4.992188 -0.25 4.695312 -0.101562 4.375 0 C 4.050781 0.101562 3.707031 0.15625 3.34375 0.15625 Z M 3.34375 -1.59375 C 3.53125 -1.59375 3.703125 -1.625 3.859375 -1.6875 C 4.015625 -1.757812 4.15625 -1.859375 4.28125 -1.984375 C 4.40625 -2.109375 4.5 -2.253906 4.5625 -2.421875 C 4.625 -2.585938 4.65625 -2.773438 4.65625 -2.984375 C 4.65625 -3.171875 4.625 -3.347656 4.5625 -3.515625 C 4.5 -3.691406 4.40625 -3.835938 4.28125 -3.953125 C 4.15625 -4.078125 4.015625 -4.175781 3.859375 -4.25 C 3.703125 -4.320312 3.53125 -4.359375 3.34375 -4.359375 C 3.15625 -4.359375 2.976562 -4.320312 2.8125 -4.25 C 2.65625 -4.175781 2.515625 -4.078125 2.390625 -3.953125 C 2.273438 -3.835938 2.179688 -3.691406 2.109375 -3.515625 C 2.046875 -3.347656 2.015625 -3.171875 2.015625 -2.984375 C 2.015625 -2.773438 2.046875 -2.585938 2.109375 -2.421875 C 2.179688 -2.253906 2.273438 -2.109375 2.390625 -1.984375 C 2.515625 -1.859375 2.65625 -1.757812 2.8125 -1.6875 C 2.976562 -1.625 3.15625 -1.59375 3.34375 -1.59375 Z M 3.34375 -1.59375 "/></g></g><g transform="translate(31.948384, 8.104277)"><g/></g><g transform="translate(34.149797, 8.104277)"><g><path d="M 4.046875 -3.28125 C 4.265625 -3.21875 4.457031 -3.117188 4.625 -2.984375 C 4.789062 -2.859375 4.914062 -2.695312 5 -2.5 C 5.09375 -2.3125 5.140625 -2.09375 5.140625 -1.84375 C 5.140625 -1.570312 5.085938 -1.320312 4.984375 -1.09375 C 4.878906 -0.875 4.726562 -0.679688 4.53125 -0.515625 C 4.34375 -0.347656 4.113281 -0.21875 3.84375 -0.125 C 3.570312 -0.0390625 3.265625 0 2.921875 0 L 0.296875 0 L 0.296875 -5.9375 L 2.5625 -5.9375 C 2.90625 -5.9375 3.210938 -5.894531 3.484375 -5.8125 C 3.753906 -5.738281 3.984375 -5.628906 4.171875 -5.484375 C 4.359375 -5.335938 4.503906 -5.164062 4.609375 -4.96875 C 4.710938 -4.769531 4.765625 -4.546875 4.765625 -4.296875 C 4.765625 -4.128906 4.734375 -3.976562 4.671875 -3.84375 C 4.609375 -3.707031 4.519531 -3.59375 4.40625 -3.5 C 4.300781 -3.40625 4.179688 -3.332031 4.046875 -3.28125 Z M 2.15625 -4.40625 L 2.15625 -3.625 L 2.53125 -3.625 C 2.675781 -3.625 2.78125 -3.664062 2.84375 -3.75 C 2.90625 -3.832031 2.9375 -3.921875 2.9375 -4.015625 C 2.9375 -4.117188 2.898438 -4.207031 2.828125 -4.28125 C 2.753906 -4.363281 2.625 -4.40625 2.4375 -4.40625 Z M 2.703125 -1.5625 C 2.878906 -1.5625 3.007812 -1.601562 3.09375 -1.6875 C 3.175781 -1.78125 3.21875 -1.882812 3.21875 -2 C 3.21875 -2.113281 3.175781 -2.210938 3.09375 -2.296875 C 3.019531 -2.378906 2.910156 -2.421875 2.765625 -2.421875 L 2.15625 -2.421875 L 2.15625 -1.5625 Z M 2.703125 -1.5625 "/></g></g><g transform="translate(39.369402, 8.104277)"><g><path d="M 2.953125 0.15625 C 2.546875 0.15625 2.175781 0.0976562 1.84375 -0.015625 C 1.519531 -0.140625 1.238281 -0.3125 1 -0.53125 C 0.757812 -0.757812 0.578125 -1.023438 0.453125 -1.328125 C 0.328125 -1.640625 0.265625 -1.984375 0.265625 -2.359375 L 0.265625 -5.9375 L 2.171875 -5.9375 L 2.171875 -2.34375 C 2.171875 -2.1875 2.203125 -2.050781 2.265625 -1.9375 C 2.328125 -1.820312 2.414062 -1.726562 2.53125 -1.65625 C 2.65625 -1.59375 2.796875 -1.5625 2.953125 -1.5625 C 3.179688 -1.5625 3.367188 -1.628906 3.515625 -1.765625 C 3.660156 -1.910156 3.734375 -2.097656 3.734375 -2.328125 L 3.734375 -5.9375 L 5.640625 -5.9375 L 5.640625 -2.359375 C 5.640625 -1.984375 5.570312 -1.640625 5.4375 -1.328125 C 5.3125 -1.023438 5.128906 -0.757812 4.890625 -0.53125 C 4.648438 -0.3125 4.363281 -0.140625 4.03125 -0.015625 C 3.707031 0.0976562 3.347656 0.15625 2.953125 0.15625 Z M 2.953125 0.15625 "/></g></g><g transform="translate(45.265767, 8.104277)"><g><path d="M 2.171875 0.15625 C 1.910156 0.15625 1.664062 0.128906 1.4375 0.078125 C 1.207031 0.0234375 0.992188 -0.0390625 0.796875 -0.125 C 0.597656 -0.207031 0.410156 -0.296875 0.234375 -0.390625 L 0.234375 -2.390625 C 0.378906 -2.285156 0.535156 -2.179688 0.703125 -2.078125 C 0.878906 -1.984375 1.050781 -1.894531 1.21875 -1.8125 C 1.394531 -1.726562 1.566406 -1.660156 1.734375 -1.609375 C 1.898438 -1.566406 2.046875 -1.546875 2.171875 -1.546875 C 2.285156 -1.546875 2.375 -1.566406 2.4375 -1.609375 C 2.507812 -1.660156 2.546875 -1.734375 2.546875 -1.828125 C 2.546875 -1.910156 2.519531 -1.972656 2.46875 -2.015625 C 2.425781 -2.054688 2.363281 -2.09375 2.28125 -2.125 C 2.195312 -2.15625 2.101562 -2.1875 2 -2.21875 C 1.90625 -2.25 1.800781 -2.28125 1.6875 -2.3125 C 1.414062 -2.414062 1.179688 -2.523438 0.984375 -2.640625 C 0.785156 -2.753906 0.617188 -2.882812 0.484375 -3.03125 C 0.359375 -3.175781 0.265625 -3.347656 0.203125 -3.546875 C 0.140625 -3.742188 0.109375 -3.976562 0.109375 -4.25 C 0.109375 -4.539062 0.164062 -4.800781 0.28125 -5.03125 C 0.394531 -5.257812 0.550781 -5.453125 0.75 -5.609375 C 0.945312 -5.773438 1.1875 -5.894531 1.46875 -5.96875 C 1.75 -6.050781 2.054688 -6.09375 2.390625 -6.09375 C 2.679688 -6.09375 2.96875 -6.054688 3.25 -5.984375 C 3.53125 -5.921875 3.804688 -5.828125 4.078125 -5.703125 L 4.078125 -3.828125 C 3.972656 -3.910156 3.847656 -3.988281 3.703125 -4.0625 C 3.566406 -4.132812 3.421875 -4.195312 3.265625 -4.25 C 3.117188 -4.300781 2.972656 -4.34375 2.828125 -4.375 C 2.679688 -4.40625 2.550781 -4.421875 2.4375 -4.421875 C 2.257812 -4.421875 2.140625 -4.394531 2.078125 -4.34375 C 2.015625 -4.300781 1.984375 -4.25 1.984375 -4.1875 C 1.984375 -4.113281 2 -4.054688 2.03125 -4.015625 C 2.070312 -3.984375 2.132812 -3.945312 2.21875 -3.90625 C 2.3125 -3.875 2.441406 -3.832031 2.609375 -3.78125 C 2.785156 -3.71875 2.960938 -3.648438 3.140625 -3.578125 C 3.316406 -3.503906 3.484375 -3.414062 3.640625 -3.3125 C 3.796875 -3.207031 3.9375 -3.082031 4.0625 -2.9375 C 4.1875 -2.800781 4.28125 -2.640625 4.34375 -2.453125 C 4.414062 -2.273438 4.453125 -2.066406 4.453125 -1.828125 C 4.453125 -1.503906 4.394531 -1.21875 4.28125 -0.96875 C 4.164062 -0.71875 4.003906 -0.507812 3.796875 -0.34375 C 3.597656 -0.175781 3.359375 -0.0507812 3.078125 0.03125 C 2.804688 0.113281 2.503906 0.15625 2.171875 0.15625 Z M 2.171875 0.15625 "/></g></g><g transform="translate(49.793055, 8.104277)"><g><path d="M 0.296875 0 L 0.296875 -5.9375 L 2.203125 -5.9375 L 2.203125 0 Z M 0.296875 0 "/></g></g><g transform="translate(52.297843, 8.104277)"><g><path d="M 4.078125 -5.9375 L 5.96875 -5.9375 L 5.96875 0 L 4.03125 0 L 2.171875 -2.890625 L 2.203125 0 L 0.296875 0 L 0.296875 -5.9375 L 2.25 -5.9375 L 4.078125 -2.796875 Z M 4.078125 -5.9375 "/></g></g><g transform="translate(58.567592, 8.104277)"><g><path d="M 0.296875 0 L 0.296875 -5.9375 L 4.25 -5.9375 L 4.25 -4.25 L 2.203125 -4.25 L 2.203125 -3.671875 L 3.953125 -3.671875 L 3.953125 -2.265625 L 2.203125 -2.265625 L 2.203125 -1.703125 L 4.296875 -1.703125 L 4.296875 0 Z M 0.296875 0 "/></g></g><g transform="translate(63.048207, 8.104277)"><g><path d="M 2.171875 0.15625 C 1.910156 0.15625 1.664062 0.128906 1.4375 0.078125 C 1.207031 0.0234375 0.992188 -0.0390625 0.796875 -0.125 C 0.597656 -0.207031 0.410156 -0.296875 0.234375 -0.390625 L 0.234375 -2.390625 C 0.378906 -2.285156 0.535156 -2.179688 0.703125 -2.078125 C 0.878906 -1.984375 1.050781 -1.894531 1.21875 -1.8125 C 1.394531 -1.726562 1.566406 -1.660156 1.734375 -1.609375 C 1.898438 -1.566406 2.046875 -1.546875 2.171875 -1.546875 C 2.285156 -1.546875 2.375 -1.566406 2.4375 -1.609375 C 2.507812 -1.660156 2.546875 -1.734375 2.546875 -1.828125 C 2.546875 -1.910156 2.519531 -1.972656 2.46875 -2.015625 C 2.425781 -2.054688 2.363281 -2.09375 2.28125 -2.125 C 2.195312 -2.15625 2.101562 -2.1875 2 -2.21875 C 1.90625 -2.25 1.800781 -2.28125 1.6875 -2.3125 C 1.414062 -2.414062 1.179688 -2.523438 0.984375 -2.640625 C 0.785156 -2.753906 0.617188 -2.882812 0.484375 -3.03125 C 0.359375 -3.175781 0.265625 -3.347656 0.203125 -3.546875 C 0.140625 -3.742188 0.109375 -3.976562 0.109375 -4.25 C 0.109375 -4.539062 0.164062 -4.800781 0.28125 -5.03125 C 0.394531 -5.257812 0.550781 -5.453125 0.75 -5.609375 C 0.945312 -5.773438 1.1875 -5.894531 1.46875 -5.96875 C 1.75 -6.050781 2.054688 -6.09375 2.390625 -6.09375 C 2.679688 -6.09375 2.96875 -6.054688 3.25 -5.984375 C 3.53125 -5.921875 3.804688 -5.828125 4.078125 -5.703125 L 4.078125 -3.828125 C 3.972656 -3.910156 3.847656 -3.988281 3.703125 -4.0625 C 3.566406 -4.132812 3.421875 -4.195312 3.265625 -4.25 C 3.117188 -4.300781 2.972656 -4.34375 2.828125 -4.375 C 2.679688 -4.40625 2.550781 -4.421875 2.4375 -4.421875 C 2.257812 -4.421875 2.140625 -4.394531 2.078125 -4.34375 C 2.015625 -4.300781 1.984375 -4.25 1.984375 -4.1875 C 1.984375 -4.113281 2 -4.054688 2.03125 -4.015625 C 2.070312 -3.984375 2.132812 -3.945312 2.21875 -3.90625 C 2.3125 -3.875 2.441406 -3.832031 2.609375 -3.78125 C 2.785156 -3.71875 2.960938 -3.648438 3.140625 -3.578125 C 3.316406 -3.503906 3.484375 -3.414062 3.640625 -3.3125 C 3.796875 -3.207031 3.9375 -3.082031 4.0625 -2.9375 C 4.1875 -2.800781 4.28125 -2.640625 4.34375 -2.453125 C 4.414062 -2.273438 4.453125 -2.066406 4.453125 -1.828125 C 4.453125 -1.503906 4.394531 -1.21875 4.28125 -0.96875 C 4.164062 -0.71875 4.003906 -0.507812 3.796875 -0.34375 C 3.597656 -0.175781 3.359375 -0.0507812 3.078125 0.03125 C 2.804688 0.113281 2.503906 0.15625 2.171875 0.15625 Z M 2.171875 0.15625 "/></g></g><g transform="translate(67.575495, 8.104277)"><g><path d="M 2.171875 0.15625 C 1.910156 0.15625 1.664062 0.128906 1.4375 0.078125 C 1.207031 0.0234375 0.992188 -0.0390625 0.796875 -0.125 C 0.597656 -0.207031 0.410156 -0.296875 0.234375 -0.390625 L 0.234375 -2.390625 C 0.378906 -2.285156 0.535156 -2.179688 0.703125 -2.078125 C 0.878906 -1.984375 1.050781 -1.894531 1.21875 -1.8125 C 1.394531 -1.726562 1.566406 -1.660156 1.734375 -1.609375 C 1.898438 -1.566406 2.046875 -1.546875 2.171875 -1.546875 C 2.285156 -1.546875 2.375 -1.566406 2.4375 -1.609375 C 2.507812 -1.660156 2.546875 -1.734375 2.546875 -1.828125 C 2.546875 -1.910156 2.519531 -1.972656 2.46875 -2.015625 C 2.425781 -2.054688 2.363281 -2.09375 2.28125 -2.125 C 2.195312 -2.15625 2.101562 -2.1875 2 -2.21875 C 1.90625 -2.25 1.800781 -2.28125 1.6875 -2.3125 C 1.414062 -2.414062 1.179688 -2.523438 0.984375 -2.640625 C 0.785156 -2.753906 0.617188 -2.882812 0.484375 -3.03125 C 0.359375 -3.175781 0.265625 -3.347656 0.203125 -3.546875 C 0.140625 -3.742188 0.109375 -3.976562 0.109375 -4.25 C 0.109375 -4.539062 0.164062 -4.800781 0.28125 -5.03125 C 0.394531 -5.257812 0.550781 -5.453125 0.75 -5.609375 C 0.945312 -5.773438 1.1875 -5.894531 1.46875 -5.96875 C 1.75 -6.050781 2.054688 -6.09375 2.390625 -6.09375 C 2.679688 -6.09375 2.96875 -6.054688 3.25 -5.984375 C 3.53125 -5.921875 3.804688 -5.828125 4.078125 -5.703125 L 4.078125 -3.828125 C 3.972656 -3.910156 3.847656 -3.988281 3.703125 -4.0625 C 3.566406 -4.132812 3.421875 -4.195312 3.265625 -4.25 C 3.117188 -4.300781 2.972656 -4.34375 2.828125 -4.375 C 2.679688 -4.40625 2.550781 -4.421875 2.4375 -4.421875 C 2.257812 -4.421875 2.140625 -4.394531 2.078125 -4.34375 C 2.015625 -4.300781 1.984375 -4.25 1.984375 -4.1875 C 1.984375 -4.113281 2 -4.054688 2.03125 -4.015625 C 2.070312 -3.984375 2.132812 -3.945312 2.21875 -3.90625 C 2.3125 -3.875 2.441406 -3.832031 2.609375 -3.78125 C 2.785156 -3.71875 2.960938 -3.648438 3.140625 -3.578125 C 3.316406 -3.503906 3.484375 -3.414062 3.640625 -3.3125 C 3.796875 -3.207031 3.9375 -3.082031 4.0625 -2.9375 C 4.1875 -2.800781 4.28125 -2.640625 4.34375 -2.453125 C 4.414062 -2.273438 4.453125 -2.066406 4.453125 -1.828125 C 4.453125 -1.503906 4.394531 -1.21875 4.28125 -0.96875 C 4.164062 -0.71875 4.003906 -0.507812 3.796875 -0.34375 C 3.597656 -0.175781 3.359375 -0.0507812 3.078125 0.03125 C 2.804688 0.113281 2.503906 0.15625 2.171875 0.15625 Z M 2.171875 0.15625 "/></g></g></g></g><g fill="#ddeef0" fill-opacity="1"><g transform="translate(72.103561, 8.104277)"><g/></g></g></g></g><g transform="matrix(1, 0, 0, 1, 56, 40)"><g clip-path="url(#f7d36dd314)"><g clip-path="url(#1c84f11c8e)"><g fill="#ddeef0" fill-opacity="1"><g transform="translate(0.0281929, 3.059918)"><g><path d="M 1.21875 -1.140625 C 1.300781 -1.117188 1.375 -1.082031 1.4375 -1.03125 C 1.5 -0.988281 1.546875 -0.929688 1.578125 -0.859375 C 1.617188 -0.785156 1.640625 -0.703125 1.640625 -0.609375 C 1.640625 -0.523438 1.625 -0.445312 1.59375 -0.375 C 1.5625 -0.300781 1.515625 -0.234375 1.453125 -0.171875 C 1.390625 -0.117188 1.3125 -0.078125 1.21875 -0.046875 C 1.132812 -0.015625 1.035156 0 0.921875 0 L 0.1875 0 L 0.1875 -2.0625 L 0.796875 -2.0625 C 0.941406 -2.0625 1.0625 -2.035156 1.15625 -1.984375 C 1.257812 -1.941406 1.335938 -1.878906 1.390625 -1.796875 C 1.453125 -1.722656 1.484375 -1.628906 1.484375 -1.515625 C 1.484375 -1.453125 1.472656 -1.394531 1.453125 -1.34375 C 1.429688 -1.289062 1.398438 -1.242188 1.359375 -1.203125 C 1.316406 -1.171875 1.269531 -1.148438 1.21875 -1.140625 Z M 0.609375 -1.703125 L 0.609375 -1.203125 L 0.8125 -1.203125 C 0.863281 -1.203125 0.90625 -1.210938 0.9375 -1.234375 C 0.976562 -1.265625 1.007812 -1.296875 1.03125 -1.328125 C 1.050781 -1.367188 1.0625 -1.410156 1.0625 -1.453125 C 1.0625 -1.523438 1.035156 -1.582031 0.984375 -1.625 C 0.941406 -1.675781 0.867188 -1.703125 0.765625 -1.703125 Z M 0.875 -0.359375 C 0.945312 -0.359375 1.003906 -0.367188 1.046875 -0.390625 C 1.097656 -0.421875 1.132812 -0.457031 1.15625 -0.5 C 1.1875 -0.550781 1.203125 -0.601562 1.203125 -0.65625 C 1.203125 -0.695312 1.1875 -0.738281 1.15625 -0.78125 C 1.132812 -0.820312 1.101562 -0.851562 1.0625 -0.875 C 1.019531 -0.90625 0.96875 -0.921875 0.90625 -0.921875 L 0.609375 -0.921875 L 0.609375 -0.359375 Z M 0.875 -0.359375 "/></g></g></g></g><g clip-path="url(#0ffb7d1139)"><g fill="#ddeef0" fill-opacity="1"><g transform="translate(1.690432, 3.059918)"><g><path d="M 0.921875 0.046875 C 0.804688 0.046875 0.695312 0.03125 0.59375 0 C 0.488281 -0.0390625 0.398438 -0.0976562 0.328125 -0.171875 C 0.253906 -0.242188 0.195312 -0.332031 0.15625 -0.4375 C 0.113281 -0.539062 0.09375 -0.648438 0.09375 -0.765625 C 0.09375 -0.890625 0.113281 -1 0.15625 -1.09375 C 0.195312 -1.195312 0.253906 -1.285156 0.328125 -1.359375 C 0.398438 -1.429688 0.488281 -1.488281 0.59375 -1.53125 C 0.695312 -1.570312 0.804688 -1.59375 0.921875 -1.59375 C 1.046875 -1.59375 1.160156 -1.570312 1.265625 -1.53125 C 1.367188 -1.488281 1.457031 -1.429688 1.53125 -1.359375 C 1.601562 -1.285156 1.660156 -1.195312 1.703125 -1.09375 C 1.742188 -1 1.765625 -0.890625 1.765625 -0.765625 C 1.765625 -0.648438 1.742188 -0.539062 1.703125 -0.4375 C 1.660156 -0.332031 1.601562 -0.242188 1.53125 -0.171875 C 1.457031 -0.0976562 1.367188 -0.0390625 1.265625 0 C 1.160156 0.03125 1.046875 0.046875 0.921875 0.046875 Z M 0.9375 -0.296875 C 1 -0.296875 1.054688 -0.304688 1.109375 -0.328125 C 1.160156 -0.347656 1.207031 -0.378906 1.25 -0.421875 C 1.289062 -0.460938 1.320312 -0.515625 1.34375 -0.578125 C 1.363281 -0.640625 1.375 -0.703125 1.375 -0.765625 C 1.375 -0.835938 1.363281 -0.898438 1.34375 -0.953125 C 1.320312 -1.015625 1.289062 -1.066406 1.25 -1.109375 C 1.207031 -1.148438 1.160156 -1.179688 1.109375 -1.203125 C 1.054688 -1.234375 1 -1.25 0.9375 -1.25 C 0.863281 -1.25 0.800781 -1.234375 0.75 -1.203125 C 0.695312 -1.179688 0.648438 -1.148438 0.609375 -1.109375 C 0.566406 -1.066406 0.535156 -1.015625 0.515625 -0.953125 C 0.492188 -0.898438 0.484375 -0.835938 0.484375 -0.765625 C 0.484375 -0.703125 0.492188 -0.640625 0.515625 -0.578125 C 0.535156 -0.515625 0.566406 -0.460938 0.609375 -0.421875 C 0.648438 -0.378906 0.695312 -0.347656 0.75 -0.328125 C 0.800781 -0.304688 0.863281 -0.296875 0.9375 -0.296875 Z M 0.9375 -0.296875 "/></g></g></g></g><g clip-path="url(#f872feb0c9)"><g fill="#ddeef0" fill-opacity="1"><g transform="translate(3.507796, 3.059918)"><g><path d="M 1.203125 -1.546875 L 1.609375 -1.546875 L 1.609375 0 L 1.265625 0 L 1.21875 -0.171875 C 1.175781 -0.128906 1.125 -0.0859375 1.0625 -0.046875 C 1.007812 -0.015625 0.953125 0.00390625 0.890625 0.015625 C 0.835938 0.0351562 0.78125 0.046875 0.71875 0.046875 C 0.601562 0.046875 0.503906 0.0234375 0.421875 -0.015625 C 0.335938 -0.0664062 0.273438 -0.144531 0.234375 -0.25 C 0.191406 -0.363281 0.171875 -0.503906 0.171875 -0.671875 L 0.171875 -1.546875 L 0.578125 -1.546875 L 0.578125 -0.671875 C 0.578125 -0.546875 0.597656 -0.453125 0.640625 -0.390625 C 0.691406 -0.328125 0.765625 -0.296875 0.859375 -0.296875 C 0.898438 -0.296875 0.941406 -0.300781 0.984375 -0.3125 C 1.023438 -0.332031 1.0625 -0.359375 1.09375 -0.390625 C 1.132812 -0.421875 1.171875 -0.457031 1.203125 -0.5 Z M 1.203125 -1.546875 "/></g></g></g></g><g clip-path="url(#9cd16454f5)"><g fill="#ddeef0" fill-opacity="1"><g transform="translate(5.259063, 3.059918)"><g><path d="M 0.046875 -1.25 L 0.6875 -1.984375 L 0.734375 -1.984375 L 0.734375 -1.546875 L 1.203125 -1.546875 L 1.203125 -1.1875 L 0.71875 -1.1875 L 0.71875 -0.578125 C 0.71875 -0.523438 0.726562 -0.476562 0.75 -0.4375 C 0.769531 -0.40625 0.796875 -0.378906 0.828125 -0.359375 C 0.867188 -0.335938 0.910156 -0.328125 0.953125 -0.328125 C 1.003906 -0.328125 1.050781 -0.332031 1.09375 -0.34375 C 1.132812 -0.351562 1.171875 -0.363281 1.203125 -0.375 C 1.234375 -0.382812 1.257812 -0.390625 1.28125 -0.390625 L 1.265625 -0.03125 C 1.222656 -0.0078125 1.171875 0.00390625 1.109375 0.015625 C 1.054688 0.0351562 0.984375 0.046875 0.890625 0.046875 C 0.785156 0.046875 0.691406 0.03125 0.609375 0 C 0.535156 -0.0195312 0.476562 -0.0546875 0.4375 -0.109375 C 0.394531 -0.171875 0.363281 -0.238281 0.34375 -0.3125 C 0.320312 -0.394531 0.3125 -0.484375 0.3125 -0.578125 L 0.3125 -1.1875 L 0.046875 -1.1875 Z M 0.046875 -1.25 "/></g></g></g></g><g clip-path="url(#616aedf39b)"><g fill="#ddeef0" fill-opacity="1"><g transform="translate(6.540907, 3.059918)"><g><path d="M 0.390625 -1.71875 C 0.335938 -1.71875 0.289062 -1.726562 0.25 -1.75 C 0.21875 -1.769531 0.1875 -1.796875 0.15625 -1.828125 C 0.132812 -1.867188 0.125 -1.910156 0.125 -1.953125 C 0.125 -1.992188 0.132812 -2.03125 0.15625 -2.0625 C 0.1875 -2.101562 0.21875 -2.132812 0.25 -2.15625 C 0.289062 -2.175781 0.335938 -2.1875 0.390625 -2.1875 C 0.429688 -2.1875 0.472656 -2.175781 0.515625 -2.15625 C 0.554688 -2.132812 0.585938 -2.101562 0.609375 -2.0625 C 0.628906 -2.03125 0.640625 -1.992188 0.640625 -1.953125 C 0.640625 -1.910156 0.628906 -1.867188 0.609375 -1.828125 C 0.585938 -1.796875 0.554688 -1.769531 0.515625 -1.75 C 0.472656 -1.726562 0.429688 -1.71875 0.390625 -1.71875 Z M 0.171875 0 L 0.171875 -1.546875 L 0.59375 -1.546875 L 0.59375 0 Z M 0.171875 0 "/></g></g></g></g><g clip-path="url(#646f699aa6)"><g fill="#ddeef0" fill-opacity="1"><g transform="translate(7.269694, 3.059918)"><g><path d="M 0.890625 -1.59375 C 1.015625 -1.59375 1.140625 -1.578125 1.265625 -1.546875 C 1.390625 -1.523438 1.503906 -1.492188 1.609375 -1.453125 L 1.609375 0.640625 L 1.203125 0.640625 L 1.203125 -0.15625 C 1.140625 -0.0820312 1.070312 -0.03125 1 0 C 0.925781 0.03125 0.847656 0.046875 0.765625 0.046875 C 0.671875 0.046875 0.582031 0.03125 0.5 0 C 0.414062 -0.0390625 0.34375 -0.0976562 0.28125 -0.171875 C 0.21875 -0.242188 0.171875 -0.332031 0.140625 -0.4375 C 0.109375 -0.539062 0.09375 -0.648438 0.09375 -0.765625 C 0.09375 -0.890625 0.109375 -1 0.140625 -1.09375 C 0.179688 -1.195312 0.238281 -1.285156 0.3125 -1.359375 C 0.382812 -1.429688 0.46875 -1.488281 0.5625 -1.53125 C 0.664062 -1.570312 0.773438 -1.59375 0.890625 -1.59375 Z M 0.890625 -0.296875 C 0.953125 -0.296875 1.007812 -0.304688 1.0625 -0.328125 C 1.113281 -0.359375 1.160156 -0.394531 1.203125 -0.4375 L 1.203125 -1.203125 C 1.148438 -1.210938 1.101562 -1.222656 1.0625 -1.234375 C 1.019531 -1.242188 0.972656 -1.25 0.921875 -1.25 C 0.828125 -1.25 0.75 -1.226562 0.6875 -1.1875 C 0.625 -1.144531 0.570312 -1.085938 0.53125 -1.015625 C 0.5 -0.941406 0.484375 -0.859375 0.484375 -0.765625 C 0.484375 -0.671875 0.5 -0.585938 0.53125 -0.515625 C 0.5625 -0.453125 0.609375 -0.398438 0.671875 -0.359375 C 0.734375 -0.316406 0.804688 -0.296875 0.890625 -0.296875 Z M 0.890625 -0.296875 "/></g></g></g></g><g clip-path="url(#3cdf995dd9)"><g fill="#ddeef0" fill-opacity="1"><g transform="translate(9.018264, 3.059918)"><g><path d="M 1.203125 -1.546875 L 1.609375 -1.546875 L 1.609375 0 L 1.265625 0 L 1.21875 -0.171875 C 1.175781 -0.128906 1.125 -0.0859375 1.0625 -0.046875 C 1.007812 -0.015625 0.953125 0.00390625 0.890625 0.015625 C 0.835938 0.0351562 0.78125 0.046875 0.71875 0.046875 C 0.601562 0.046875 0.503906 0.0234375 0.421875 -0.015625 C 0.335938 -0.0664062 0.273438 -0.144531 0.234375 -0.25 C 0.191406 -0.363281 0.171875 -0.503906 0.171875 -0.671875 L 0.171875 -1.546875 L 0.578125 -1.546875 L 0.578125 -0.671875 C 0.578125 -0.546875 0.597656 -0.453125 0.640625 -0.390625 C 0.691406 -0.328125 0.765625 -0.296875 0.859375 -0.296875 C 0.898438 -0.296875 0.941406 -0.300781 0.984375 -0.3125 C 1.023438 -0.332031 1.0625 -0.359375 1.09375 -0.390625 C 1.132812 -0.421875 1.171875 -0.457031 1.203125 -0.5 Z M 1.203125 -1.546875 "/></g></g></g></g><g clip-path="url(#e626be8b70)"><g fill="#ddeef0" fill-opacity="1"><g transform="translate(10.769531, 3.059918)"><g><path d="M 1.578125 -0.875 C 1.578125 -0.863281 1.578125 -0.847656 1.578125 -0.828125 C 1.578125 -0.804688 1.578125 -0.78125 1.578125 -0.75 C 1.578125 -0.726562 1.570312 -0.707031 1.5625 -0.6875 C 1.5625 -0.675781 1.5625 -0.664062 1.5625 -0.65625 L 0.484375 -0.65625 C 0.484375 -0.582031 0.503906 -0.515625 0.546875 -0.453125 C 0.585938 -0.398438 0.640625 -0.359375 0.703125 -0.328125 C 0.773438 -0.296875 0.859375 -0.28125 0.953125 -0.28125 C 1.023438 -0.28125 1.09375 -0.285156 1.15625 -0.296875 C 1.226562 -0.304688 1.289062 -0.320312 1.34375 -0.34375 C 1.394531 -0.375 1.453125 -0.40625 1.515625 -0.4375 L 1.484375 -0.09375 C 1.441406 -0.0703125 1.390625 -0.046875 1.328125 -0.015625 C 1.273438 0.00390625 1.210938 0.0195312 1.140625 0.03125 C 1.066406 0.0507812 0.988281 0.0625 0.90625 0.0625 C 0.78125 0.0625 0.664062 0.0390625 0.5625 0 C 0.46875 -0.0390625 0.382812 -0.0976562 0.3125 -0.171875 C 0.238281 -0.253906 0.179688 -0.34375 0.140625 -0.4375 C 0.109375 -0.539062 0.09375 -0.65625 0.09375 -0.78125 C 0.09375 -0.894531 0.109375 -1 0.140625 -1.09375 C 0.179688 -1.195312 0.234375 -1.285156 0.296875 -1.359375 C 0.367188 -1.429688 0.453125 -1.488281 0.546875 -1.53125 C 0.648438 -1.570312 0.753906 -1.59375 0.859375 -1.59375 C 0.984375 -1.59375 1.085938 -1.570312 1.171875 -1.53125 C 1.265625 -1.488281 1.34375 -1.429688 1.40625 -1.359375 C 1.46875 -1.296875 1.507812 -1.222656 1.53125 -1.140625 C 1.5625 -1.054688 1.578125 -0.96875 1.578125 -0.875 Z M 0.484375 -0.890625 L 1.25 -0.890625 C 1.25 -0.972656 1.234375 -1.039062 1.203125 -1.09375 C 1.171875 -1.15625 1.128906 -1.203125 1.078125 -1.234375 C 1.023438 -1.265625 0.960938 -1.28125 0.890625 -1.28125 C 0.804688 -1.28125 0.734375 -1.265625 0.671875 -1.234375 C 0.617188 -1.203125 0.578125 -1.15625 0.546875 -1.09375 C 0.515625 -1.039062 0.492188 -0.972656 0.484375 -0.890625 Z M 0.484375 -0.890625 "/></g></g></g></g><g clip-path="url(#35ff4ae6d9)"><g fill="#ddeef0" fill-opacity="1"><g transform="translate(12.385907, 3.059918)"><g/></g></g></g><g clip-path="url(#6c5fd327a5)"><g fill="#ddeef0" fill-opacity="1"><g transform="translate(13.111996, 3.059918)"><g><path d="M 2.34375 -2.0625 L 2.640625 0 L 2.1875 0 L 2.015625 -1.1875 L 2.015625 -1.203125 L 1.5 0 L 1.25 0 L 0.734375 -1.1875 L 0.71875 -1.203125 L 0.71875 -1.1875 L 0.5625 0 L 0.109375 0 L 0.40625 -2.0625 L 0.78125 -2.0625 L 1.359375 -0.65625 L 1.375 -0.640625 L 1.390625 -0.65625 L 1.96875 -2.0625 Z M 2.34375 -2.0625 "/></g></g></g></g><g clip-path="url(#ad78930d73)"><g fill="#ddeef0" fill-opacity="1"><g transform="translate(15.816948, 3.059918)"><g><path d="M 0.921875 0.046875 C 0.804688 0.046875 0.695312 0.03125 0.59375 0 C 0.488281 -0.0390625 0.398438 -0.0976562 0.328125 -0.171875 C 0.253906 -0.242188 0.195312 -0.332031 0.15625 -0.4375 C 0.113281 -0.539062 0.09375 -0.648438 0.09375 -0.765625 C 0.09375 -0.890625 0.113281 -1 0.15625 -1.09375 C 0.195312 -1.195312 0.253906 -1.285156 0.328125 -1.359375 C 0.398438 -1.429688 0.488281 -1.488281 0.59375 -1.53125 C 0.695312 -1.570312 0.804688 -1.59375 0.921875 -1.59375 C 1.046875 -1.59375 1.160156 -1.570312 1.265625 -1.53125 C 1.367188 -1.488281 1.457031 -1.429688 1.53125 -1.359375 C 1.601562 -1.285156 1.660156 -1.195312 1.703125 -1.09375 C 1.742188 -1 1.765625 -0.890625 1.765625 -0.765625 C 1.765625 -0.648438 1.742188 -0.539062 1.703125 -0.4375 C 1.660156 -0.332031 1.601562 -0.242188 1.53125 -0.171875 C 1.457031 -0.0976562 1.367188 -0.0390625 1.265625 0 C 1.160156 0.03125 1.046875 0.046875 0.921875 0.046875 Z M 0.9375 -0.296875 C 1 -0.296875 1.054688 -0.304688 1.109375 -0.328125 C 1.160156 -0.347656 1.207031 -0.378906 1.25 -0.421875 C 1.289062 -0.460938 1.320312 -0.515625 1.34375 -0.578125 C 1.363281 -0.640625 1.375 -0.703125 1.375 -0.765625 C 1.375 -0.835938 1.363281 -0.898438 1.34375 -0.953125 C 1.320312 -1.015625 1.289062 -1.066406 1.25 -1.109375 C 1.207031 -1.148438 1.160156 -1.179688 1.109375 -1.203125 C 1.054688 -1.234375 1 -1.25 0.9375 -1.25 C 0.863281 -1.25 0.800781 -1.234375 0.75 -1.203125 C 0.695312 -1.179688 0.648438 -1.148438 0.609375 -1.109375 C 0.566406 -1.066406 0.535156 -1.015625 0.515625 -0.953125 C 0.492188 -0.898438 0.484375 -0.835938 0.484375 -0.765625 C 0.484375 -0.703125 0.492188 -0.640625 0.515625 -0.578125 C 0.535156 -0.515625 0.566406 -0.460938 0.609375 -0.421875 C 0.648438 -0.378906 0.695312 -0.347656 0.75 -0.328125 C 0.800781 -0.304688 0.863281 -0.296875 0.9375 -0.296875 Z M 0.9375 -0.296875 "/></g></g></g></g><g clip-path="url(#f144fd6899)"><g fill="#ddeef0" fill-opacity="1"><g transform="translate(17.634313, 3.059918)"><g><path d="M 1.25 -2.1875 L 1.65625 -2.1875 L 1.65625 0 L 1.3125 0 L 1.265625 -0.15625 C 1.203125 -0.09375 1.132812 -0.0390625 1.0625 0 C 1 0.03125 0.921875 0.046875 0.828125 0.046875 C 0.722656 0.046875 0.625 0.03125 0.53125 0 C 0.445312 -0.0390625 0.367188 -0.0976562 0.296875 -0.171875 C 0.234375 -0.242188 0.179688 -0.328125 0.140625 -0.421875 C 0.109375 -0.523438 0.09375 -0.640625 0.09375 -0.765625 C 0.09375 -0.890625 0.109375 -1 0.140625 -1.09375 C 0.171875 -1.195312 0.21875 -1.285156 0.28125 -1.359375 C 0.34375 -1.429688 0.414062 -1.488281 0.5 -1.53125 C 0.59375 -1.570312 0.6875 -1.59375 0.78125 -1.59375 C 0.84375 -1.59375 0.898438 -1.582031 0.953125 -1.5625 C 1.015625 -1.539062 1.066406 -1.515625 1.109375 -1.484375 C 1.160156 -1.453125 1.207031 -1.421875 1.25 -1.390625 Z M 0.890625 -0.296875 C 0.960938 -0.296875 1.023438 -0.3125 1.078125 -0.34375 C 1.140625 -0.382812 1.195312 -0.429688 1.25 -0.484375 L 1.25 -1.09375 C 1.1875 -1.144531 1.125 -1.179688 1.0625 -1.203125 C 1.007812 -1.234375 0.953125 -1.25 0.890625 -1.25 C 0.804688 -1.25 0.734375 -1.226562 0.671875 -1.1875 C 0.609375 -1.144531 0.5625 -1.085938 0.53125 -1.015625 C 0.5 -0.941406 0.484375 -0.859375 0.484375 -0.765625 C 0.484375 -0.671875 0.5 -0.585938 0.53125 -0.515625 C 0.570312 -0.453125 0.625 -0.398438 0.6875 -0.359375 C 0.75 -0.316406 0.816406 -0.296875 0.890625 -0.296875 Z M 0.890625 -0.296875 "/></g></g></g></g><g clip-path="url(#b87ee05d40)"><g fill="#ddeef0" fill-opacity="1"><g transform="translate(19.430094, 3.059918)"><g><path d="M 1.578125 -0.875 C 1.578125 -0.863281 1.578125 -0.847656 1.578125 -0.828125 C 1.578125 -0.804688 1.578125 -0.78125 1.578125 -0.75 C 1.578125 -0.726562 1.570312 -0.707031 1.5625 -0.6875 C 1.5625 -0.675781 1.5625 -0.664062 1.5625 -0.65625 L 0.484375 -0.65625 C 0.484375 -0.582031 0.503906 -0.515625 0.546875 -0.453125 C 0.585938 -0.398438 0.640625 -0.359375 0.703125 -0.328125 C 0.773438 -0.296875 0.859375 -0.28125 0.953125 -0.28125 C 1.023438 -0.28125 1.09375 -0.285156 1.15625 -0.296875 C 1.226562 -0.304688 1.289062 -0.320312 1.34375 -0.34375 C 1.394531 -0.375 1.453125 -0.40625 1.515625 -0.4375 L 1.484375 -0.09375 C 1.441406 -0.0703125 1.390625 -0.046875 1.328125 -0.015625 C 1.273438 0.00390625 1.210938 0.0195312 1.140625 0.03125 C 1.066406 0.0507812 0.988281 0.0625 0.90625 0.0625 C 0.78125 0.0625 0.664062 0.0390625 0.5625 0 C 0.46875 -0.0390625 0.382812 -0.0976562 0.3125 -0.171875 C 0.238281 -0.253906 0.179688 -0.34375 0.140625 -0.4375 C 0.109375 -0.539062 0.09375 -0.65625 0.09375 -0.78125 C 0.09375 -0.894531 0.109375 -1 0.140625 -1.09375 C 0.179688 -1.195312 0.234375 -1.285156 0.296875 -1.359375 C 0.367188 -1.429688 0.453125 -1.488281 0.546875 -1.53125 C 0.648438 -1.570312 0.753906 -1.59375 0.859375 -1.59375 C 0.984375 -1.59375 1.085938 -1.570312 1.171875 -1.53125 C 1.265625 -1.488281 1.34375 -1.429688 1.40625 -1.359375 C 1.46875 -1.296875 1.507812 -1.222656 1.53125 -1.140625 C 1.5625 -1.054688 1.578125 -0.96875 1.578125 -0.875 Z M 0.484375 -0.890625 L 1.25 -0.890625 C 1.25 -0.972656 1.234375 -1.039062 1.203125 -1.09375 C 1.171875 -1.15625 1.128906 -1.203125 1.078125 -1.234375 C 1.023438 -1.265625 0.960938 -1.28125 0.890625 -1.28125 C 0.804688 -1.28125 0.734375 -1.265625 0.671875 -1.234375 C 0.617188 -1.203125 0.578125 -1.15625 0.546875 -1.09375 C 0.515625 -1.039062 0.492188 -0.972656 0.484375 -0.890625 Z M 0.484375 -0.890625 "/></g></g></g></g><g clip-path="url(#83aa3a0df1)"><g fill="#ddeef0" fill-opacity="1"><g transform="translate(21.04647, 3.059918)"><g><path d="M 1.15625 -1.5625 L 1.1875 -1.1875 C 1.132812 -1.195312 1.085938 -1.207031 1.046875 -1.21875 C 1.003906 -1.226562 0.960938 -1.234375 0.921875 -1.234375 C 0.859375 -1.234375 0.796875 -1.210938 0.734375 -1.171875 C 0.679688 -1.140625 0.632812 -1.09375 0.59375 -1.03125 L 0.59375 0 L 0.171875 0 L 0.171875 -1.546875 L 0.53125 -1.546875 L 0.578125 -1.359375 C 0.640625 -1.441406 0.703125 -1.5 0.765625 -1.53125 C 0.828125 -1.570312 0.894531 -1.59375 0.96875 -1.59375 C 1 -1.59375 1.03125 -1.585938 1.0625 -1.578125 C 1.101562 -1.578125 1.132812 -1.570312 1.15625 -1.5625 Z M 1.15625 -1.5625 "/></g></g></g></g><g clip-path="url(#d3afef8bce)"><g fill="#ddeef0" fill-opacity="1"><g transform="translate(22.235238, 3.059918)"><g><path d="M 1.0625 -1.59375 C 1.25 -1.59375 1.390625 -1.535156 1.484375 -1.421875 C 1.578125 -1.304688 1.625 -1.125 1.625 -0.875 L 1.625 0 L 1.21875 0 L 1.21875 -0.875 C 1.21875 -1 1.191406 -1.09375 1.140625 -1.15625 C 1.097656 -1.21875 1.03125 -1.25 0.9375 -1.25 C 0.894531 -1.25 0.851562 -1.238281 0.8125 -1.21875 C 0.769531 -1.195312 0.726562 -1.171875 0.6875 -1.140625 C 0.644531 -1.109375 0.613281 -1.078125 0.59375 -1.046875 L 0.59375 0 L 0.171875 0 L 0.171875 -1.546875 L 0.53125 -1.546875 L 0.578125 -1.375 C 0.617188 -1.414062 0.664062 -1.453125 0.71875 -1.484375 C 0.78125 -1.515625 0.835938 -1.539062 0.890625 -1.5625 C 0.953125 -1.582031 1.007812 -1.59375 1.0625 -1.59375 Z M 1.0625 -1.59375 "/></g></g></g></g><g clip-path="url(#f705258778)"><g fill="#ddeef0" fill-opacity="1"><g transform="translate(23.986504, 3.059918)"><g><path d="M 1.578125 -0.875 C 1.578125 -0.863281 1.578125 -0.847656 1.578125 -0.828125 C 1.578125 -0.804688 1.578125 -0.78125 1.578125 -0.75 C 1.578125 -0.726562 1.570312 -0.707031 1.5625 -0.6875 C 1.5625 -0.675781 1.5625 -0.664062 1.5625 -0.65625 L 0.484375 -0.65625 C 0.484375 -0.582031 0.503906 -0.515625 0.546875 -0.453125 C 0.585938 -0.398438 0.640625 -0.359375 0.703125 -0.328125 C 0.773438 -0.296875 0.859375 -0.28125 0.953125 -0.28125 C 1.023438 -0.28125 1.09375 -0.285156 1.15625 -0.296875 C 1.226562 -0.304688 1.289062 -0.320312 1.34375 -0.34375 C 1.394531 -0.375 1.453125 -0.40625 1.515625 -0.4375 L 1.484375 -0.09375 C 1.441406 -0.0703125 1.390625 -0.046875 1.328125 -0.015625 C 1.273438 0.00390625 1.210938 0.0195312 1.140625 0.03125 C 1.066406 0.0507812 0.988281 0.0625 0.90625 0.0625 C 0.78125 0.0625 0.664062 0.0390625 0.5625 0 C 0.46875 -0.0390625 0.382812 -0.0976562 0.3125 -0.171875 C 0.238281 -0.253906 0.179688 -0.34375 0.140625 -0.4375 C 0.109375 -0.539062 0.09375 -0.65625 0.09375 -0.78125 C 0.09375 -0.894531 0.109375 -1 0.140625 -1.09375 C 0.179688 -1.195312 0.234375 -1.285156 0.296875 -1.359375 C 0.367188 -1.429688 0.453125 -1.488281 0.546875 -1.53125 C 0.648438 -1.570312 0.753906 -1.59375 0.859375 -1.59375 C 0.984375 -1.59375 1.085938 -1.570312 1.171875 -1.53125 C 1.265625 -1.488281 1.34375 -1.429688 1.40625 -1.359375 C 1.46875 -1.296875 1.507812 -1.222656 1.53125 -1.140625 C 1.5625 -1.054688 1.578125 -0.96875 1.578125 -0.875 Z M 0.484375 -0.890625 L 1.25 -0.890625 C 1.25 -0.972656 1.234375 -1.039062 1.203125 -1.09375 C 1.171875 -1.15625 1.128906 -1.203125 1.078125 -1.234375 C 1.023438 -1.265625 0.960938 -1.28125 0.890625 -1.28125 C 0.804688 -1.28125 0.734375 -1.265625 0.671875 -1.234375 C 0.617188 -1.203125 0.578125 -1.15625 0.546875 -1.09375 C 0.515625 -1.039062 0.492188 -0.972656 0.484375 -0.890625 Z M 0.484375 -0.890625 "/></g></g></g></g><g clip-path="url(#cfd881a4b5)"><g fill="#ddeef0" fill-opacity="1"><g transform="translate(25.602881, 3.059918)"><g/></g></g></g><g clip-path="url(#0653685247)"><g fill="#ddeef0" fill-opacity="1"><g transform="translate(26.328969, 3.059918)"><g><path d="M 1.25 -2.1875 L 1.65625 -2.1875 L 1.65625 0 L 1.3125 0 L 1.265625 -0.15625 C 1.203125 -0.09375 1.132812 -0.0390625 1.0625 0 C 1 0.03125 0.921875 0.046875 0.828125 0.046875 C 0.722656 0.046875 0.625 0.03125 0.53125 0 C 0.445312 -0.0390625 0.367188 -0.0976562 0.296875 -0.171875 C 0.234375 -0.242188 0.179688 -0.328125 0.140625 -0.421875 C 0.109375 -0.523438 0.09375 -0.640625 0.09375 -0.765625 C 0.09375 -0.890625 0.109375 -1 0.140625 -1.09375 C 0.171875 -1.195312 0.21875 -1.285156 0.28125 -1.359375 C 0.34375 -1.429688 0.414062 -1.488281 0.5 -1.53125 C 0.59375 -1.570312 0.6875 -1.59375 0.78125 -1.59375 C 0.84375 -1.59375 0.898438 -1.582031 0.953125 -1.5625 C 1.015625 -1.539062 1.066406 -1.515625 1.109375 -1.484375 C 1.160156 -1.453125 1.207031 -1.421875 1.25 -1.390625 Z M 0.890625 -0.296875 C 0.960938 -0.296875 1.023438 -0.3125 1.078125 -0.34375 C 1.140625 -0.382812 1.195312 -0.429688 1.25 -0.484375 L 1.25 -1.09375 C 1.1875 -1.144531 1.125 -1.179688 1.0625 -1.203125 C 1.007812 -1.234375 0.953125 -1.25 0.890625 -1.25 C 0.804688 -1.25 0.734375 -1.226562 0.671875 -1.1875 C 0.609375 -1.144531 0.5625 -1.085938 0.53125 -1.015625 C 0.5 -0.941406 0.484375 -0.859375 0.484375 -0.765625 C 0.484375 -0.671875 0.5 -0.585938 0.53125 -0.515625 C 0.570312 -0.453125 0.625 -0.398438 0.6875 -0.359375 C 0.75 -0.316406 0.816406 -0.296875 0.890625 -0.296875 Z M 0.890625 -0.296875 "/></g></g></g></g><g clip-path="url(#c4c21a0570)"><g fill="#ddeef0" fill-opacity="1"><g transform="translate(28.124751, 3.059918)"><g><path d="M 1.578125 -0.875 C 1.578125 -0.863281 1.578125 -0.847656 1.578125 -0.828125 C 1.578125 -0.804688 1.578125 -0.78125 1.578125 -0.75 C 1.578125 -0.726562 1.570312 -0.707031 1.5625 -0.6875 C 1.5625 -0.675781 1.5625 -0.664062 1.5625 -0.65625 L 0.484375 -0.65625 C 0.484375 -0.582031 0.503906 -0.515625 0.546875 -0.453125 C 0.585938 -0.398438 0.640625 -0.359375 0.703125 -0.328125 C 0.773438 -0.296875 0.859375 -0.28125 0.953125 -0.28125 C 1.023438 -0.28125 1.09375 -0.285156 1.15625 -0.296875 C 1.226562 -0.304688 1.289062 -0.320312 1.34375 -0.34375 C 1.394531 -0.375 1.453125 -0.40625 1.515625 -0.4375 L 1.484375 -0.09375 C 1.441406 -0.0703125 1.390625 -0.046875 1.328125 -0.015625 C 1.273438 0.00390625 1.210938 0.0195312 1.140625 0.03125 C 1.066406 0.0507812 0.988281 0.0625 0.90625 0.0625 C 0.78125 0.0625 0.664062 0.0390625 0.5625 0 C 0.46875 -0.0390625 0.382812 -0.0976562 0.3125 -0.171875 C 0.238281 -0.253906 0.179688 -0.34375 0.140625 -0.4375 C 0.109375 -0.539062 0.09375 -0.65625 0.09375 -0.78125 C 0.09375 -0.894531 0.109375 -1 0.140625 -1.09375 C 0.179688 -1.195312 0.234375 -1.285156 0.296875 -1.359375 C 0.367188 -1.429688 0.453125 -1.488281 0.546875 -1.53125 C 0.648438 -1.570312 0.753906 -1.59375 0.859375 -1.59375 C 0.984375 -1.59375 1.085938 -1.570312 1.171875 -1.53125 C 1.265625 -1.488281 1.34375 -1.429688 1.40625 -1.359375 C 1.46875 -1.296875 1.507812 -1.222656 1.53125 -1.140625 C 1.5625 -1.054688 1.578125 -0.96875 1.578125 -0.875 Z M 0.484375 -0.890625 L 1.25 -0.890625 C 1.25 -0.972656 1.234375 -1.039062 1.203125 -1.09375 C 1.171875 -1.15625 1.128906 -1.203125 1.078125 -1.234375 C 1.023438 -1.265625 0.960938 -1.28125 0.890625 -1.28125 C 0.804688 -1.28125 0.734375 -1.265625 0.671875 -1.234375 C 0.617188 -1.203125 0.578125 -1.15625 0.546875 -1.09375 C 0.515625 -1.039062 0.492188 -0.972656 0.484375 -0.890625 Z M 0.484375 -0.890625 "/></g></g></g></g><g clip-path="url(#6f8a1f41be)"><g fill="#ddeef0" fill-opacity="1"><g transform="translate(29.741127, 3.059918)"><g/></g></g></g><g clip-path="url(#9c6e88494c)"><g fill="#ddeef0" fill-opacity="1"><g transform="translate(30.467216, 3.059918)"><g><path d="M 0.046875 -1.25 L 0.6875 -1.984375 L 0.734375 -1.984375 L 0.734375 -1.546875 L 1.203125 -1.546875 L 1.203125 -1.1875 L 0.71875 -1.1875 L 0.71875 -0.578125 C 0.71875 -0.523438 0.726562 -0.476562 0.75 -0.4375 C 0.769531 -0.40625 0.796875 -0.378906 0.828125 -0.359375 C 0.867188 -0.335938 0.910156 -0.328125 0.953125 -0.328125 C 1.003906 -0.328125 1.050781 -0.332031 1.09375 -0.34375 C 1.132812 -0.351562 1.171875 -0.363281 1.203125 -0.375 C 1.234375 -0.382812 1.257812 -0.390625 1.28125 -0.390625 L 1.265625 -0.03125 C 1.222656 -0.0078125 1.171875 0.00390625 1.109375 0.015625 C 1.054688 0.0351562 0.984375 0.046875 0.890625 0.046875 C 0.785156 0.046875 0.691406 0.03125 0.609375 0 C 0.535156 -0.0195312 0.476562 -0.0546875 0.4375 -0.109375 C 0.394531 -0.171875 0.363281 -0.238281 0.34375 -0.3125 C 0.320312 -0.394531 0.3125 -0.484375 0.3125 -0.578125 L 0.3125 -1.1875 L 0.046875 -1.1875 Z M 0.046875 -1.25 "/></g></g></g></g><g clip-path="url(#9b4529cdd9)"><g fill="#ddeef0" fill-opacity="1"><g transform="translate(31.74906, 3.059918)"><g><path d="M 0.71875 -1.734375 L 0.90625 -2.140625 L 1.265625 -2.140625 L 1.015625 -1.734375 Z M 1.578125 -0.875 C 1.578125 -0.863281 1.578125 -0.847656 1.578125 -0.828125 C 1.578125 -0.804688 1.578125 -0.78125 1.578125 -0.75 C 1.578125 -0.726562 1.570312 -0.707031 1.5625 -0.6875 C 1.5625 -0.675781 1.5625 -0.664062 1.5625 -0.65625 L 0.484375 -0.65625 C 0.484375 -0.582031 0.503906 -0.515625 0.546875 -0.453125 C 0.585938 -0.398438 0.640625 -0.359375 0.703125 -0.328125 C 0.773438 -0.296875 0.859375 -0.28125 0.953125 -0.28125 C 1.023438 -0.28125 1.09375 -0.285156 1.15625 -0.296875 C 1.226562 -0.304688 1.289062 -0.320312 1.34375 -0.34375 C 1.394531 -0.375 1.453125 -0.40625 1.515625 -0.4375 L 1.484375 -0.09375 C 1.441406 -0.0703125 1.390625 -0.046875 1.328125 -0.015625 C 1.273438 0.00390625 1.210938 0.0195312 1.140625 0.03125 C 1.066406 0.0507812 0.988281 0.0625 0.90625 0.0625 C 0.78125 0.0625 0.664062 0.0390625 0.5625 0 C 0.46875 -0.0390625 0.382812 -0.0976562 0.3125 -0.171875 C 0.238281 -0.253906 0.179688 -0.34375 0.140625 -0.4375 C 0.109375 -0.539062 0.09375 -0.65625 0.09375 -0.78125 C 0.09375 -0.894531 0.109375 -1 0.140625 -1.09375 C 0.179688 -1.195312 0.234375 -1.285156 0.296875 -1.359375 C 0.367188 -1.429688 0.453125 -1.488281 0.546875 -1.53125 C 0.648438 -1.570312 0.753906 -1.59375 0.859375 -1.59375 C 0.984375 -1.59375 1.085938 -1.570312 1.171875 -1.53125 C 1.265625 -1.488281 1.34375 -1.429688 1.40625 -1.359375 C 1.46875 -1.296875 1.507812 -1.222656 1.53125 -1.140625 C 1.5625 -1.054688 1.578125 -0.96875 1.578125 -0.875 Z M 0.484375 -0.890625 L 1.25 -0.890625 C 1.25 -0.972656 1.234375 -1.039062 1.203125 -1.09375 C 1.171875 -1.15625 1.128906 -1.203125 1.078125 -1.234375 C 1.023438 -1.265625 0.960938 -1.28125 0.890625 -1.28125 C 0.804688 -1.28125 0.734375 -1.265625 0.671875 -1.234375 C 0.617188 -1.203125 0.578125 -1.15625 0.546875 -1.09375 C 0.515625 -1.039062 0.492188 -0.972656 0.484375 -0.890625 Z M 0.484375 -0.890625 "/></g></g></g></g><g clip-path="url(#9fecce2102)"><g fill="#ddeef0" fill-opacity="1"><g transform="translate(33.365436, 3.059918)"><g><path d="M 0.171875 0 L 0.171875 -2.1875 L 0.59375 -2.1875 L 0.59375 0 Z M 0.171875 0 "/></g></g></g></g><g clip-path="url(#90f897fa85)"><g fill="#ddeef0" fill-opacity="1"><g transform="translate(34.094224, 3.059918)"><g><path d="M 0.71875 -1.734375 L 0.90625 -2.140625 L 1.265625 -2.140625 L 1.015625 -1.734375 Z M 1.578125 -0.875 C 1.578125 -0.863281 1.578125 -0.847656 1.578125 -0.828125 C 1.578125 -0.804688 1.578125 -0.78125 1.578125 -0.75 C 1.578125 -0.726562 1.570312 -0.707031 1.5625 -0.6875 C 1.5625 -0.675781 1.5625 -0.664062 1.5625 -0.65625 L 0.484375 -0.65625 C 0.484375 -0.582031 0.503906 -0.515625 0.546875 -0.453125 C 0.585938 -0.398438 0.640625 -0.359375 0.703125 -0.328125 C 0.773438 -0.296875 0.859375 -0.28125 0.953125 -0.28125 C 1.023438 -0.28125 1.09375 -0.285156 1.15625 -0.296875 C 1.226562 -0.304688 1.289062 -0.320312 1.34375 -0.34375 C 1.394531 -0.375 1.453125 -0.40625 1.515625 -0.4375 L 1.484375 -0.09375 C 1.441406 -0.0703125 1.390625 -0.046875 1.328125 -0.015625 C 1.273438 0.00390625 1.210938 0.0195312 1.140625 0.03125 C 1.066406 0.0507812 0.988281 0.0625 0.90625 0.0625 C 0.78125 0.0625 0.664062 0.0390625 0.5625 0 C 0.46875 -0.0390625 0.382812 -0.0976562 0.3125 -0.171875 C 0.238281 -0.253906 0.179688 -0.34375 0.140625 -0.4375 C 0.109375 -0.539062 0.09375 -0.65625 0.09375 -0.78125 C 0.09375 -0.894531 0.109375 -1 0.140625 -1.09375 C 0.179688 -1.195312 0.234375 -1.285156 0.296875 -1.359375 C 0.367188 -1.429688 0.453125 -1.488281 0.546875 -1.53125 C 0.648438 -1.570312 0.753906 -1.59375 0.859375 -1.59375 C 0.984375 -1.59375 1.085938 -1.570312 1.171875 -1.53125 C 1.265625 -1.488281 1.34375 -1.429688 1.40625 -1.359375 C 1.46875 -1.296875 1.507812 -1.222656 1.53125 -1.140625 C 1.5625 -1.054688 1.578125 -0.96875 1.578125 -0.875 Z M 0.484375 -0.890625 L 1.25 -0.890625 C 1.25 -0.972656 1.234375 -1.039062 1.203125 -1.09375 C 1.171875 -1.15625 1.128906 -1.203125 1.078125 -1.234375 C 1.023438 -1.265625 0.960938 -1.28125 0.890625 -1.28125 C 0.804688 -1.28125 0.734375 -1.265625 0.671875 -1.234375 C 0.617188 -1.203125 0.578125 -1.15625 0.546875 -1.09375 C 0.515625 -1.039062 0.492188 -0.972656 0.484375 -0.890625 Z M 0.484375 -0.890625 "/></g></g></g></g><g clip-path="url(#a961b2bf1b)"><g fill="#ddeef0" fill-opacity="1"><g transform="translate(35.7106, 3.059918)"><g><path d="M 1.0625 -1.59375 C 1.15625 -1.59375 1.242188 -1.570312 1.328125 -1.53125 C 1.421875 -1.488281 1.492188 -1.429688 1.546875 -1.359375 C 1.609375 -1.285156 1.65625 -1.195312 1.6875 -1.09375 C 1.726562 -1 1.75 -0.890625 1.75 -0.765625 C 1.75 -0.640625 1.726562 -0.523438 1.6875 -0.421875 C 1.65625 -0.328125 1.601562 -0.242188 1.53125 -0.171875 C 1.46875 -0.0976562 1.390625 -0.0390625 1.296875 0 C 1.210938 0.03125 1.125 0.046875 1.03125 0.046875 C 0.9375 0.0546875 0.851562 0.0390625 0.78125 0 C 0.71875 -0.0390625 0.65625 -0.09375 0.59375 -0.15625 L 0.59375 0.640625 L 0.171875 0.640625 L 0.1875 -1.546875 L 0.53125 -1.546875 L 0.578125 -1.375 C 0.617188 -1.414062 0.660156 -1.453125 0.703125 -1.484375 C 0.753906 -1.515625 0.804688 -1.539062 0.859375 -1.5625 C 0.921875 -1.582031 0.988281 -1.59375 1.0625 -1.59375 Z M 0.9375 -0.296875 C 1 -0.296875 1.054688 -0.304688 1.109375 -0.328125 C 1.160156 -0.347656 1.203125 -0.378906 1.234375 -0.421875 C 1.273438 -0.460938 1.304688 -0.515625 1.328125 -0.578125 C 1.347656 -0.640625 1.359375 -0.703125 1.359375 -0.765625 C 1.359375 -0.867188 1.335938 -0.957031 1.296875 -1.03125 C 1.265625 -1.101562 1.21875 -1.15625 1.15625 -1.1875 C 1.09375 -1.226562 1.019531 -1.25 0.9375 -1.25 C 0.875 -1.25 0.8125 -1.234375 0.75 -1.203125 C 0.6875 -1.171875 0.632812 -1.132812 0.59375 -1.09375 L 0.59375 -0.453125 C 0.644531 -0.398438 0.695312 -0.359375 0.75 -0.328125 C 0.8125 -0.304688 0.875 -0.296875 0.9375 -0.296875 Z M 0.9375 -0.296875 "/></g></g></g></g><g clip-path="url(#6cec5f75cc)"><g fill="#ddeef0" fill-opacity="1"><g transform="translate(37.503683, 3.059918)"><g><path d="M 1.0625 -1.59375 C 1.25 -1.59375 1.390625 -1.535156 1.484375 -1.421875 C 1.578125 -1.304688 1.625 -1.117188 1.625 -0.859375 L 1.625 0 L 1.21875 0 L 1.21875 -0.875 C 1.21875 -1 1.191406 -1.09375 1.140625 -1.15625 C 1.097656 -1.21875 1.03125 -1.25 0.9375 -1.25 C 0.882812 -1.25 0.835938 -1.238281 0.796875 -1.21875 C 0.753906 -1.195312 0.710938 -1.171875 0.671875 -1.140625 C 0.640625 -1.109375 0.613281 -1.078125 0.59375 -1.046875 L 0.59375 0 L 0.171875 0 L 0.171875 -2.1875 L 0.59375 -2.1875 L 0.59375 -1.375 C 0.632812 -1.414062 0.679688 -1.453125 0.734375 -1.484375 C 0.785156 -1.515625 0.835938 -1.539062 0.890625 -1.5625 C 0.953125 -1.582031 1.007812 -1.59375 1.0625 -1.59375 Z M 1.0625 -1.59375 "/></g></g></g></g><g clip-path="url(#c2e0fa521d)"><g fill="#ddeef0" fill-opacity="1"><g transform="translate(39.254952, 3.059918)"><g><path d="M 0.921875 0.046875 C 0.804688 0.046875 0.695312 0.03125 0.59375 0 C 0.488281 -0.0390625 0.398438 -0.0976562 0.328125 -0.171875 C 0.253906 -0.242188 0.195312 -0.332031 0.15625 -0.4375 C 0.113281 -0.539062 0.09375 -0.648438 0.09375 -0.765625 C 0.09375 -0.890625 0.113281 -1 0.15625 -1.09375 C 0.195312 -1.195312 0.253906 -1.285156 0.328125 -1.359375 C 0.398438 -1.429688 0.488281 -1.488281 0.59375 -1.53125 C 0.695312 -1.570312 0.804688 -1.59375 0.921875 -1.59375 C 1.046875 -1.59375 1.160156 -1.570312 1.265625 -1.53125 C 1.367188 -1.488281 1.457031 -1.429688 1.53125 -1.359375 C 1.601562 -1.285156 1.660156 -1.195312 1.703125 -1.09375 C 1.742188 -1 1.765625 -0.890625 1.765625 -0.765625 C 1.765625 -0.648438 1.742188 -0.539062 1.703125 -0.4375 C 1.660156 -0.332031 1.601562 -0.242188 1.53125 -0.171875 C 1.457031 -0.0976562 1.367188 -0.0390625 1.265625 0 C 1.160156 0.03125 1.046875 0.046875 0.921875 0.046875 Z M 0.9375 -0.296875 C 1 -0.296875 1.054688 -0.304688 1.109375 -0.328125 C 1.160156 -0.347656 1.207031 -0.378906 1.25 -0.421875 C 1.289062 -0.460938 1.320312 -0.515625 1.34375 -0.578125 C 1.363281 -0.640625 1.375 -0.703125 1.375 -0.765625 C 1.375 -0.835938 1.363281 -0.898438 1.34375 -0.953125 C 1.320312 -1.015625 1.289062 -1.066406 1.25 -1.109375 C 1.207031 -1.148438 1.160156 -1.179688 1.109375 -1.203125 C 1.054688 -1.234375 1 -1.25 0.9375 -1.25 C 0.863281 -1.25 0.800781 -1.234375 0.75 -1.203125 C 0.695312 -1.179688 0.648438 -1.148438 0.609375 -1.109375 C 0.566406 -1.066406 0.535156 -1.015625 0.515625 -0.953125 C 0.492188 -0.898438 0.484375 -0.835938 0.484375 -0.765625 C 0.484375 -0.703125 0.492188 -0.640625 0.515625 -0.578125 C 0.535156 -0.515625 0.566406 -0.460938 0.609375 -0.421875 C 0.648438 -0.378906 0.695312 -0.347656 0.75 -0.328125 C 0.800781 -0.304688 0.863281 -0.296875 0.9375 -0.296875 Z M 0.9375 -0.296875 "/></g></g></g></g><g clip-path="url(#f6b6f3039b)"><g fill="#ddeef0" fill-opacity="1"><g transform="translate(41.072316, 3.059918)"><g><path d="M 1.0625 -1.59375 C 1.25 -1.59375 1.390625 -1.535156 1.484375 -1.421875 C 1.578125 -1.304688 1.625 -1.125 1.625 -0.875 L 1.625 0 L 1.21875 0 L 1.21875 -0.875 C 1.21875 -1 1.191406 -1.09375 1.140625 -1.15625 C 1.097656 -1.21875 1.03125 -1.25 0.9375 -1.25 C 0.894531 -1.25 0.851562 -1.238281 0.8125 -1.21875 C 0.769531 -1.195312 0.726562 -1.171875 0.6875 -1.140625 C 0.644531 -1.109375 0.613281 -1.078125 0.59375 -1.046875 L 0.59375 0 L 0.171875 0 L 0.171875 -1.546875 L 0.53125 -1.546875 L 0.578125 -1.375 C 0.617188 -1.414062 0.664062 -1.453125 0.71875 -1.484375 C 0.78125 -1.515625 0.835938 -1.539062 0.890625 -1.5625 C 0.953125 -1.582031 1.007812 -1.59375 1.0625 -1.59375 Z M 1.0625 -1.59375 "/></g></g></g></g><g clip-path="url(#d4aef78f70)"><g fill="#ddeef0" fill-opacity="1"><g transform="translate(42.82358, 3.059918)"><g><path d="M 1.578125 -0.875 C 1.578125 -0.863281 1.578125 -0.847656 1.578125 -0.828125 C 1.578125 -0.804688 1.578125 -0.78125 1.578125 -0.75 C 1.578125 -0.726562 1.570312 -0.707031 1.5625 -0.6875 C 1.5625 -0.675781 1.5625 -0.664062 1.5625 -0.65625 L 0.484375 -0.65625 C 0.484375 -0.582031 0.503906 -0.515625 0.546875 -0.453125 C 0.585938 -0.398438 0.640625 -0.359375 0.703125 -0.328125 C 0.773438 -0.296875 0.859375 -0.28125 0.953125 -0.28125 C 1.023438 -0.28125 1.09375 -0.285156 1.15625 -0.296875 C 1.226562 -0.304688 1.289062 -0.320312 1.34375 -0.34375 C 1.394531 -0.375 1.453125 -0.40625 1.515625 -0.4375 L 1.484375 -0.09375 C 1.441406 -0.0703125 1.390625 -0.046875 1.328125 -0.015625 C 1.273438 0.00390625 1.210938 0.0195312 1.140625 0.03125 C 1.066406 0.0507812 0.988281 0.0625 0.90625 0.0625 C 0.78125 0.0625 0.664062 0.0390625 0.5625 0 C 0.46875 -0.0390625 0.382812 -0.0976562 0.3125 -0.171875 C 0.238281 -0.253906 0.179688 -0.34375 0.140625 -0.4375 C 0.109375 -0.539062 0.09375 -0.65625 0.09375 -0.78125 C 0.09375 -0.894531 0.109375 -1 0.140625 -1.09375 C 0.179688 -1.195312 0.234375 -1.285156 0.296875 -1.359375 C 0.367188 -1.429688 0.453125 -1.488281 0.546875 -1.53125 C 0.648438 -1.570312 0.753906 -1.59375 0.859375 -1.59375 C 0.984375 -1.59375 1.085938 -1.570312 1.171875 -1.53125 C 1.265625 -1.488281 1.34375 -1.429688 1.40625 -1.359375 C 1.46875 -1.296875 1.507812 -1.222656 1.53125 -1.140625 C 1.5625 -1.054688 1.578125 -0.96875 1.578125 -0.875 Z M 0.484375 -0.890625 L 1.25 -0.890625 C 1.25 -0.972656 1.234375 -1.039062 1.203125 -1.09375 C 1.171875 -1.15625 1.128906 -1.203125 1.078125 -1.234375 C 1.023438 -1.265625 0.960938 -1.28125 0.890625 -1.28125 C 0.804688 -1.28125 0.734375 -1.265625 0.671875 -1.234375 C 0.617188 -1.203125 0.578125 -1.15625 0.546875 -1.09375 C 0.515625 -1.039062 0.492188 -0.972656 0.484375 -0.890625 Z M 0.484375 -0.890625 "/></g></g></g></g><g clip-path="url(#e41be9372e)"><g fill="#ddeef0" fill-opacity="1"><g transform="translate(44.439956, 3.059918)"><g><path d="M 0.625 0.046875 C 0.5625 0.046875 0.5 0.0390625 0.4375 0.03125 C 0.375 0.0195312 0.3125 0.0078125 0.25 0 C 0.195312 -0.0195312 0.15625 -0.0390625 0.125 -0.0625 L 0.109375 -0.4375 C 0.148438 -0.40625 0.195312 -0.375 0.25 -0.34375 C 0.3125 -0.320312 0.375 -0.304688 0.4375 -0.296875 C 0.5 -0.285156 0.554688 -0.28125 0.609375 -0.28125 C 0.742188 -0.28125 0.8125 -0.332031 0.8125 -0.4375 C 0.820312 -0.46875 0.816406 -0.492188 0.796875 -0.515625 C 0.773438 -0.535156 0.742188 -0.554688 0.703125 -0.578125 C 0.660156 -0.597656 0.601562 -0.617188 0.53125 -0.640625 C 0.445312 -0.679688 0.375 -0.722656 0.3125 -0.765625 C 0.25 -0.816406 0.203125 -0.867188 0.171875 -0.921875 C 0.140625 -0.984375 0.125 -1.054688 0.125 -1.140625 C 0.125 -1.234375 0.144531 -1.3125 0.1875 -1.375 C 0.226562 -1.445312 0.285156 -1.5 0.359375 -1.53125 C 0.441406 -1.570312 0.535156 -1.59375 0.640625 -1.59375 C 0.703125 -1.59375 0.773438 -1.582031 0.859375 -1.5625 C 0.941406 -1.550781 1.019531 -1.53125 1.09375 -1.5 L 1.109375 -1.140625 C 1.066406 -1.160156 1.019531 -1.175781 0.96875 -1.1875 C 0.914062 -1.207031 0.863281 -1.222656 0.8125 -1.234375 C 0.757812 -1.253906 0.71875 -1.265625 0.6875 -1.265625 C 0.632812 -1.265625 0.59375 -1.25 0.5625 -1.21875 C 0.53125 -1.195312 0.515625 -1.164062 0.515625 -1.125 C 0.515625 -1.09375 0.519531 -1.066406 0.53125 -1.046875 C 0.539062 -1.023438 0.5625 -1.003906 0.59375 -0.984375 C 0.625 -0.960938 0.664062 -0.941406 0.71875 -0.921875 C 0.8125 -0.890625 0.890625 -0.851562 0.953125 -0.8125 C 1.015625 -0.78125 1.066406 -0.742188 1.109375 -0.703125 C 1.148438 -0.671875 1.179688 -0.632812 1.203125 -0.59375 C 1.222656 -0.550781 1.234375 -0.5 1.234375 -0.4375 C 1.234375 -0.320312 1.207031 -0.226562 1.15625 -0.15625 C 1.101562 -0.09375 1.03125 -0.0390625 0.9375 0 C 0.851562 0.03125 0.75 0.046875 0.625 0.046875 Z M 0.625 0.046875 "/></g></g></g></g><g clip-path="url(#07d3458432)"><g fill="#ddeef0" fill-opacity="1"><g transform="translate(45.70696, 3.059918)"><g/></g></g></g><g clip-path="url(#3f892a2fda)"><g fill="#ddeef0" fill-opacity="1"><g transform="translate(46.433053, 3.059918)"><g><path d="M 1.578125 -0.875 C 1.578125 -0.863281 1.578125 -0.847656 1.578125 -0.828125 C 1.578125 -0.804688 1.578125 -0.78125 1.578125 -0.75 C 1.578125 -0.726562 1.570312 -0.707031 1.5625 -0.6875 C 1.5625 -0.675781 1.5625 -0.664062 1.5625 -0.65625 L 0.484375 -0.65625 C 0.484375 -0.582031 0.503906 -0.515625 0.546875 -0.453125 C 0.585938 -0.398438 0.640625 -0.359375 0.703125 -0.328125 C 0.773438 -0.296875 0.859375 -0.28125 0.953125 -0.28125 C 1.023438 -0.28125 1.09375 -0.285156 1.15625 -0.296875 C 1.226562 -0.304688 1.289062 -0.320312 1.34375 -0.34375 C 1.394531 -0.375 1.453125 -0.40625 1.515625 -0.4375 L 1.484375 -0.09375 C 1.441406 -0.0703125 1.390625 -0.046875 1.328125 -0.015625 C 1.273438 0.00390625 1.210938 0.0195312 1.140625 0.03125 C 1.066406 0.0507812 0.988281 0.0625 0.90625 0.0625 C 0.78125 0.0625 0.664062 0.0390625 0.5625 0 C 0.46875 -0.0390625 0.382812 -0.0976562 0.3125 -0.171875 C 0.238281 -0.253906 0.179688 -0.34375 0.140625 -0.4375 C 0.109375 -0.539062 0.09375 -0.65625 0.09375 -0.78125 C 0.09375 -0.894531 0.109375 -1 0.140625 -1.09375 C 0.179688 -1.195312 0.234375 -1.285156 0.296875 -1.359375 C 0.367188 -1.429688 0.453125 -1.488281 0.546875 -1.53125 C 0.648438 -1.570312 0.753906 -1.59375 0.859375 -1.59375 C 0.984375 -1.59375 1.085938 -1.570312 1.171875 -1.53125 C 1.265625 -1.488281 1.34375 -1.429688 1.40625 -1.359375 C 1.46875 -1.296875 1.507812 -1.222656 1.53125 -1.140625 C 1.5625 -1.054688 1.578125 -0.96875 1.578125 -0.875 Z M 0.484375 -0.890625 L 1.25 -0.890625 C 1.25 -0.972656 1.234375 -1.039062 1.203125 -1.09375 C 1.171875 -1.15625 1.128906 -1.203125 1.078125 -1.234375 C 1.023438 -1.265625 0.960938 -1.28125 0.890625 -1.28125 C 0.804688 -1.28125 0.734375 -1.265625 0.671875 -1.234375 C 0.617188 -1.203125 0.578125 -1.15625 0.546875 -1.09375 C 0.515625 -1.039062 0.492188 -0.972656 0.484375 -0.890625 Z M 0.484375 -0.890625 "/></g></g></g></g><g clip-path="url(#9e8341b521)"><g fill="#ddeef0" fill-opacity="1"><g transform="translate(48.049429, 3.059918)"><g><path d="M 0.046875 -1.25 L 0.6875 -1.984375 L 0.734375 -1.984375 L 0.734375 -1.546875 L 1.203125 -1.546875 L 1.203125 -1.1875 L 0.71875 -1.1875 L 0.71875 -0.578125 C 0.71875 -0.523438 0.726562 -0.476562 0.75 -0.4375 C 0.769531 -0.40625 0.796875 -0.378906 0.828125 -0.359375 C 0.867188 -0.335938 0.910156 -0.328125 0.953125 -0.328125 C 1.003906 -0.328125 1.050781 -0.332031 1.09375 -0.34375 C 1.132812 -0.351562 1.171875 -0.363281 1.203125 -0.375 C 1.234375 -0.382812 1.257812 -0.390625 1.28125 -0.390625 L 1.265625 -0.03125 C 1.222656 -0.0078125 1.171875 0.00390625 1.109375 0.015625 C 1.054688 0.0351562 0.984375 0.046875 0.890625 0.046875 C 0.785156 0.046875 0.691406 0.03125 0.609375 0 C 0.535156 -0.0195312 0.476562 -0.0546875 0.4375 -0.109375 C 0.394531 -0.171875 0.363281 -0.238281 0.34375 -0.3125 C 0.320312 -0.394531 0.3125 -0.484375 0.3125 -0.578125 L 0.3125 -1.1875 L 0.046875 -1.1875 Z M 0.046875 -1.25 "/></g></g></g></g><g clip-path="url(#90f4075922)"><g fill="#ddeef0" fill-opacity="1"><g transform="translate(49.331271, 3.059918)"><g/></g></g></g><g clip-path="url(#e4e7c6e3ff)"><g fill="#ddeef0" fill-opacity="1"><g transform="translate(50.05736, 3.059918)"><g><path d="M 0.171875 0 L 0.171875 -2.1875 L 0.59375 -2.1875 L 0.59375 0 Z M 0.171875 0 "/></g></g></g></g><g clip-path="url(#2b931aac08)"><g fill="#ddeef0" fill-opacity="1"><g transform="translate(50.786147, 3.059918)"><g><path d="M 1.578125 -0.875 C 1.578125 -0.863281 1.578125 -0.847656 1.578125 -0.828125 C 1.578125 -0.804688 1.578125 -0.78125 1.578125 -0.75 C 1.578125 -0.726562 1.570312 -0.707031 1.5625 -0.6875 C 1.5625 -0.675781 1.5625 -0.664062 1.5625 -0.65625 L 0.484375 -0.65625 C 0.484375 -0.582031 0.503906 -0.515625 0.546875 -0.453125 C 0.585938 -0.398438 0.640625 -0.359375 0.703125 -0.328125 C 0.773438 -0.296875 0.859375 -0.28125 0.953125 -0.28125 C 1.023438 -0.28125 1.09375 -0.285156 1.15625 -0.296875 C 1.226562 -0.304688 1.289062 -0.320312 1.34375 -0.34375 C 1.394531 -0.375 1.453125 -0.40625 1.515625 -0.4375 L 1.484375 -0.09375 C 1.441406 -0.0703125 1.390625 -0.046875 1.328125 -0.015625 C 1.273438 0.00390625 1.210938 0.0195312 1.140625 0.03125 C 1.066406 0.0507812 0.988281 0.0625 0.90625 0.0625 C 0.78125 0.0625 0.664062 0.0390625 0.5625 0 C 0.46875 -0.0390625 0.382812 -0.0976562 0.3125 -0.171875 C 0.238281 -0.253906 0.179688 -0.34375 0.140625 -0.4375 C 0.109375 -0.539062 0.09375 -0.65625 0.09375 -0.78125 C 0.09375 -0.894531 0.109375 -1 0.140625 -1.09375 C 0.179688 -1.195312 0.234375 -1.285156 0.296875 -1.359375 C 0.367188 -1.429688 0.453125 -1.488281 0.546875 -1.53125 C 0.648438 -1.570312 0.753906 -1.59375 0.859375 -1.59375 C 0.984375 -1.59375 1.085938 -1.570312 1.171875 -1.53125 C 1.265625 -1.488281 1.34375 -1.429688 1.40625 -1.359375 C 1.46875 -1.296875 1.507812 -1.222656 1.53125 -1.140625 C 1.5625 -1.054688 1.578125 -0.96875 1.578125 -0.875 Z M 0.484375 -0.890625 L 1.25 -0.890625 C 1.25 -0.972656 1.234375 -1.039062 1.203125 -1.09375 C 1.171875 -1.15625 1.128906 -1.203125 1.078125 -1.234375 C 1.023438 -1.265625 0.960938 -1.28125 0.890625 -1.28125 C 0.804688 -1.28125 0.734375 -1.265625 0.671875 -1.234375 C 0.617188 -1.203125 0.578125 -1.15625 0.546875 -1.09375 C 0.515625 -1.039062 0.492188 -0.972656 0.484375 -0.890625 Z M 0.484375 -0.890625 "/></g></g></g></g><g clip-path="url(#7e847a09fa)"><g fill="#ddeef0" fill-opacity="1"><g transform="translate(52.402523, 3.059918)"><g><path d="M 0.625 0.046875 C 0.5625 0.046875 0.5 0.0390625 0.4375 0.03125 C 0.375 0.0195312 0.3125 0.0078125 0.25 0 C 0.195312 -0.0195312 0.15625 -0.0390625 0.125 -0.0625 L 0.109375 -0.4375 C 0.148438 -0.40625 0.195312 -0.375 0.25 -0.34375 C 0.3125 -0.320312 0.375 -0.304688 0.4375 -0.296875 C 0.5 -0.285156 0.554688 -0.28125 0.609375 -0.28125 C 0.742188 -0.28125 0.8125 -0.332031 0.8125 -0.4375 C 0.820312 -0.46875 0.816406 -0.492188 0.796875 -0.515625 C 0.773438 -0.535156 0.742188 -0.554688 0.703125 -0.578125 C 0.660156 -0.597656 0.601562 -0.617188 0.53125 -0.640625 C 0.445312 -0.679688 0.375 -0.722656 0.3125 -0.765625 C 0.25 -0.816406 0.203125 -0.867188 0.171875 -0.921875 C 0.140625 -0.984375 0.125 -1.054688 0.125 -1.140625 C 0.125 -1.234375 0.144531 -1.3125 0.1875 -1.375 C 0.226562 -1.445312 0.285156 -1.5 0.359375 -1.53125 C 0.441406 -1.570312 0.535156 -1.59375 0.640625 -1.59375 C 0.703125 -1.59375 0.773438 -1.582031 0.859375 -1.5625 C 0.941406 -1.550781 1.019531 -1.53125 1.09375 -1.5 L 1.109375 -1.140625 C 1.066406 -1.160156 1.019531 -1.175781 0.96875 -1.1875 C 0.914062 -1.207031 0.863281 -1.222656 0.8125 -1.234375 C 0.757812 -1.253906 0.71875 -1.265625 0.6875 -1.265625 C 0.632812 -1.265625 0.59375 -1.25 0.5625 -1.21875 C 0.53125 -1.195312 0.515625 -1.164062 0.515625 -1.125 C 0.515625 -1.09375 0.519531 -1.066406 0.53125 -1.046875 C 0.539062 -1.023438 0.5625 -1.003906 0.59375 -0.984375 C 0.625 -0.960938 0.664062 -0.941406 0.71875 -0.921875 C 0.8125 -0.890625 0.890625 -0.851562 0.953125 -0.8125 C 1.015625 -0.78125 1.066406 -0.742188 1.109375 -0.703125 C 1.148438 -0.671875 1.179688 -0.632812 1.203125 -0.59375 C 1.222656 -0.550781 1.234375 -0.5 1.234375 -0.4375 C 1.234375 -0.320312 1.207031 -0.226562 1.15625 -0.15625 C 1.101562 -0.09375 1.03125 -0.0390625 0.9375 0 C 0.851562 0.03125 0.75 0.046875 0.625 0.046875 Z M 0.625 0.046875 "/></g></g></g></g><g clip-path="url(#06f0fd03f6)"><g fill="#ddeef0" fill-opacity="1"><g transform="translate(53.669527, 3.059918)"><g/></g></g></g><g clip-path="url(#8411c5ae66)"><g fill="#ddeef0" fill-opacity="1"><g transform="translate(54.395616, 3.059918)"><g><path d="M 0.765625 -1.59375 C 0.929688 -1.59375 1.0625 -1.566406 1.15625 -1.515625 C 1.257812 -1.460938 1.332031 -1.382812 1.375 -1.28125 C 1.425781 -1.1875 1.453125 -1.070312 1.453125 -0.9375 L 1.453125 0 L 1.109375 0 L 1.0625 -0.15625 C 1.019531 -0.113281 0.972656 -0.078125 0.921875 -0.046875 C 0.867188 -0.015625 0.8125 0.00390625 0.75 0.015625 C 0.695312 0.0351562 0.644531 0.046875 0.59375 0.046875 C 0.488281 0.046875 0.398438 0.03125 0.328125 0 C 0.253906 -0.0390625 0.195312 -0.09375 0.15625 -0.15625 C 0.125 -0.226562 0.109375 -0.3125 0.109375 -0.40625 C 0.109375 -0.507812 0.128906 -0.597656 0.171875 -0.671875 C 0.222656 -0.742188 0.289062 -0.796875 0.375 -0.828125 C 0.457031 -0.867188 0.550781 -0.890625 0.65625 -0.890625 C 0.71875 -0.890625 0.78125 -0.882812 0.84375 -0.875 C 0.90625 -0.875 0.972656 -0.867188 1.046875 -0.859375 L 1.046875 -0.9375 C 1.046875 -0.96875 1.039062 -1.003906 1.03125 -1.046875 C 1.019531 -1.085938 1.003906 -1.117188 0.984375 -1.140625 C 0.960938 -1.171875 0.925781 -1.195312 0.875 -1.21875 C 0.832031 -1.238281 0.773438 -1.25 0.703125 -1.25 C 0.609375 -1.25 0.515625 -1.234375 0.421875 -1.203125 C 0.328125 -1.171875 0.238281 -1.132812 0.15625 -1.09375 L 0.203125 -1.453125 C 0.273438 -1.492188 0.359375 -1.523438 0.453125 -1.546875 C 0.554688 -1.578125 0.660156 -1.59375 0.765625 -1.59375 Z M 0.71875 -0.25 C 0.78125 -0.25 0.835938 -0.265625 0.890625 -0.296875 C 0.953125 -0.328125 1.003906 -0.367188 1.046875 -0.421875 L 1.046875 -0.609375 C 0.992188 -0.617188 0.941406 -0.628906 0.890625 -0.640625 C 0.847656 -0.648438 0.800781 -0.65625 0.75 -0.65625 C 0.664062 -0.65625 0.597656 -0.640625 0.546875 -0.609375 C 0.503906 -0.578125 0.484375 -0.523438 0.484375 -0.453125 C 0.484375 -0.378906 0.503906 -0.328125 0.546875 -0.296875 C 0.585938 -0.265625 0.644531 -0.25 0.71875 -0.25 Z M 0.71875 -0.25 "/></g></g></g></g><g clip-path="url(#9a914a7f4e)"><g fill="#ddeef0" fill-opacity="1"><g transform="translate(55.980967, 3.059918)"><g><path d="M 0.90625 0.046875 C 0.789062 0.046875 0.679688 0.03125 0.578125 0 C 0.484375 -0.0390625 0.398438 -0.0976562 0.328125 -0.171875 C 0.253906 -0.242188 0.195312 -0.332031 0.15625 -0.4375 C 0.113281 -0.539062 0.09375 -0.648438 0.09375 -0.765625 C 0.09375 -0.890625 0.113281 -1 0.15625 -1.09375 C 0.195312 -1.195312 0.253906 -1.285156 0.328125 -1.359375 C 0.398438 -1.429688 0.484375 -1.488281 0.578125 -1.53125 C 0.679688 -1.570312 0.789062 -1.59375 0.90625 -1.59375 C 0.96875 -1.59375 1.019531 -1.585938 1.0625 -1.578125 C 1.113281 -1.566406 1.160156 -1.550781 1.203125 -1.53125 C 1.242188 -1.519531 1.285156 -1.5 1.328125 -1.46875 L 1.359375 -1.109375 C 1.304688 -1.148438 1.242188 -1.179688 1.171875 -1.203125 C 1.097656 -1.234375 1.019531 -1.25 0.9375 -1.25 C 0.875 -1.25 0.8125 -1.238281 0.75 -1.21875 C 0.695312 -1.195312 0.648438 -1.160156 0.609375 -1.109375 C 0.566406 -1.066406 0.535156 -1.015625 0.515625 -0.953125 C 0.492188 -0.898438 0.484375 -0.835938 0.484375 -0.765625 C 0.484375 -0.691406 0.492188 -0.625 0.515625 -0.5625 C 0.535156 -0.507812 0.566406 -0.460938 0.609375 -0.421875 C 0.648438 -0.378906 0.695312 -0.34375 0.75 -0.3125 C 0.8125 -0.289062 0.875 -0.28125 0.9375 -0.28125 C 1.007812 -0.28125 1.082031 -0.289062 1.15625 -0.3125 C 1.226562 -0.34375 1.289062 -0.382812 1.34375 -0.4375 L 1.34375 -0.0625 C 1.28125 -0.03125 1.210938 -0.00390625 1.140625 0.015625 C 1.078125 0.0351562 1 0.046875 0.90625 0.046875 Z M 0.90625 0.046875 "/></g></g></g></g><g clip-path="url(#f777f20aeb)"><g fill="#ddeef0" fill-opacity="1"><g transform="translate(57.407144, 3.059918)"><g><path d="M 0.90625 0.046875 C 0.789062 0.046875 0.679688 0.03125 0.578125 0 C 0.484375 -0.0390625 0.398438 -0.0976562 0.328125 -0.171875 C 0.253906 -0.242188 0.195312 -0.332031 0.15625 -0.4375 C 0.113281 -0.539062 0.09375 -0.648438 0.09375 -0.765625 C 0.09375 -0.890625 0.113281 -1 0.15625 -1.09375 C 0.195312 -1.195312 0.253906 -1.285156 0.328125 -1.359375 C 0.398438 -1.429688 0.484375 -1.488281 0.578125 -1.53125 C 0.679688 -1.570312 0.789062 -1.59375 0.90625 -1.59375 C 0.96875 -1.59375 1.019531 -1.585938 1.0625 -1.578125 C 1.113281 -1.566406 1.160156 -1.550781 1.203125 -1.53125 C 1.242188 -1.519531 1.285156 -1.5 1.328125 -1.46875 L 1.359375 -1.109375 C 1.304688 -1.148438 1.242188 -1.179688 1.171875 -1.203125 C 1.097656 -1.234375 1.019531 -1.25 0.9375 -1.25 C 0.875 -1.25 0.8125 -1.238281 0.75 -1.21875 C 0.695312 -1.195312 0.648438 -1.160156 0.609375 -1.109375 C 0.566406 -1.066406 0.535156 -1.015625 0.515625 -0.953125 C 0.492188 -0.898438 0.484375 -0.835938 0.484375 -0.765625 C 0.484375 -0.691406 0.492188 -0.625 0.515625 -0.5625 C 0.535156 -0.507812 0.566406 -0.460938 0.609375 -0.421875 C 0.648438 -0.378906 0.695312 -0.34375 0.75 -0.3125 C 0.8125 -0.289062 0.875 -0.28125 0.9375 -0.28125 C 1.007812 -0.28125 1.082031 -0.289062 1.15625 -0.3125 C 1.226562 -0.34375 1.289062 -0.382812 1.34375 -0.4375 L 1.34375 -0.0625 C 1.28125 -0.03125 1.210938 -0.00390625 1.140625 0.015625 C 1.078125 0.0351562 1 0.046875 0.90625 0.046875 Z M 0.90625 0.046875 "/></g></g></g></g><g clip-path="url(#922a55260a)"><g fill="#ddeef0" fill-opacity="1"><g transform="translate(58.833326, 3.059918)"><g><path d="M 1.578125 -0.875 C 1.578125 -0.863281 1.578125 -0.847656 1.578125 -0.828125 C 1.578125 -0.804688 1.578125 -0.78125 1.578125 -0.75 C 1.578125 -0.726562 1.570312 -0.707031 1.5625 -0.6875 C 1.5625 -0.675781 1.5625 -0.664062 1.5625 -0.65625 L 0.484375 -0.65625 C 0.484375 -0.582031 0.503906 -0.515625 0.546875 -0.453125 C 0.585938 -0.398438 0.640625 -0.359375 0.703125 -0.328125 C 0.773438 -0.296875 0.859375 -0.28125 0.953125 -0.28125 C 1.023438 -0.28125 1.09375 -0.285156 1.15625 -0.296875 C 1.226562 -0.304688 1.289062 -0.320312 1.34375 -0.34375 C 1.394531 -0.375 1.453125 -0.40625 1.515625 -0.4375 L 1.484375 -0.09375 C 1.441406 -0.0703125 1.390625 -0.046875 1.328125 -0.015625 C 1.273438 0.00390625 1.210938 0.0195312 1.140625 0.03125 C 1.066406 0.0507812 0.988281 0.0625 0.90625 0.0625 C 0.78125 0.0625 0.664062 0.0390625 0.5625 0 C 0.46875 -0.0390625 0.382812 -0.0976562 0.3125 -0.171875 C 0.238281 -0.253906 0.179688 -0.34375 0.140625 -0.4375 C 0.109375 -0.539062 0.09375 -0.65625 0.09375 -0.78125 C 0.09375 -0.894531 0.109375 -1 0.140625 -1.09375 C 0.179688 -1.195312 0.234375 -1.285156 0.296875 -1.359375 C 0.367188 -1.429688 0.453125 -1.488281 0.546875 -1.53125 C 0.648438 -1.570312 0.753906 -1.59375 0.859375 -1.59375 C 0.984375 -1.59375 1.085938 -1.570312 1.171875 -1.53125 C 1.265625 -1.488281 1.34375 -1.429688 1.40625 -1.359375 C 1.46875 -1.296875 1.507812 -1.222656 1.53125 -1.140625 C 1.5625 -1.054688 1.578125 -0.96875 1.578125 -0.875 Z M 0.484375 -0.890625 L 1.25 -0.890625 C 1.25 -0.972656 1.234375 -1.039062 1.203125 -1.09375 C 1.171875 -1.15625 1.128906 -1.203125 1.078125 -1.234375 C 1.023438 -1.265625 0.960938 -1.28125 0.890625 -1.28125 C 0.804688 -1.28125 0.734375 -1.265625 0.671875 -1.234375 C 0.617188 -1.203125 0.578125 -1.15625 0.546875 -1.09375 C 0.515625 -1.039062 0.492188 -0.972656 0.484375 -0.890625 Z M 0.484375 -0.890625 "/></g></g></g></g><g clip-path="url(#2a9abf2b3b)"><g fill="#ddeef0" fill-opacity="1"><g transform="translate(60.449697, 3.059918)"><g><path d="M 0.625 0.046875 C 0.5625 0.046875 0.5 0.0390625 0.4375 0.03125 C 0.375 0.0195312 0.3125 0.0078125 0.25 0 C 0.195312 -0.0195312 0.15625 -0.0390625 0.125 -0.0625 L 0.109375 -0.4375 C 0.148438 -0.40625 0.195312 -0.375 0.25 -0.34375 C 0.3125 -0.320312 0.375 -0.304688 0.4375 -0.296875 C 0.5 -0.285156 0.554688 -0.28125 0.609375 -0.28125 C 0.742188 -0.28125 0.8125 -0.332031 0.8125 -0.4375 C 0.820312 -0.46875 0.816406 -0.492188 0.796875 -0.515625 C 0.773438 -0.535156 0.742188 -0.554688 0.703125 -0.578125 C 0.660156 -0.597656 0.601562 -0.617188 0.53125 -0.640625 C 0.445312 -0.679688 0.375 -0.722656 0.3125 -0.765625 C 0.25 -0.816406 0.203125 -0.867188 0.171875 -0.921875 C 0.140625 -0.984375 0.125 -1.054688 0.125 -1.140625 C 0.125 -1.234375 0.144531 -1.3125 0.1875 -1.375 C 0.226562 -1.445312 0.285156 -1.5 0.359375 -1.53125 C 0.441406 -1.570312 0.535156 -1.59375 0.640625 -1.59375 C 0.703125 -1.59375 0.773438 -1.582031 0.859375 -1.5625 C 0.941406 -1.550781 1.019531 -1.53125 1.09375 -1.5 L 1.109375 -1.140625 C 1.066406 -1.160156 1.019531 -1.175781 0.96875 -1.1875 C 0.914062 -1.207031 0.863281 -1.222656 0.8125 -1.234375 C 0.757812 -1.253906 0.71875 -1.265625 0.6875 -1.265625 C 0.632812 -1.265625 0.59375 -1.25 0.5625 -1.21875 C 0.53125 -1.195312 0.515625 -1.164062 0.515625 -1.125 C 0.515625 -1.09375 0.519531 -1.066406 0.53125 -1.046875 C 0.539062 -1.023438 0.5625 -1.003906 0.59375 -0.984375 C 0.625 -0.960938 0.664062 -0.941406 0.71875 -0.921875 C 0.8125 -0.890625 0.890625 -0.851562 0.953125 -0.8125 C 1.015625 -0.78125 1.066406 -0.742188 1.109375 -0.703125 C 1.148438 -0.671875 1.179688 -0.632812 1.203125 -0.59375 C 1.222656 -0.550781 1.234375 -0.5 1.234375 -0.4375 C 1.234375 -0.320312 1.207031 -0.226562 1.15625 -0.15625 C 1.101562 -0.09375 1.03125 -0.0390625 0.9375 0 C 0.851562 0.03125 0.75 0.046875 0.625 0.046875 Z M 0.625 0.046875 "/></g></g></g></g><g clip-path="url(#3fefba4713)"><g fill="#ddeef0" fill-opacity="1"><g transform="translate(61.716705, 3.059918)"><g><path d="M 0.625 0.046875 C 0.5625 0.046875 0.5 0.0390625 0.4375 0.03125 C 0.375 0.0195312 0.3125 0.0078125 0.25 0 C 0.195312 -0.0195312 0.15625 -0.0390625 0.125 -0.0625 L 0.109375 -0.4375 C 0.148438 -0.40625 0.195312 -0.375 0.25 -0.34375 C 0.3125 -0.320312 0.375 -0.304688 0.4375 -0.296875 C 0.5 -0.285156 0.554688 -0.28125 0.609375 -0.28125 C 0.742188 -0.28125 0.8125 -0.332031 0.8125 -0.4375 C 0.820312 -0.46875 0.816406 -0.492188 0.796875 -0.515625 C 0.773438 -0.535156 0.742188 -0.554688 0.703125 -0.578125 C 0.660156 -0.597656 0.601562 -0.617188 0.53125 -0.640625 C 0.445312 -0.679688 0.375 -0.722656 0.3125 -0.765625 C 0.25 -0.816406 0.203125 -0.867188 0.171875 -0.921875 C 0.140625 -0.984375 0.125 -1.054688 0.125 -1.140625 C 0.125 -1.234375 0.144531 -1.3125 0.1875 -1.375 C 0.226562 -1.445312 0.285156 -1.5 0.359375 -1.53125 C 0.441406 -1.570312 0.535156 -1.59375 0.640625 -1.59375 C 0.703125 -1.59375 0.773438 -1.582031 0.859375 -1.5625 C 0.941406 -1.550781 1.019531 -1.53125 1.09375 -1.5 L 1.109375 -1.140625 C 1.066406 -1.160156 1.019531 -1.175781 0.96875 -1.1875 C 0.914062 -1.207031 0.863281 -1.222656 0.8125 -1.234375 C 0.757812 -1.253906 0.71875 -1.265625 0.6875 -1.265625 C 0.632812 -1.265625 0.59375 -1.25 0.5625 -1.21875 C 0.53125 -1.195312 0.515625 -1.164062 0.515625 -1.125 C 0.515625 -1.09375 0.519531 -1.066406 0.53125 -1.046875 C 0.539062 -1.023438 0.5625 -1.003906 0.59375 -0.984375 C 0.625 -0.960938 0.664062 -0.941406 0.71875 -0.921875 C 0.8125 -0.890625 0.890625 -0.851562 0.953125 -0.8125 C 1.015625 -0.78125 1.066406 -0.742188 1.109375 -0.703125 C 1.148438 -0.671875 1.179688 -0.632812 1.203125 -0.59375 C 1.222656 -0.550781 1.234375 -0.5 1.234375 -0.4375 C 1.234375 -0.320312 1.207031 -0.226562 1.15625 -0.15625 C 1.101562 -0.09375 1.03125 -0.0390625 0.9375 0 C 0.851562 0.03125 0.75 0.046875 0.625 0.046875 Z M 0.625 0.046875 "/></g></g></g></g><g clip-path="url(#6a9e5d6911)"><g fill="#ddeef0" fill-opacity="1"><g transform="translate(62.983708, 3.059918)"><g><path d="M 0.921875 0.046875 C 0.804688 0.046875 0.695312 0.03125 0.59375 0 C 0.488281 -0.0390625 0.398438 -0.0976562 0.328125 -0.171875 C 0.253906 -0.242188 0.195312 -0.332031 0.15625 -0.4375 C 0.113281 -0.539062 0.09375 -0.648438 0.09375 -0.765625 C 0.09375 -0.890625 0.113281 -1 0.15625 -1.09375 C 0.195312 -1.195312 0.253906 -1.285156 0.328125 -1.359375 C 0.398438 -1.429688 0.488281 -1.488281 0.59375 -1.53125 C 0.695312 -1.570312 0.804688 -1.59375 0.921875 -1.59375 C 1.046875 -1.59375 1.160156 -1.570312 1.265625 -1.53125 C 1.367188 -1.488281 1.457031 -1.429688 1.53125 -1.359375 C 1.601562 -1.285156 1.660156 -1.195312 1.703125 -1.09375 C 1.742188 -1 1.765625 -0.890625 1.765625 -0.765625 C 1.765625 -0.648438 1.742188 -0.539062 1.703125 -0.4375 C 1.660156 -0.332031 1.601562 -0.242188 1.53125 -0.171875 C 1.457031 -0.0976562 1.367188 -0.0390625 1.265625 0 C 1.160156 0.03125 1.046875 0.046875 0.921875 0.046875 Z M 0.9375 -0.296875 C 1 -0.296875 1.054688 -0.304688 1.109375 -0.328125 C 1.160156 -0.347656 1.207031 -0.378906 1.25 -0.421875 C 1.289062 -0.460938 1.320312 -0.515625 1.34375 -0.578125 C 1.363281 -0.640625 1.375 -0.703125 1.375 -0.765625 C 1.375 -0.835938 1.363281 -0.898438 1.34375 -0.953125 C 1.320312 -1.015625 1.289062 -1.066406 1.25 -1.109375 C 1.207031 -1.148438 1.160156 -1.179688 1.109375 -1.203125 C 1.054688 -1.234375 1 -1.25 0.9375 -1.25 C 0.863281 -1.25 0.800781 -1.234375 0.75 -1.203125 C 0.695312 -1.179688 0.648438 -1.148438 0.609375 -1.109375 C 0.566406 -1.066406 0.535156 -1.015625 0.515625 -0.953125 C 0.492188 -0.898438 0.484375 -0.835938 0.484375 -0.765625 C 0.484375 -0.703125 0.492188 -0.640625 0.515625 -0.578125 C 0.535156 -0.515625 0.566406 -0.460938 0.609375 -0.421875 C 0.648438 -0.378906 0.695312 -0.347656 0.75 -0.328125 C 0.800781 -0.304688 0.863281 -0.296875 0.9375 -0.296875 Z M 0.9375 -0.296875 "/></g></g></g></g><g clip-path="url(#c7be07de2a)"><g fill="#ddeef0" fill-opacity="1"><g transform="translate(64.801072, 3.059918)"><g><path d="M 0.390625 -1.71875 C 0.335938 -1.71875 0.289062 -1.726562 0.25 -1.75 C 0.21875 -1.769531 0.1875 -1.796875 0.15625 -1.828125 C 0.132812 -1.867188 0.125 -1.910156 0.125 -1.953125 C 0.125 -1.992188 0.132812 -2.03125 0.15625 -2.0625 C 0.1875 -2.101562 0.21875 -2.132812 0.25 -2.15625 C 0.289062 -2.175781 0.335938 -2.1875 0.390625 -2.1875 C 0.429688 -2.1875 0.472656 -2.175781 0.515625 -2.15625 C 0.554688 -2.132812 0.585938 -2.101562 0.609375 -2.0625 C 0.628906 -2.03125 0.640625 -1.992188 0.640625 -1.953125 C 0.640625 -1.910156 0.628906 -1.867188 0.609375 -1.828125 C 0.585938 -1.796875 0.554688 -1.769531 0.515625 -1.75 C 0.472656 -1.726562 0.429688 -1.71875 0.390625 -1.71875 Z M 0.171875 0 L 0.171875 -1.546875 L 0.59375 -1.546875 L 0.59375 0 Z M 0.171875 0 "/></g></g></g></g><g clip-path="url(#24ddce5e1e)"><g fill="#ddeef0" fill-opacity="1"><g transform="translate(65.52986, 3.059918)"><g><path d="M 1.15625 -1.5625 L 1.1875 -1.1875 C 1.132812 -1.195312 1.085938 -1.207031 1.046875 -1.21875 C 1.003906 -1.226562 0.960938 -1.234375 0.921875 -1.234375 C 0.859375 -1.234375 0.796875 -1.210938 0.734375 -1.171875 C 0.679688 -1.140625 0.632812 -1.09375 0.59375 -1.03125 L 0.59375 0 L 0.171875 0 L 0.171875 -1.546875 L 0.53125 -1.546875 L 0.578125 -1.359375 C 0.640625 -1.441406 0.703125 -1.5 0.765625 -1.53125 C 0.828125 -1.570312 0.894531 -1.59375 0.96875 -1.59375 C 1 -1.59375 1.03125 -1.585938 1.0625 -1.578125 C 1.101562 -1.578125 1.132812 -1.570312 1.15625 -1.5625 Z M 1.15625 -1.5625 "/></g></g></g></g><g clip-path="url(#f8d4c94d00)"><g fill="#ddeef0" fill-opacity="1"><g transform="translate(66.718627, 3.059918)"><g><path d="M 1.578125 -0.875 C 1.578125 -0.863281 1.578125 -0.847656 1.578125 -0.828125 C 1.578125 -0.804688 1.578125 -0.78125 1.578125 -0.75 C 1.578125 -0.726562 1.570312 -0.707031 1.5625 -0.6875 C 1.5625 -0.675781 1.5625 -0.664062 1.5625 -0.65625 L 0.484375 -0.65625 C 0.484375 -0.582031 0.503906 -0.515625 0.546875 -0.453125 C 0.585938 -0.398438 0.640625 -0.359375 0.703125 -0.328125 C 0.773438 -0.296875 0.859375 -0.28125 0.953125 -0.28125 C 1.023438 -0.28125 1.09375 -0.285156 1.15625 -0.296875 C 1.226562 -0.304688 1.289062 -0.320312 1.34375 -0.34375 C 1.394531 -0.375 1.453125 -0.40625 1.515625 -0.4375 L 1.484375 -0.09375 C 1.441406 -0.0703125 1.390625 -0.046875 1.328125 -0.015625 C 1.273438 0.00390625 1.210938 0.0195312 1.140625 0.03125 C 1.066406 0.0507812 0.988281 0.0625 0.90625 0.0625 C 0.78125 0.0625 0.664062 0.0390625 0.5625 0 C 0.46875 -0.0390625 0.382812 -0.0976562 0.3125 -0.171875 C 0.238281 -0.253906 0.179688 -0.34375 0.140625 -0.4375 C 0.109375 -0.539062 0.09375 -0.65625 0.09375 -0.78125 C 0.09375 -0.894531 0.109375 -1 0.140625 -1.09375 C 0.179688 -1.195312 0.234375 -1.285156 0.296875 -1.359375 C 0.367188 -1.429688 0.453125 -1.488281 0.546875 -1.53125 C 0.648438 -1.570312 0.753906 -1.59375 0.859375 -1.59375 C 0.984375 -1.59375 1.085938 -1.570312 1.171875 -1.53125 C 1.265625 -1.488281 1.34375 -1.429688 1.40625 -1.359375 C 1.46875 -1.296875 1.507812 -1.222656 1.53125 -1.140625 C 1.5625 -1.054688 1.578125 -0.96875 1.578125 -0.875 Z M 0.484375 -0.890625 L 1.25 -0.890625 C 1.25 -0.972656 1.234375 -1.039062 1.203125 -1.09375 C 1.171875 -1.15625 1.128906 -1.203125 1.078125 -1.234375 C 1.023438 -1.265625 0.960938 -1.28125 0.890625 -1.28125 C 0.804688 -1.28125 0.734375 -1.265625 0.671875 -1.234375 C 0.617188 -1.203125 0.578125 -1.15625 0.546875 -1.09375 C 0.515625 -1.039062 0.492188 -0.972656 0.484375 -0.890625 Z M 0.484375 -0.890625 "/></g></g></g></g><g clip-path="url(#c097c67194)"><g fill="#ddeef0" fill-opacity="1"><g transform="translate(68.335003, 3.059918)"><g><path d="M 0.625 0.046875 C 0.5625 0.046875 0.5 0.0390625 0.4375 0.03125 C 0.375 0.0195312 0.3125 0.0078125 0.25 0 C 0.195312 -0.0195312 0.15625 -0.0390625 0.125 -0.0625 L 0.109375 -0.4375 C 0.148438 -0.40625 0.195312 -0.375 0.25 -0.34375 C 0.3125 -0.320312 0.375 -0.304688 0.4375 -0.296875 C 0.5 -0.285156 0.554688 -0.28125 0.609375 -0.28125 C 0.742188 -0.28125 0.8125 -0.332031 0.8125 -0.4375 C 0.820312 -0.46875 0.816406 -0.492188 0.796875 -0.515625 C 0.773438 -0.535156 0.742188 -0.554688 0.703125 -0.578125 C 0.660156 -0.597656 0.601562 -0.617188 0.53125 -0.640625 C 0.445312 -0.679688 0.375 -0.722656 0.3125 -0.765625 C 0.25 -0.816406 0.203125 -0.867188 0.171875 -0.921875 C 0.140625 -0.984375 0.125 -1.054688 0.125 -1.140625 C 0.125 -1.234375 0.144531 -1.3125 0.1875 -1.375 C 0.226562 -1.445312 0.285156 -1.5 0.359375 -1.53125 C 0.441406 -1.570312 0.535156 -1.59375 0.640625 -1.59375 C 0.703125 -1.59375 0.773438 -1.582031 0.859375 -1.5625 C 0.941406 -1.550781 1.019531 -1.53125 1.09375 -1.5 L 1.109375 -1.140625 C 1.066406 -1.160156 1.019531 -1.175781 0.96875 -1.1875 C 0.914062 -1.207031 0.863281 -1.222656 0.8125 -1.234375 C 0.757812 -1.253906 0.71875 -1.265625 0.6875 -1.265625 C 0.632812 -1.265625 0.59375 -1.25 0.5625 -1.21875 C 0.53125 -1.195312 0.515625 -1.164062 0.515625 -1.125 C 0.515625 -1.09375 0.519531 -1.066406 0.53125 -1.046875 C 0.539062 -1.023438 0.5625 -1.003906 0.59375 -0.984375 C 0.625 -0.960938 0.664062 -0.941406 0.71875 -0.921875 C 0.8125 -0.890625 0.890625 -0.851562 0.953125 -0.8125 C 1.015625 -0.78125 1.066406 -0.742188 1.109375 -0.703125 C 1.148438 -0.671875 1.179688 -0.632812 1.203125 -0.59375 C 1.222656 -0.550781 1.234375 -0.5 1.234375 -0.4375 C 1.234375 -0.320312 1.207031 -0.226562 1.15625 -0.15625 C 1.101562 -0.09375 1.03125 -0.0390625 0.9375 0 C 0.851562 0.03125 0.75 0.046875 0.625 0.046875 Z M 0.625 0.046875 "/></g></g></g></g><g clip-path="url(#81ec7535b0)"><g fill="#ddeef0" fill-opacity="1"><g transform="translate(69.602307, 3.059918)"><g/></g></g></g><g clip-path="url(#7df7c7246b)"><g fill="#ddeef0" fill-opacity="1"><g transform="translate(70.328397, 3.059918)"><g/></g></g></g></g></g></svg>