<svg xmlns="http://www.w3.org/2000/svg" xmlns:xlink="http://www.w3.org/1999/xlink" width="500" zoomAndPan="magnify" viewBox="0 0 375 374.999991" height="500" preserveAspectRatio="xMidYMid meet" version="1.0"><defs><g/><clipPath id="dd9d89ebac"><path d="M 12 8 L 42 8 L 42 38 L 12 38 Z M 12 8 " clip-rule="nonzero"/></clipPath><clipPath id="e691837088"><path d="M 0.9375 13.683594 L 65.5625 0.398438 L 77.214844 57.089844 L 12.589844 70.371094 Z M 0.9375 13.683594 " clip-rule="nonzero"/></clipPath><clipPath id="54fb05f803"><path d="M 0.9375 13.683594 L 65.5625 0.398438 L 77.214844 57.089844 L 12.589844 70.371094 Z M 0.9375 13.683594 " clip-rule="nonzero"/></clipPath><clipPath id="52b64662ca"><path d="M 34 6 L 53 6 L 53 25 L 34 25 Z M 34 6 " clip-rule="nonzero"/></clipPath><clipPath id="d611947c93"><path d="M 0.9375 13.683594 L 65.5625 0.398438 L 77.214844 57.089844 L 12.589844 70.371094 Z M 0.9375 13.683594 " clip-rule="nonzero"/></clipPath><clipPath id="8c1f53afff"><path d="M 0.9375 13.683594 L 65.5625 0.398438 L 77.214844 57.089844 L 12.589844 70.371094 Z M 0.9375 13.683594 " clip-rule="nonzero"/></clipPath><clipPath id="a7499a0bb9"><path d="M 21 32 L 42 32 L 42 54 L 21 54 Z M 21 32 " clip-rule="nonzero"/></clipPath><clipPath id="50c9841148"><path d="M 0.9375 13.683594 L 65.5625 0.398438 L 77.214844 57.089844 L 12.589844 70.371094 Z M 0.9375 13.683594 " clip-rule="nonzero"/></clipPath><clipPath id="915cb170ed"><path d="M 0.9375 13.683594 L 65.5625 0.398438 L 77.214844 57.089844 L 12.589844 70.371094 Z M 0.9375 13.683594 " clip-rule="nonzero"/></clipPath><clipPath id="f58564c98e"><path d="M 38 29 L 59 29 L 59 50 L 38 50 Z M 38 29 " clip-rule="nonzero"/></clipPath><clipPath id="d7f96d51e2"><path d="M 0.9375 13.683594 L 65.5625 0.398438 L 77.214844 57.089844 L 12.589844 70.371094 Z M 0.9375 13.683594 " clip-rule="nonzero"/></clipPath><clipPath id="d36e6de88a"><path d="M 0.9375 13.683594 L 65.5625 0.398438 L 77.214844 57.089844 L 12.589844 70.371094 Z M 0.9375 13.683594 " clip-rule="nonzero"/></clipPath><clipPath id="edab7a3f9d"><path d="M 6 11 L 70 11 L 70 49 L 6 49 Z M 6 11 " clip-rule="nonzero"/></clipPath><clipPath id="2dbf1c9ba8"><path d="M 0.9375 13.683594 L 65.5625 0.398438 L 77.214844 57.089844 L 12.589844 70.371094 Z M 0.9375 13.683594 " clip-rule="nonzero"/></clipPath><clipPath id="e5831588c7"><path d="M 0.9375 13.683594 L 65.5625 0.398438 L 77.214844 57.089844 L 12.589844 70.371094 Z M 0.9375 13.683594 " clip-rule="nonzero"/></clipPath><clipPath id="02ef389ab3"><path d="M 31 15 L 52 15 L 52 37 L 31 37 Z M 31 15 " clip-rule="nonzero"/></clipPath><clipPath id="96b8d0ee20"><path d="M 0.9375 13.683594 L 65.5625 0.398438 L 77.214844 57.089844 L 12.589844 70.371094 Z M 0.9375 13.683594 " clip-rule="nonzero"/></clipPath><clipPath id="0d0ae0ddff"><path d="M 0.9375 13.683594 L 65.5625 0.398438 L 77.214844 57.089844 L 12.589844 70.371094 Z M 0.9375 13.683594 " clip-rule="nonzero"/></clipPath><clipPath id="64a9d0e946"><path d="M 15 28 L 37 28 L 37 49 L 15 49 Z M 15 28 " clip-rule="nonzero"/></clipPath><clipPath id="01097cb65c"><path d="M 0.9375 13.683594 L 65.5625 0.398438 L 77.214844 57.089844 L 12.589844 70.371094 Z M 0.9375 13.683594 " clip-rule="nonzero"/></clipPath><clipPath id="d6a8f0616d"><path d="M 0.9375 13.683594 L 65.5625 0.398438 L 77.214844 57.089844 L 12.589844 70.371094 Z M 0.9375 13.683594 " clip-rule="nonzero"/></clipPath><clipPath id="14329fe1ad"><path d="M 24 22 L 62 22 L 62 44 L 24 44 Z M 24 22 " clip-rule="nonzero"/></clipPath><clipPath id="6f3f3896fd"><path d="M 0.9375 13.683594 L 65.5625 0.398438 L 77.214844 57.089844 L 12.589844 70.371094 Z M 0.9375 13.683594 " clip-rule="nonzero"/></clipPath><clipPath id="a2886ad8b0"><path d="M 0.9375 13.683594 L 65.5625 0.398438 L 77.214844 57.089844 L 12.589844 70.371094 Z M 0.9375 13.683594 " clip-rule="nonzero"/></clipPath><clipPath id="8ba57801ea"><path d="M 24 29 L 54 29 L 54 66 L 24 66 Z M 24 29 " clip-rule="nonzero"/></clipPath><clipPath id="8c7ad49cff"><path d="M 0.9375 13.683594 L 65.5625 0.398438 L 77.214844 57.089844 L 12.589844 70.371094 Z M 0.9375 13.683594 " clip-rule="nonzero"/></clipPath><clipPath id="dda846d636"><path d="M 0.9375 13.683594 L 65.5625 0.398438 L 77.214844 57.089844 L 12.589844 70.371094 Z M 0.9375 13.683594 " clip-rule="nonzero"/></clipPath><clipPath id="7b52d7c845"><path d="M 62.296875 106.527344 L 182.753906 106.527344 L 182.753906 241.574219 L 62.296875 241.574219 Z M 62.296875 106.527344 " clip-rule="nonzero"/></clipPath><clipPath id="ad0a59b568"><path d="M 182.753906 241.574219 L 182.753906 136.929688 L 122.527344 106.816406 L 62.296875 136.929688 L 62.296875 241.574219 Z M 182.753906 241.574219 " clip-rule="nonzero"/></clipPath><clipPath id="71e4a3a758"><path d="M 0.296875 1 L 120.753906 1 L 120.753906 135.574219 L 0.296875 135.574219 Z M 0.296875 1 " clip-rule="nonzero"/></clipPath><clipPath id="a8f7c3e127"><path d="M 120.753906 135.574219 L 120.753906 30.929688 L 60.527344 0.816406 L 0.296875 30.929688 L 0.296875 135.574219 Z M 120.753906 135.574219 " clip-rule="nonzero"/></clipPath><clipPath id="95cfee3fd9"><rect x="0" width="121" y="0" height="136"/></clipPath><clipPath id="db29895486"><path d="M 29.914062 73.019531 L 62.300781 73.019531 L 62.300781 241.5625 L 29.914062 241.5625 Z M 29.914062 73.019531 " clip-rule="nonzero"/></clipPath><clipPath id="8864583314"><path d="M 0.914062 0.0195312 L 33.300781 0.0195312 L 33.300781 168.5625 L 0.914062 168.5625 Z M 0.914062 0.0195312 " clip-rule="nonzero"/></clipPath><clipPath id="39130e4774"><rect x="0" width="34" y="0" height="169"/></clipPath><clipPath id="543feeb5a4"><path d="M 29.921875 62.386719 L 62.304688 62.386719 L 62.304688 70.675781 L 29.921875 70.675781 Z M 29.921875 62.386719 " clip-rule="nonzero"/></clipPath><clipPath id="339c32c977"><path d="M 0.921875 0.386719 L 33.304688 0.386719 L 33.304688 8.675781 L 0.921875 8.675781 Z M 0.921875 0.386719 " clip-rule="nonzero"/></clipPath><clipPath id="0fc9d83c70"><rect x="0" width="34" y="0" height="9"/></clipPath><clipPath id="426a70c208"><path d="M 122.539062 147.175781 L 143.589844 147.175781 L 143.589844 157.183594 L 122.539062 157.183594 Z M 122.539062 147.175781 " clip-rule="nonzero"/></clipPath><clipPath id="0ea399a2ab"><path d="M 0.539062 0.175781 L 21.589844 0.175781 L 21.589844 10.183594 L 0.539062 10.183594 Z M 0.539062 0.175781 " clip-rule="nonzero"/></clipPath><clipPath id="3a997ca0e0"><rect x="0" width="22" y="0" height="11"/></clipPath><clipPath id="045c5e162d"><path d="M 122.539062 164.171875 L 143.589844 164.171875 L 143.589844 174.183594 L 122.539062 174.183594 Z M 122.539062 164.171875 " clip-rule="nonzero"/></clipPath><clipPath id="8b0ec54656"><path d="M 0.539062 0.171875 L 21.589844 0.171875 L 21.589844 10.183594 L 0.539062 10.183594 Z M 0.539062 0.171875 " clip-rule="nonzero"/></clipPath><clipPath id="96541a84b7"><rect x="0" width="22" y="0" height="11"/></clipPath><clipPath id="4659ebd476"><path d="M 150.59375 164.171875 L 171.644531 164.171875 L 171.644531 174.183594 L 150.59375 174.183594 Z M 150.59375 164.171875 " clip-rule="nonzero"/></clipPath><clipPath id="bbca4e29fb"><path d="M 0.59375 0.171875 L 21.644531 0.171875 L 21.644531 10.183594 L 0.59375 10.183594 Z M 0.59375 0.171875 " clip-rule="nonzero"/></clipPath><clipPath id="507f81517f"><rect x="0" width="22" y="0" height="11"/></clipPath><clipPath id="764a82cebc"><path d="M 150.59375 147.175781 L 171.644531 147.175781 L 171.644531 157.183594 L 150.59375 157.183594 Z M 150.59375 147.175781 " clip-rule="nonzero"/></clipPath><clipPath id="7b6a83f8d7"><path d="M 0.59375 0.175781 L 21.644531 0.175781 L 21.644531 10.183594 L 0.59375 10.183594 Z M 0.59375 0.175781 " clip-rule="nonzero"/></clipPath><clipPath id="a01ce29fa9"><rect x="0" width="22" y="0" height="11"/></clipPath><clipPath id="be6a27661e"><path d="M 150.59375 181.625 L 171.644531 181.625 L 171.644531 191.636719 L 150.59375 191.636719 Z M 150.59375 181.625 " clip-rule="nonzero"/></clipPath><clipPath id="e2e9a4954a"><path d="M 0.59375 0.625 L 21.644531 0.625 L 21.644531 10.636719 L 0.59375 10.636719 Z M 0.59375 0.625 " clip-rule="nonzero"/></clipPath><clipPath id="64aada8cc6"><rect x="0" width="22" y="0" height="11"/></clipPath><clipPath id="850fd794d3"><path d="M 94.539062 147.28125 L 115.589844 147.28125 L 115.589844 157.292969 L 94.539062 157.292969 Z M 94.539062 147.28125 " clip-rule="nonzero"/></clipPath><clipPath id="c1f1b01e61"><path d="M 0.539062 0.28125 L 21.589844 0.28125 L 21.589844 10.292969 L 0.539062 10.292969 Z M 0.539062 0.28125 " clip-rule="nonzero"/></clipPath><clipPath id="248bf2d834"><rect x="0" width="22" y="0" height="11"/></clipPath><clipPath id="eb21378657"><path d="M 29.914062 96.21875 L 62.300781 96.21875 L 62.300781 102.421875 L 29.914062 102.421875 Z M 29.914062 96.21875 " clip-rule="nonzero"/></clipPath><clipPath id="e200adb9ce"><path d="M 0.914062 0.21875 L 33.300781 0.21875 L 33.300781 6.421875 L 0.914062 6.421875 Z M 0.914062 0.21875 " clip-rule="nonzero"/></clipPath><clipPath id="41d2994d52"><rect x="0" width="34" y="0" height="7"/></clipPath><clipPath id="efe2fdd9f8"><path d="M 29.914062 91.835938 L 62.300781 91.835938 L 62.300781 98.039062 L 29.914062 98.039062 Z M 29.914062 91.835938 " clip-rule="nonzero"/></clipPath><clipPath id="74368d17b0"><path d="M 0.914062 0.835938 L 33.300781 0.835938 L 33.300781 7.039062 L 0.914062 7.039062 Z M 0.914062 0.835938 " clip-rule="nonzero"/></clipPath><clipPath id="8344783603"><rect x="0" width="34" y="0" height="8"/></clipPath><clipPath id="820f291170"><path d="M 29.914062 86.792969 L 62.300781 86.792969 L 62.300781 92.996094 L 29.914062 92.996094 Z M 29.914062 86.792969 " clip-rule="nonzero"/></clipPath><clipPath id="f8a3344eaf"><path d="M 0.914062 0.792969 L 33.300781 0.792969 L 33.300781 6.996094 L 0.914062 6.996094 Z M 0.914062 0.792969 " clip-rule="nonzero"/></clipPath><clipPath id="6d953a8ab9"><rect x="0" width="34" y="0" height="7"/></clipPath><clipPath id="88f180256a"><path d="M 18.824219 238.460938 L 194.933594 238.460938 L 194.933594 244.664062 L 18.824219 244.664062 Z M 18.824219 238.460938 " clip-rule="nonzero"/></clipPath><clipPath id="66d7f7fc00"><path d="M 0.824219 0.460938 L 176.933594 0.460938 L 176.933594 6.664062 L 0.824219 6.664062 Z M 0.824219 0.460938 " clip-rule="nonzero"/></clipPath><clipPath id="dc34be8f67"><rect x="0" width="177" y="0" height="7"/></clipPath><clipPath id="f2f4ca72b5"><rect x="0" width="292" y="0" height="245"/></clipPath></defs><rect x="-37.5" width="450" fill="#ffffff" y="-37.499999" height="449.999989" fill-opacity="1"/><rect x="-37.5" width="450" fill="#1339ad" y="-37.499999" height="449.999989" fill-opacity="1"/><g transform="matrix(1, 0, 0, 1, 41, 37)"><g clip-path="url(#f2f4ca72b5)"><g clip-path="url(#dd9d89ebac)"><g clip-path="url(#e691837088)"><g clip-path="url(#54fb05f803)"><path fill="#f3f6ff" d="M 24.382812 8.863281 C 23.445312 9.054688 22.539062 9.335938 21.660156 9.707031 C 20.777344 10.078125 19.945312 10.53125 19.152344 11.070312 C 18.363281 11.605469 17.632812 12.210938 16.960938 12.890625 C 16.289062 13.570312 15.691406 14.308594 15.164062 15.105469 C 14.640625 15.90625 14.199219 16.746094 13.835938 17.628906 C 13.476562 18.515625 13.207031 19.425781 13.027344 20.363281 C 12.847656 21.300781 12.761719 22.25 12.765625 23.203125 C 12.773438 24.160156 12.871094 25.105469 13.0625 26.039062 C 13.253906 26.976562 13.539062 27.882812 13.910156 28.761719 C 14.28125 29.644531 14.734375 30.476562 15.269531 31.269531 C 15.804688 32.058594 16.410156 32.789062 17.089844 33.460938 C 17.769531 34.132812 18.511719 34.730469 19.308594 35.257812 C 20.105469 35.78125 20.945312 36.226562 21.832031 36.585938 C 22.714844 36.945312 23.625 37.214844 24.566406 37.394531 C 25.503906 37.574219 26.449219 37.664062 27.402344 37.65625 C 28.359375 37.648438 29.304688 37.550781 30.238281 37.359375 C 31.175781 37.167969 32.082031 36.882812 32.964844 36.511719 C 33.84375 36.140625 34.679688 35.6875 35.46875 35.152344 C 36.261719 34.617188 36.992188 34.011719 37.660156 33.332031 C 38.332031 32.652344 38.929688 31.914062 39.457031 31.113281 C 39.980469 30.316406 40.425781 29.476562 40.785156 28.589844 C 41.144531 27.707031 41.414062 26.796875 41.59375 25.859375 C 41.773438 24.917969 41.863281 23.972656 41.855469 23.019531 C 41.851562 22.0625 41.75 21.117188 41.558594 20.183594 C 41.367188 19.246094 41.085938 18.339844 40.714844 17.460938 C 40.34375 16.578125 39.890625 15.742188 39.355469 14.953125 C 38.816406 14.164062 38.210938 13.429688 37.53125 12.761719 C 36.851562 12.089844 36.113281 11.492188 35.316406 10.964844 C 34.515625 10.441406 33.675781 9.996094 32.792969 9.636719 C 31.90625 9.277344 30.996094 9.007812 30.058594 8.828125 C 29.121094 8.648438 28.171875 8.558594 27.21875 8.566406 C 26.261719 8.570312 25.316406 8.671875 24.382812 8.863281 Z M 24.382812 8.863281 " fill-opacity="1" fill-rule="nonzero"/></g></g></g><g clip-path="url(#52b64662ca)"><g clip-path="url(#d611947c93)"><g clip-path="url(#8c1f53afff)"><path fill="#f3f6ff" d="M 41.773438 6.773438 C 41.210938 6.890625 40.667969 7.058594 40.136719 7.28125 C 39.609375 7.503906 39.109375 7.777344 38.636719 8.097656 C 38.160156 8.417969 37.722656 8.78125 37.320312 9.191406 C 36.917969 9.597656 36.558594 10.042969 36.242188 10.519531 C 35.925781 11 35.660156 11.503906 35.445312 12.035156 C 35.230469 12.566406 35.066406 13.113281 34.960938 13.675781 C 34.851562 14.238281 34.800781 14.804688 34.800781 15.378906 C 34.804688 15.949219 34.867188 16.519531 34.980469 17.078125 C 35.097656 17.640625 35.265625 18.1875 35.488281 18.714844 C 35.710938 19.242188 35.984375 19.742188 36.304688 20.21875 C 36.625 20.691406 36.992188 21.128906 37.398438 21.53125 C 37.804688 21.933594 38.25 22.292969 38.726562 22.609375 C 39.207031 22.925781 39.710938 23.191406 40.242188 23.40625 C 40.773438 23.621094 41.320312 23.785156 41.882812 23.894531 C 42.445312 24 43.011719 24.054688 43.585938 24.050781 C 44.160156 24.046875 44.726562 23.988281 45.285156 23.871094 C 45.847656 23.753906 46.394531 23.585938 46.921875 23.363281 C 47.449219 23.140625 47.949219 22.871094 48.425781 22.546875 C 48.898438 22.226562 49.335938 21.863281 49.738281 21.453125 C 50.144531 21.046875 50.5 20.601562 50.816406 20.125 C 51.132812 19.644531 51.398438 19.140625 51.613281 18.609375 C 51.828125 18.078125 51.992188 17.53125 52.101562 16.96875 C 52.207031 16.40625 52.261719 15.839844 52.257812 15.265625 C 52.253906 14.695312 52.195312 14.125 52.078125 13.566406 C 51.964844 13.003906 51.792969 12.460938 51.570312 11.929688 C 51.347656 11.402344 51.078125 10.902344 50.753906 10.425781 C 50.433594 9.953125 50.070312 9.515625 49.660156 9.113281 C 49.253906 8.710938 48.808594 8.351562 48.332031 8.035156 C 47.851562 7.71875 47.347656 7.453125 46.816406 7.238281 C 46.289062 7.023438 45.742188 6.859375 45.175781 6.753906 C 44.613281 6.644531 44.046875 6.589844 43.472656 6.59375 C 42.902344 6.597656 42.332031 6.660156 41.773438 6.773438 Z M 41.773438 6.773438 " fill-opacity="1" fill-rule="nonzero"/></g></g></g><g clip-path="url(#a7499a0bb9)"><g clip-path="url(#50c9841148)"><g clip-path="url(#915cb170ed)"><path fill="#ffffff" d="M 29.359375 33.085938 C 28.707031 33.21875 28.070312 33.414062 27.453125 33.675781 C 26.835938 33.933594 26.253906 34.253906 25.699219 34.628906 C 25.144531 35 24.632812 35.425781 24.164062 35.902344 C 23.691406 36.378906 23.273438 36.894531 22.90625 37.453125 C 22.539062 38.011719 22.226562 38.601562 21.976562 39.222656 C 21.722656 39.839844 21.535156 40.476562 21.40625 41.136719 C 21.28125 41.792969 21.21875 42.453125 21.226562 43.125 C 21.230469 43.792969 21.296875 44.453125 21.433594 45.109375 C 21.566406 45.765625 21.765625 46.398438 22.023438 47.015625 C 22.285156 47.632812 22.601562 48.21875 22.976562 48.769531 C 23.351562 49.324219 23.777344 49.835938 24.253906 50.304688 C 24.730469 50.773438 25.246094 51.195312 25.804688 51.5625 C 26.363281 51.929688 26.953125 52.238281 27.574219 52.492188 C 28.191406 52.742188 28.832031 52.933594 29.488281 53.058594 C 30.144531 53.183594 30.808594 53.246094 31.476562 53.242188 C 32.144531 53.234375 32.804688 53.167969 33.460938 53.03125 C 34.117188 52.898438 34.753906 52.699219 35.367188 52.441406 C 35.984375 52.179688 36.570312 51.863281 37.125 51.488281 C 37.675781 51.113281 38.1875 50.6875 38.660156 50.210938 C 39.128906 49.738281 39.546875 49.21875 39.917969 48.660156 C 40.285156 48.101562 40.59375 47.515625 40.847656 46.894531 C 41.097656 46.277344 41.289062 45.636719 41.414062 44.980469 C 41.539062 44.324219 41.601562 43.660156 41.597656 42.992188 C 41.59375 42.324219 41.523438 41.660156 41.390625 41.007812 C 41.253906 40.351562 41.058594 39.714844 40.796875 39.101562 C 40.539062 38.484375 40.21875 37.898438 39.84375 37.34375 C 39.46875 36.792969 39.042969 36.28125 38.570312 35.808594 C 38.09375 35.339844 37.574219 34.921875 37.015625 34.554688 C 36.457031 34.1875 35.867188 33.875 35.25 33.625 C 34.628906 33.371094 33.992188 33.183594 33.335938 33.058594 C 32.679688 32.929688 32.015625 32.871094 31.347656 32.875 C 30.679688 32.878906 30.015625 32.949219 29.359375 33.085938 Z M 29.359375 33.085938 " fill-opacity="1" fill-rule="nonzero"/></g></g></g><g clip-path="url(#f58564c98e)"><g clip-path="url(#d7f96d51e2)"><g clip-path="url(#d36e6de88a)"><path fill="#ffffff" d="M 46.457031 29.570312 C 45.804688 29.703125 45.167969 29.902344 44.550781 30.160156 C 43.933594 30.421875 43.351562 30.738281 42.796875 31.113281 C 42.242188 31.488281 41.730469 31.914062 41.261719 32.386719 C 40.789062 32.863281 40.371094 33.382812 40.003906 33.941406 C 39.636719 34.5 39.324219 35.085938 39.074219 35.707031 C 38.820312 36.324219 38.632812 36.964844 38.503906 37.621094 C 38.378906 38.277344 38.316406 38.941406 38.320312 39.609375 C 38.324219 40.277344 38.394531 40.9375 38.53125 41.59375 C 38.664062 42.25 38.863281 42.886719 39.121094 43.5 C 39.382812 44.117188 39.699219 44.703125 40.074219 45.257812 C 40.449219 45.808594 40.875 46.320312 41.351562 46.792969 C 41.828125 47.261719 42.34375 47.679688 42.902344 48.046875 C 43.460938 48.414062 44.050781 48.726562 44.671875 48.976562 C 45.289062 49.230469 45.929688 49.417969 46.585938 49.542969 C 47.242188 49.667969 47.902344 49.730469 48.574219 49.726562 C 49.242188 49.722656 49.902344 49.652344 50.558594 49.515625 C 51.214844 49.382812 51.847656 49.183594 52.464844 48.925781 C 53.082031 48.667969 53.667969 48.347656 54.222656 47.972656 C 54.773438 47.597656 55.285156 47.175781 55.757812 46.699219 C 56.226562 46.222656 56.644531 45.707031 57.015625 45.148438 C 57.382812 44.589844 57.691406 44 57.945312 43.378906 C 58.195312 42.761719 58.386719 42.121094 58.511719 41.464844 C 58.636719 40.808594 58.699219 40.148438 58.695312 39.476562 C 58.691406 38.808594 58.621094 38.148438 58.488281 37.492188 C 58.351562 36.835938 58.15625 36.203125 57.894531 35.585938 C 57.636719 34.96875 57.316406 34.382812 56.941406 33.832031 C 56.566406 33.277344 56.140625 32.765625 55.664062 32.296875 C 55.191406 31.824219 54.671875 31.40625 54.113281 31.039062 C 53.554688 30.671875 52.964844 30.363281 52.347656 30.109375 C 51.726562 29.859375 51.089844 29.667969 50.433594 29.542969 C 49.777344 29.417969 49.113281 29.355469 48.445312 29.359375 C 47.773438 29.367188 47.113281 29.433594 46.457031 29.570312 Z M 46.457031 29.570312 " fill-opacity="1" fill-rule="nonzero"/></g></g></g><g clip-path="url(#edab7a3f9d)"><g clip-path="url(#2dbf1c9ba8)"><g clip-path="url(#e5831588c7)"><path fill="#f3f6ff" d="M 16.332031 23.882812 C 15.539062 24.046875 14.765625 24.285156 14.019531 24.601562 C 13.269531 24.917969 12.558594 25.300781 11.886719 25.757812 C 11.214844 26.210938 10.59375 26.730469 10.023438 27.308594 C 9.453125 27.882812 8.945312 28.511719 8.5 29.191406 C 8.050781 29.867188 7.675781 30.582031 7.371094 31.335938 C 7.0625 32.085938 6.832031 32.863281 6.679688 33.660156 C 6.527344 34.457031 6.453125 35.261719 6.457031 36.070312 C 6.464844 36.882812 6.546875 37.6875 6.710938 38.484375 C 6.875 39.277344 7.113281 40.050781 7.429688 40.796875 C 7.746094 41.546875 8.128906 42.253906 8.585938 42.925781 C 9.042969 43.601562 9.558594 44.222656 10.136719 44.792969 C 10.714844 45.363281 11.339844 45.871094 12.019531 46.316406 C 12.695312 46.761719 13.410156 47.140625 14.164062 47.445312 C 14.914062 47.75 15.691406 47.980469 16.488281 48.132812 C 17.285156 48.289062 18.089844 48.363281 18.902344 48.355469 C 19.710938 48.351562 20.515625 48.265625 21.3125 48.105469 C 22.105469 47.941406 22.878906 47.699219 23.625 47.386719 C 24.375 47.070312 25.085938 46.683594 25.757812 46.230469 C 26.429688 45.773438 27.050781 45.257812 27.621094 44.679688 C 28.191406 44.101562 28.699219 43.472656 29.144531 42.796875 C 29.59375 42.117188 29.96875 41.402344 30.273438 40.652344 C 30.582031 39.898438 30.808594 39.125 30.964844 38.328125 C 31.117188 37.53125 31.191406 36.726562 31.183594 35.914062 C 31.179688 35.101562 31.097656 34.300781 30.933594 33.503906 C 30.769531 32.707031 30.53125 31.9375 30.214844 31.1875 C 29.898438 30.441406 29.511719 29.730469 29.058594 29.058594 C 28.601562 28.386719 28.085938 27.765625 27.507812 27.195312 C 26.929688 26.625 26.304688 26.117188 25.625 25.667969 C 24.945312 25.222656 24.230469 24.847656 23.480469 24.539062 C 22.726562 24.234375 21.953125 24.003906 21.15625 23.851562 C 20.359375 23.699219 19.554688 23.625 18.742188 23.628906 C 17.929688 23.636719 17.128906 23.71875 16.332031 23.882812 Z M 51.785156 12.140625 C 50.851562 12.332031 49.941406 12.613281 49.0625 12.984375 C 48.183594 13.355469 47.347656 13.808594 46.554688 14.347656 C 45.765625 14.882812 45.035156 15.488281 44.363281 16.167969 C 43.691406 16.847656 43.09375 17.585938 42.570312 18.382812 C 42.042969 19.183594 41.601562 20.023438 41.242188 20.90625 C 40.878906 21.792969 40.609375 22.703125 40.429688 23.640625 C 40.25 24.578125 40.164062 25.527344 40.167969 26.480469 C 40.175781 27.4375 40.273438 28.382812 40.464844 29.316406 C 40.660156 30.253906 40.941406 31.160156 41.3125 32.039062 C 41.683594 32.921875 42.136719 33.753906 42.671875 34.546875 C 43.207031 35.335938 43.816406 36.066406 44.496094 36.738281 C 45.175781 37.410156 45.914062 38.007812 46.710938 38.535156 C 47.507812 39.058594 48.347656 39.5 49.234375 39.863281 C 50.117188 40.222656 51.03125 40.492188 51.96875 40.671875 C 52.90625 40.851562 53.851562 40.941406 54.808594 40.933594 C 55.761719 40.925781 56.707031 40.828125 57.644531 40.636719 C 58.578125 40.445312 59.484375 40.160156 60.367188 39.789062 C 61.246094 39.417969 62.082031 38.964844 62.871094 38.429688 C 63.664062 37.894531 64.394531 37.289062 65.066406 36.609375 C 65.734375 35.929688 66.335938 35.1875 66.859375 34.390625 C 67.386719 33.59375 67.828125 32.753906 68.1875 31.867188 C 68.546875 30.984375 68.816406 30.074219 68.996094 29.136719 C 69.179688 28.195312 69.265625 27.25 69.257812 26.296875 C 69.253906 25.339844 69.152344 24.394531 68.960938 23.460938 C 68.769531 22.523438 68.488281 21.617188 68.117188 20.734375 C 67.746094 19.855469 67.292969 19.019531 66.757812 18.230469 C 66.222656 17.4375 65.613281 16.707031 64.933594 16.039062 C 64.253906 15.367188 63.515625 14.769531 62.71875 14.242188 C 61.921875 13.71875 61.078125 13.273438 60.195312 12.914062 C 59.308594 12.554688 58.398438 12.285156 57.460938 12.105469 C 56.523438 11.925781 55.578125 11.835938 54.621094 11.84375 C 53.667969 11.847656 52.722656 11.949219 51.785156 12.140625 Z M 51.785156 12.140625 " fill-opacity="1" fill-rule="nonzero"/></g></g></g><g clip-path="url(#02ef389ab3)"><g clip-path="url(#96b8d0ee20)"><g clip-path="url(#0d0ae0ddff)"><path fill="#ffffff" d="M 39.253906 16.199219 C 38.601562 16.335938 37.964844 16.53125 37.347656 16.792969 C 36.734375 17.050781 36.148438 17.371094 35.59375 17.746094 C 35.042969 18.121094 34.53125 18.546875 34.058594 19.019531 C 33.589844 19.496094 33.171875 20.011719 32.804688 20.570312 C 32.4375 21.128906 32.125 21.71875 31.875 22.339844 C 31.621094 22.957031 31.433594 23.59375 31.308594 24.25 C 31.179688 24.910156 31.121094 25.570312 31.125 26.238281 C 31.128906 26.90625 31.199219 27.570312 31.332031 28.222656 C 31.464844 28.878906 31.664062 29.515625 31.921875 30.128906 C 32.183594 30.746094 32.5 31.332031 32.875 31.886719 C 33.25 32.4375 33.675781 32.949219 34.152344 33.417969 C 34.628906 33.890625 35.144531 34.308594 35.703125 34.675781 C 36.261719 35.042969 36.851562 35.355469 37.46875 35.605469 C 38.089844 35.859375 38.726562 36.046875 39.382812 36.171875 C 40.039062 36.300781 40.703125 36.359375 41.371094 36.355469 C 42.039062 36.351562 42.699219 36.28125 43.355469 36.148438 C 44.011719 36.011719 44.644531 35.816406 45.261719 35.554688 C 45.878906 35.296875 46.460938 34.980469 47.015625 34.605469 C 47.570312 34.230469 48.082031 33.804688 48.550781 33.328125 C 49.019531 32.851562 49.4375 32.335938 49.808594 31.777344 C 50.175781 31.21875 50.484375 30.628906 50.738281 30.011719 C 50.988281 29.390625 51.179688 28.753906 51.304688 28.097656 C 51.429688 27.441406 51.492188 26.777344 51.488281 26.109375 C 51.484375 25.441406 51.414062 24.777344 51.277344 24.125 C 51.144531 23.46875 50.945312 22.835938 50.6875 22.21875 C 50.425781 21.601562 50.109375 21.015625 49.734375 20.464844 C 49.359375 19.910156 48.933594 19.398438 48.460938 18.929688 C 47.984375 18.460938 47.464844 18.039062 46.90625 17.671875 C 46.351562 17.304688 45.761719 16.996094 45.140625 16.742188 C 44.523438 16.492188 43.882812 16.300781 43.226562 16.175781 C 42.570312 16.050781 41.910156 15.988281 41.242188 15.992188 C 40.570312 15.996094 39.910156 16.066406 39.253906 16.199219 Z M 39.253906 16.199219 " fill-opacity="1" fill-rule="nonzero"/></g></g></g><g clip-path="url(#64a9d0e946)"><g clip-path="url(#01097cb65c)"><g clip-path="url(#d6a8f0616d)"><path fill="#ffffff" d="M 23.914062 28.265625 C 23.261719 28.398438 22.625 28.597656 22.007812 28.855469 C 21.394531 29.117188 20.808594 29.433594 20.253906 29.808594 C 19.703125 30.183594 19.191406 30.609375 18.71875 31.082031 C 18.25 31.558594 17.832031 32.078125 17.464844 32.632812 C 17.097656 33.191406 16.785156 33.78125 16.535156 34.402344 C 16.28125 35.019531 16.09375 35.65625 15.964844 36.316406 C 15.839844 36.972656 15.78125 37.632812 15.785156 38.300781 C 15.789062 38.972656 15.859375 39.632812 15.992188 40.289062 C 16.125 40.941406 16.324219 41.578125 16.582031 42.195312 C 16.84375 42.808594 17.160156 43.394531 17.535156 43.949219 C 17.910156 44.5 18.335938 45.011719 18.8125 45.484375 C 19.289062 45.953125 19.804688 46.371094 20.363281 46.738281 C 20.921875 47.105469 21.511719 47.417969 22.128906 47.667969 C 22.75 47.921875 23.386719 48.109375 24.042969 48.234375 C 24.699219 48.363281 25.363281 48.421875 26.03125 48.417969 C 26.699219 48.414062 27.359375 48.34375 28.015625 48.210938 C 28.671875 48.074219 29.304688 47.878906 29.921875 47.617188 C 30.539062 47.359375 31.121094 47.042969 31.675781 46.667969 C 32.230469 46.292969 32.742188 45.867188 33.210938 45.390625 C 33.679688 44.914062 34.097656 44.398438 34.46875 43.839844 C 34.835938 43.28125 35.144531 42.691406 35.398438 42.074219 C 35.648438 41.453125 35.839844 40.816406 35.964844 40.160156 C 36.089844 39.503906 36.152344 38.839844 36.148438 38.171875 C 36.144531 37.503906 36.074219 36.84375 35.9375 36.1875 C 35.804688 35.53125 35.605469 34.898438 35.347656 34.28125 C 35.085938 33.664062 34.769531 33.082031 34.394531 32.527344 C 34.019531 31.972656 33.59375 31.460938 33.117188 30.992188 C 32.644531 30.523438 32.125 30.101562 31.566406 29.734375 C 31.011719 29.367188 30.421875 29.058594 29.800781 28.804688 C 29.183594 28.554688 28.542969 28.363281 27.886719 28.238281 C 27.230469 28.113281 26.570312 28.050781 25.902344 28.054688 C 25.230469 28.058594 24.570312 28.128906 23.914062 28.265625 Z M 23.914062 28.265625 " fill-opacity="1" fill-rule="nonzero"/></g></g></g><g clip-path="url(#14329fe1ad)"><g clip-path="url(#6f3f3896fd)"><g clip-path="url(#a2886ad8b0)"><path fill="#ffffff" d="M 28.734375 22.816406 C 28.363281 22.894531 28 23.007812 27.648438 23.15625 C 27.292969 23.304688 26.960938 23.484375 26.644531 23.699219 C 26.328125 23.914062 26.035156 24.15625 25.765625 24.429688 C 25.5 24.703125 25.257812 24.996094 25.050781 25.316406 C 24.839844 25.636719 24.660156 25.972656 24.519531 26.324219 C 24.375 26.679688 24.265625 27.042969 24.195312 27.417969 C 24.121094 27.792969 24.085938 28.171875 24.089844 28.554688 C 24.089844 28.9375 24.132812 29.316406 24.207031 29.6875 C 24.285156 30.0625 24.398438 30.425781 24.546875 30.777344 C 24.695312 31.128906 24.875 31.464844 25.089844 31.78125 C 25.304688 32.097656 25.546875 32.390625 25.820312 32.65625 C 26.089844 32.925781 26.386719 33.164062 26.707031 33.375 C 27.023438 33.585938 27.359375 33.761719 27.714844 33.90625 C 28.070312 34.050781 28.433594 34.160156 28.808594 34.230469 C 29.183594 34.304688 29.5625 34.335938 29.945312 34.335938 C 30.328125 34.332031 30.703125 34.292969 31.078125 34.214844 C 31.453125 34.140625 31.816406 34.027344 32.167969 33.878906 C 32.519531 33.730469 32.855469 33.546875 33.171875 33.335938 C 33.488281 33.121094 33.777344 32.875 34.046875 32.605469 C 34.316406 32.332031 34.554688 32.039062 34.765625 31.71875 C 34.976562 31.398438 35.152344 31.0625 35.296875 30.710938 C 35.441406 30.355469 35.546875 29.992188 35.621094 29.617188 C 35.691406 29.242188 35.726562 28.863281 35.726562 28.480469 C 35.722656 28.097656 35.683594 27.71875 35.605469 27.347656 C 35.53125 26.972656 35.417969 26.609375 35.269531 26.257812 C 35.121094 25.90625 34.9375 25.570312 34.722656 25.253906 C 34.511719 24.9375 34.265625 24.644531 33.996094 24.378906 C 33.722656 24.109375 33.429688 23.871094 33.109375 23.660156 C 32.789062 23.449219 32.453125 23.273438 32.097656 23.128906 C 31.746094 22.984375 31.382812 22.875 31.007812 22.804688 C 30.632812 22.730469 30.253906 22.695312 29.871094 22.699219 C 29.488281 22.703125 29.109375 22.742188 28.734375 22.816406 Z M 49.5625 22.992188 C 48.90625 23.128906 48.269531 23.324219 47.65625 23.585938 C 47.039062 23.84375 46.453125 24.160156 45.902344 24.535156 C 45.347656 24.910156 44.835938 25.335938 44.367188 25.8125 C 43.894531 26.289062 43.476562 26.804688 43.109375 27.363281 C 42.742188 27.921875 42.433594 28.511719 42.179688 29.128906 C 41.929688 29.75 41.738281 30.386719 41.613281 31.042969 C 41.484375 31.699219 41.425781 32.363281 41.429688 33.03125 C 41.433594 33.699219 41.503906 34.359375 41.636719 35.015625 C 41.773438 35.671875 41.96875 36.304688 42.230469 36.921875 C 42.488281 37.539062 42.804688 38.121094 43.179688 38.675781 C 43.554688 39.230469 43.980469 39.742188 44.457031 40.210938 C 44.933594 40.679688 45.449219 41.101562 46.007812 41.46875 C 46.566406 41.835938 47.15625 42.144531 47.773438 42.398438 C 48.394531 42.648438 49.03125 42.839844 49.6875 42.964844 C 50.34375 43.089844 51.007812 43.152344 51.675781 43.148438 C 52.34375 43.144531 53.007812 43.074219 53.660156 42.9375 C 54.316406 42.804688 54.953125 42.605469 55.566406 42.347656 C 56.183594 42.085938 56.769531 41.769531 57.320312 41.394531 C 57.875 41.019531 58.386719 40.59375 58.855469 40.121094 C 59.328125 39.644531 59.746094 39.125 60.113281 38.570312 C 60.480469 38.011719 60.789062 37.421875 61.042969 36.800781 C 61.292969 36.183594 61.484375 35.546875 61.609375 34.886719 C 61.734375 34.230469 61.796875 33.570312 61.792969 32.902344 C 61.789062 32.230469 61.71875 31.570312 61.585938 30.914062 C 61.449219 30.261719 61.253906 29.625 60.992188 29.007812 C 60.734375 28.394531 60.414062 27.808594 60.039062 27.253906 C 59.664062 26.703125 59.242188 26.191406 58.765625 25.71875 C 58.289062 25.25 57.773438 24.832031 57.214844 24.464844 C 56.65625 24.097656 56.066406 23.785156 55.449219 23.535156 C 54.828125 23.28125 54.191406 23.09375 53.535156 22.96875 C 52.878906 22.839844 52.214844 22.78125 51.546875 22.785156 C 50.878906 22.789062 50.214844 22.859375 49.5625 22.992188 Z M 49.5625 22.992188 " fill-opacity="1" fill-rule="nonzero"/></g></g></g><g clip-path="url(#8ba57801ea)"><g clip-path="url(#8c7ad49cff)"><g clip-path="url(#dda846d636)"><path fill="#98b1fd" d="M 44.644531 64.097656 C 43.789062 64.273438 43.105469 63.820312 42.929688 62.964844 L 38.535156 41.59375 C 38.359375 40.738281 38.8125 40.050781 39.667969 39.875 C 40.523438 39.699219 41.207031 40.152344 41.382812 41.007812 L 45.777344 62.378906 C 45.953125 63.234375 45.5 63.921875 44.644531 64.097656 Z M 51.929688 38.839844 C 51.785156 38.871094 51.785156 38.871094 51.644531 38.898438 C 50.902344 38.902344 50.183594 38.308594 50.152344 37.421875 L 50.128906 32.972656 C 50.125 32.230469 50.71875 31.515625 51.601562 31.484375 C 52.34375 31.476562 53.0625 32.074219 53.09375 32.957031 L 53.117188 37.40625 C 52.980469 38.179688 52.496094 38.722656 51.929688 38.839844 Z M 51.769531 62.632812 C 51.628906 62.660156 51.628906 62.660156 51.484375 62.691406 C 50.742188 62.695312 50.027344 62.101562 49.992188 61.214844 L 50.039062 43.386719 C 50.035156 42.644531 50.632812 41.929688 51.515625 41.894531 C 52.257812 41.890625 52.972656 42.488281 53.007812 43.371094 L 52.960938 61.199219 C 52.964844 61.941406 52.480469 62.484375 51.769531 62.632812 Z M 27.992188 43.761719 C 27.28125 43.90625 26.621094 43.597656 26.332031 42.914062 L 24.597656 38.816406 C 24.308594 38.132812 24.5625 37.1875 25.386719 36.871094 C 26.070312 36.582031 27.011719 36.832031 27.332031 37.660156 L 29.066406 41.757812 C 29.355469 42.441406 29.101562 43.382812 28.277344 43.703125 C 28.277344 43.703125 28.132812 43.730469 27.992188 43.761719 Z M 37.523438 65.5625 C 36.808594 65.707031 36.152344 65.398438 35.863281 64.714844 L 28.785156 48.347656 C 28.496094 47.667969 28.75 46.722656 29.574219 46.40625 C 30.257812 46.117188 31.199219 46.367188 31.519531 47.195312 L 38.59375 63.558594 C 38.882812 64.242188 38.632812 65.183594 37.808594 65.503906 C 37.664062 65.53125 37.664062 65.53125 37.523438 65.5625 Z M 39.082031 37.027344 C 38.226562 37.203125 37.539062 36.75 37.363281 35.894531 L 36.484375 31.621094 C 36.308594 30.765625 36.761719 30.078125 37.617188 29.902344 C 38.472656 29.726562 39.160156 30.179688 39.335938 31.035156 L 40.214844 35.308594 C 40.390625 36.164062 39.9375 36.851562 39.082031 37.027344 Z M 39.082031 37.027344 " fill-opacity="1" fill-rule="nonzero"/></g></g></g><g clip-path="url(#7b52d7c845)"><g clip-path="url(#ad0a59b568)"><g transform="matrix(1, 0, 0, 1, 62, 106)"><g clip-path="url(#95cfee3fd9)"><g clip-path="url(#71e4a3a758)"><g clip-path="url(#a8f7c3e127)"><path fill="#f3f6ff" d="M 120.753906 135.574219 L 0.296875 135.574219 L 0.296875 1 L 120.753906 1 Z M 120.753906 135.574219 " fill-opacity="1" fill-rule="nonzero"/></g></g></g></g></g></g><g clip-path="url(#db29895486)"><g transform="matrix(1, 0, 0, 1, 29, 73)"><g clip-path="url(#39130e4774)"><g clip-path="url(#8864583314)"><path fill="#f3f6ff" d="M 0.914062 168.5625 L 0.914062 0.0546875 L 33.300781 0.0546875 L 33.300781 168.5625 Z M 0.914062 168.5625 " fill-opacity="1" fill-rule="nonzero"/></g></g></g></g><g clip-path="url(#543feeb5a4)"><g transform="matrix(1, 0, 0, 1, 29, 62)"><g clip-path="url(#0fc9d83c70)"><g clip-path="url(#339c32c977)"><path fill="#98b1fd" d="M 0.921875 8.675781 L 0.921875 0.386719 L 33.304688 0.386719 L 33.304688 8.675781 Z M 0.921875 8.675781 " fill-opacity="1" fill-rule="nonzero"/></g></g></g></g><g clip-path="url(#426a70c208)"><g transform="matrix(1, 0, 0, 1, 122, 147)"><g clip-path="url(#3a997ca0e0)"><g clip-path="url(#0ea399a2ab)"><path fill="#98b1fd" d="M 0.539062 10.183594 L 0.539062 0.175781 L 21.574219 0.175781 L 21.574219 10.183594 Z M 0.539062 10.183594 " fill-opacity="1" fill-rule="nonzero"/></g></g></g></g><g clip-path="url(#045c5e162d)"><g transform="matrix(1, 0, 0, 1, 122, 164)"><g clip-path="url(#96541a84b7)"><g clip-path="url(#8b0ec54656)"><path fill="#98b1fd" d="M 0.539062 10.183594 L 0.539062 0.171875 L 21.574219 0.171875 L 21.574219 10.183594 Z M 0.539062 10.183594 " fill-opacity="1" fill-rule="nonzero"/></g></g></g></g><g clip-path="url(#4659ebd476)"><g transform="matrix(1, 0, 0, 1, 150, 164)"><g clip-path="url(#507f81517f)"><g clip-path="url(#bbca4e29fb)"><path fill="#98b1fd" d="M 0.59375 10.183594 L 0.59375 0.171875 L 21.628906 0.171875 L 21.628906 10.183594 Z M 0.59375 10.183594 " fill-opacity="1" fill-rule="nonzero"/></g></g></g></g><g clip-path="url(#764a82cebc)"><g transform="matrix(1, 0, 0, 1, 150, 147)"><g clip-path="url(#a01ce29fa9)"><g clip-path="url(#7b6a83f8d7)"><path fill="#98b1fd" d="M 0.59375 10.183594 L 0.59375 0.175781 L 21.628906 0.175781 L 21.628906 10.183594 Z M 0.59375 10.183594 " fill-opacity="1" fill-rule="nonzero"/></g></g></g></g><g clip-path="url(#be6a27661e)"><g transform="matrix(1, 0, 0, 1, 150, 181)"><g clip-path="url(#64aada8cc6)"><g clip-path="url(#e2e9a4954a)"><path fill="#98b1fd" d="M 0.59375 10.636719 L 0.59375 0.625 L 21.628906 0.625 L 21.628906 10.636719 Z M 0.59375 10.636719 " fill-opacity="1" fill-rule="nonzero"/></g></g></g></g><g clip-path="url(#850fd794d3)"><g transform="matrix(1, 0, 0, 1, 94, 147)"><g clip-path="url(#248bf2d834)"><g clip-path="url(#c1f1b01e61)"><path fill="#98b1fd" d="M 0.539062 10.292969 L 0.539062 0.28125 L 21.574219 0.28125 L 21.574219 10.292969 Z M 0.539062 10.292969 " fill-opacity="1" fill-rule="nonzero"/></g></g></g></g><g clip-path="url(#eb21378657)"><g transform="matrix(1, 0, 0, 1, 29, 96)"><g clip-path="url(#41d2994d52)"><g clip-path="url(#e200adb9ce)"><path fill="#98b1fd" d="M 0.914062 6.421875 L 0.914062 0.21875 L 33.3125 0.21875 L 33.3125 6.421875 Z M 0.914062 6.421875 " fill-opacity="1" fill-rule="nonzero"/></g></g></g></g><g clip-path="url(#efe2fdd9f8)"><g transform="matrix(1, 0, 0, 1, 29, 91)"><g clip-path="url(#8344783603)"><g clip-path="url(#74368d17b0)"><path fill="#98b1fd" d="M 0.914062 7.039062 L 0.914062 0.835938 L 33.3125 0.835938 L 33.3125 7.039062 Z M 0.914062 7.039062 " fill-opacity="1" fill-rule="nonzero"/></g></g></g></g><g clip-path="url(#820f291170)"><g transform="matrix(1, 0, 0, 1, 29, 86)"><g clip-path="url(#6d953a8ab9)"><g clip-path="url(#f8a3344eaf)"><path fill="#98b1fd" d="M 0.914062 6.996094 L 0.914062 0.792969 L 33.3125 0.792969 L 33.3125 6.996094 Z M 0.914062 6.996094 " fill-opacity="1" fill-rule="nonzero"/></g></g></g></g><g clip-path="url(#88f180256a)"><g transform="matrix(1, 0, 0, 1, 18, 238)"><g clip-path="url(#dc34be8f67)"><g clip-path="url(#66d7f7fc00)"><path fill="#f3f6ff" d="M 0.824219 6.664062 L 0.824219 0.460938 L 176.929688 0.460938 L 176.929688 6.664062 Z M 0.824219 6.664062 " fill-opacity="1" fill-rule="nonzero"/></g></g></g></g><g fill="#ffffff" fill-opacity="1"><g transform="translate(66.970503, 95.273047)"><g><path d="M 12.296875 0 C 9.835938 0 7.515625 -0.816406 5.328125 -2.453125 C 3.140625 -4.097656 2.046875 -7.378906 2.046875 -12.296875 L 2.046875 -20.5 C 2.046875 -25.414062 3.140625 -28.691406 5.328125 -30.328125 C 7.515625 -31.972656 9.835938 -32.796875 12.296875 -32.796875 L 42.21875 -32.796875 L 42.21875 -24.59375 L 15.171875 -24.59375 C 14.078125 -24.59375 13.320312 -24.25 12.90625 -23.5625 C 12.5 -22.882812 12.296875 -22.132812 12.296875 -21.3125 L 12.296875 -10.25 C 12.296875 -9.425781 12.5 -8.738281 12.90625 -8.1875 C 13.320312 -7.644531 14.078125 -7.375 15.171875 -7.375 L 31.15625 -7.375 C 31.59375 -7.375 31.972656 -7.523438 32.296875 -7.828125 C 32.628906 -8.140625 32.796875 -8.535156 32.796875 -9.015625 L 32.796875 -10.65625 C 32.796875 -11.101562 32.628906 -11.488281 32.296875 -11.8125 C 31.972656 -12.132812 31.59375 -12.296875 31.15625 -12.296875 L 21.71875 -12.296875 L 21.71875 -18.140625 L 34.015625 -18.140625 C 36.753906 -18.140625 38.941406 -17.710938 40.578125 -16.859375 C 42.222656 -16.003906 43.046875 -14.210938 43.046875 -11.484375 L 43.046875 -8.203125 C 43.046875 -5.460938 42.222656 -3.410156 40.578125 -2.046875 C 38.941406 -0.679688 36.753906 0 34.015625 0 Z M 12.296875 0 "/></g></g></g><g fill="#ffffff" fill-opacity="1"><g transform="translate(112.059316, 95.273047)"><g><path d="M 28.28125 -6.5625 C 28.726562 -6.5625 29.113281 -6.710938 29.4375 -7.015625 C 29.757812 -7.328125 29.921875 -7.722656 29.921875 -8.203125 L 29.921875 -9.84375 C 29.921875 -10.28125 29.757812 -10.660156 29.4375 -10.984375 C 29.113281 -11.316406 28.726562 -11.484375 28.28125 -11.484375 L 13.9375 -11.484375 C 13.457031 -11.484375 13.0625 -11.316406 12.75 -10.984375 C 12.445312 -10.660156 12.296875 -10.28125 12.296875 -9.84375 L 12.296875 -8.203125 C 12.296875 -7.722656 12.445312 -7.328125 12.75 -7.015625 C 13.0625 -6.710938 13.457031 -6.5625 13.9375 -6.5625 Z M 10.25 0 C 4.78125 0 2.046875 -2.734375 2.046875 -8.203125 L 2.046875 -9.421875 C 2.046875 -14.890625 4.78125 -17.625 10.25 -17.625 L 28.28125 -17.625 C 28.695312 -17.625 29.070312 -17.796875 29.40625 -18.140625 C 29.75 -18.484375 29.921875 -18.859375 29.921875 -19.265625 L 29.921875 -19.671875 C 29.921875 -20.222656 29.785156 -20.632812 29.515625 -20.90625 C 29.242188 -21.175781 28.832031 -21.3125 28.28125 -21.3125 L 2.875 -21.3125 L 2.875 -28.6875 L 32.03125 -28.6875 C 37.457031 -28.6875 40.171875 -25.957031 40.171875 -20.5 L 40.171875 0 Z M 10.25 0 "/></g></g></g><g fill="#ffffff" fill-opacity="1"><g transform="translate(154.278841, 95.273047)"><g><path d="M 2.046875 -20.5 L 22.546875 -20.5 L 22.546875 -13.125 L 2.046875 -13.125 Z M 2.046875 -20.5 "/></g></g></g><g fill="#ffffff" fill-opacity="1"><g transform="translate(178.87274, 95.273047)"><g><path d="M 31.15625 -6.5625 C 31.59375 -6.5625 31.972656 -6.710938 32.296875 -7.015625 C 32.628906 -7.328125 32.796875 -7.722656 32.796875 -8.203125 L 32.796875 -20.5 C 32.796875 -20.9375 32.628906 -21.316406 32.296875 -21.640625 C 31.972656 -21.972656 31.59375 -22.140625 31.15625 -22.140625 L 13.9375 -22.140625 C 13.457031 -22.140625 13.0625 -21.972656 12.75 -21.640625 C 12.445312 -21.316406 12.296875 -20.9375 12.296875 -20.5 L 12.296875 -8.203125 C 12.296875 -7.722656 12.445312 -7.328125 12.75 -7.015625 C 13.0625 -6.710938 13.457031 -6.5625 13.9375 -6.5625 Z M 32.796875 -28.6875 C 36.890625 -28.6875 39.617188 -28.003906 40.984375 -26.640625 C 42.359375 -25.273438 43.046875 -23.226562 43.046875 -20.5 L 43.046875 -8.203125 C 43.046875 -2.734375 39.679688 0 32.953125 0 L 13.9375 0 C 13.488281 0 13.101562 0.148438 12.78125 0.453125 C 12.457031 0.765625 12.296875 1.160156 12.296875 1.640625 L 12.296875 4.09375 L 2.046875 4.09375 L 2.046875 -28.6875 Z M 32.796875 -28.6875 "/></g></g></g><g fill="#ffffff" fill-opacity="1"><g transform="translate(223.961553, 95.273047)"><g><path d="M 1.640625 0 L 1.640625 -28.6875 L 20.078125 -28.6875 L 20.078125 -22.140625 L 13.53125 -22.140625 C 13.050781 -22.140625 12.65625 -21.972656 12.34375 -21.640625 C 12.039062 -21.316406 11.890625 -20.9375 11.890625 -20.5 L 11.890625 0 Z M 1.640625 0 "/></g></g></g><g fill="#ffffff" fill-opacity="1"><g transform="translate(245.686163, 95.273047)"><g><path d="M 31.15625 -6.5625 C 31.59375 -6.5625 31.972656 -6.710938 32.296875 -7.015625 C 32.628906 -7.328125 32.796875 -7.722656 32.796875 -8.203125 L 32.796875 -20.5 C 32.796875 -20.9375 32.628906 -21.316406 32.296875 -21.640625 C 31.972656 -21.972656 31.59375 -22.140625 31.15625 -22.140625 L 13.9375 -22.140625 C 13.457031 -22.140625 13.0625 -21.972656 12.75 -21.640625 C 12.445312 -21.316406 12.296875 -20.9375 12.296875 -20.5 L 12.296875 -8.203125 C 12.296875 -7.722656 12.445312 -7.328125 12.75 -7.015625 C 13.0625 -6.710938 13.457031 -6.5625 13.9375 -6.5625 Z M 12.296875 0 C 9.566406 0 7.175781 -0.679688 5.125 -2.046875 C 3.070312 -3.410156 2.046875 -5.460938 2.046875 -8.203125 L 2.046875 -20.5 C 2.046875 -23.226562 3.070312 -25.273438 5.125 -26.640625 C 7.175781 -28.003906 9.566406 -28.6875 12.296875 -28.6875 L 32.796875 -28.6875 C 35.523438 -28.6875 37.914062 -28.003906 39.96875 -26.640625 C 42.019531 -25.273438 43.046875 -23.226562 43.046875 -20.5 L 43.046875 -8.203125 C 43.046875 -5.460938 42.019531 -3.410156 39.96875 -2.046875 C 37.914062 -0.679688 35.523438 0 32.796875 0 Z M 12.296875 0 "/></g></g></g><g fill="#f3f6ff" fill-opacity="1"><g transform="translate(198.151852, 116.663317)"><g><path d="M 5.125 -1.15625 C 5.539062 -1.15625 5.894531 -1.203125 6.1875 -1.296875 C 6.488281 -1.390625 6.734375 -1.519531 6.921875 -1.6875 C 7.117188 -1.863281 7.257812 -2.066406 7.34375 -2.296875 C 7.4375 -2.535156 7.484375 -2.796875 7.484375 -3.078125 C 7.484375 -3.628906 7.285156 -4.066406 6.890625 -4.390625 C 6.492188 -4.710938 5.90625 -4.875 5.125 -4.875 L 2.8125 -4.875 L 2.8125 -1.15625 Z M 2.8125 -9.5625 L 2.8125 -5.90625 L 4.71875 -5.90625 C 5.125 -5.90625 5.476562 -5.945312 5.78125 -6.03125 C 6.082031 -6.125 6.332031 -6.25 6.53125 -6.40625 C 6.726562 -6.570312 6.875 -6.765625 6.96875 -6.984375 C 7.0625 -7.210938 7.109375 -7.460938 7.109375 -7.734375 C 7.109375 -8.367188 6.914062 -8.832031 6.53125 -9.125 C 6.15625 -9.414062 5.570312 -9.5625 4.78125 -9.5625 Z M 4.78125 -10.703125 C 5.4375 -10.703125 6 -10.632812 6.46875 -10.5 C 6.945312 -10.375 7.335938 -10.191406 7.640625 -9.953125 C 7.953125 -9.710938 8.179688 -9.421875 8.328125 -9.078125 C 8.472656 -8.734375 8.546875 -8.34375 8.546875 -7.90625 C 8.546875 -7.644531 8.503906 -7.390625 8.421875 -7.140625 C 8.335938 -6.898438 8.210938 -6.675781 8.046875 -6.46875 C 7.890625 -6.257812 7.679688 -6.070312 7.421875 -5.90625 C 7.171875 -5.738281 6.878906 -5.601562 6.546875 -5.5 C 7.328125 -5.351562 7.914062 -5.070312 8.3125 -4.65625 C 8.707031 -4.25 8.90625 -3.710938 8.90625 -3.046875 C 8.90625 -2.597656 8.820312 -2.1875 8.65625 -1.8125 C 8.488281 -1.4375 8.242188 -1.113281 7.921875 -0.84375 C 7.609375 -0.570312 7.21875 -0.363281 6.75 -0.21875 C 6.28125 -0.0703125 5.742188 0 5.140625 0 L 1.359375 0 L 1.359375 -10.703125 Z M 4.78125 -10.703125 "/></g></g></g><g fill="#f3f6ff" fill-opacity="1"><g transform="translate(210.366213, 116.663317)"><g><path d="M 5.5 -1.15625 C 5.9375 -1.15625 6.328125 -1.226562 6.671875 -1.375 C 7.023438 -1.519531 7.320312 -1.726562 7.5625 -2 C 7.8125 -2.269531 8 -2.59375 8.125 -2.96875 C 8.25 -3.34375 8.3125 -3.753906 8.3125 -4.203125 L 8.3125 -10.703125 L 9.75 -10.703125 L 9.75 -4.203125 C 9.75 -3.578125 9.648438 -3 9.453125 -2.46875 C 9.265625 -1.945312 8.984375 -1.492188 8.609375 -1.109375 C 8.242188 -0.722656 7.796875 -0.421875 7.265625 -0.203125 C 6.742188 0.015625 6.15625 0.125 5.5 0.125 C 4.84375 0.125 4.25 0.015625 3.71875 -0.203125 C 3.1875 -0.421875 2.738281 -0.722656 2.375 -1.109375 C 2.007812 -1.492188 1.726562 -1.945312 1.53125 -2.46875 C 1.332031 -3 1.234375 -3.578125 1.234375 -4.203125 L 1.234375 -10.703125 L 2.671875 -10.703125 L 2.671875 -4.203125 C 2.671875 -3.753906 2.734375 -3.34375 2.859375 -2.96875 C 2.992188 -2.59375 3.179688 -2.269531 3.421875 -2 C 3.660156 -1.738281 3.953125 -1.53125 4.296875 -1.375 C 4.648438 -1.226562 5.050781 -1.15625 5.5 -1.15625 Z M 5.5 -1.15625 "/></g></g></g><g fill="#f3f6ff" fill-opacity="1"><g transform="translate(223.910113, 116.663317)"><g><path d="M 6.84375 -9.03125 C 6.800781 -8.957031 6.753906 -8.898438 6.703125 -8.859375 C 6.648438 -8.828125 6.582031 -8.8125 6.5 -8.8125 C 6.414062 -8.8125 6.316406 -8.851562 6.203125 -8.9375 C 6.085938 -9.019531 5.941406 -9.109375 5.765625 -9.203125 C 5.597656 -9.304688 5.394531 -9.398438 5.15625 -9.484375 C 4.914062 -9.578125 4.625 -9.625 4.28125 -9.625 C 3.957031 -9.625 3.671875 -9.578125 3.421875 -9.484375 C 3.179688 -9.398438 2.972656 -9.28125 2.796875 -9.125 C 2.628906 -8.976562 2.503906 -8.804688 2.421875 -8.609375 C 2.335938 -8.410156 2.296875 -8.191406 2.296875 -7.953125 C 2.296875 -7.648438 2.367188 -7.398438 2.515625 -7.203125 C 2.660156 -7.015625 2.851562 -6.847656 3.09375 -6.703125 C 3.34375 -6.566406 3.617188 -6.445312 3.921875 -6.34375 C 4.234375 -6.238281 4.546875 -6.128906 4.859375 -6.015625 C 5.179688 -5.910156 5.492188 -5.789062 5.796875 -5.65625 C 6.109375 -5.519531 6.382812 -5.347656 6.625 -5.140625 C 6.863281 -4.929688 7.054688 -4.671875 7.203125 -4.359375 C 7.359375 -4.054688 7.4375 -3.6875 7.4375 -3.25 C 7.4375 -2.78125 7.351562 -2.335938 7.1875 -1.921875 C 7.03125 -1.515625 6.796875 -1.160156 6.484375 -0.859375 C 6.179688 -0.554688 5.804688 -0.316406 5.359375 -0.140625 C 4.921875 0.0351562 4.414062 0.125 3.84375 0.125 C 3.144531 0.125 2.507812 0 1.9375 -0.25 C 1.375 -0.507812 0.894531 -0.851562 0.5 -1.28125 L 0.90625 -1.96875 C 0.945312 -2.019531 0.992188 -2.0625 1.046875 -2.09375 C 1.109375 -2.132812 1.175781 -2.15625 1.25 -2.15625 C 1.3125 -2.15625 1.382812 -2.128906 1.46875 -2.078125 C 1.550781 -2.023438 1.644531 -1.957031 1.75 -1.875 C 1.851562 -1.800781 1.972656 -1.71875 2.109375 -1.625 C 2.242188 -1.53125 2.394531 -1.441406 2.5625 -1.359375 C 2.738281 -1.273438 2.9375 -1.207031 3.15625 -1.15625 C 3.375 -1.101562 3.617188 -1.078125 3.890625 -1.078125 C 4.234375 -1.078125 4.539062 -1.125 4.8125 -1.21875 C 5.082031 -1.3125 5.304688 -1.441406 5.484375 -1.609375 C 5.671875 -1.785156 5.816406 -1.992188 5.921875 -2.234375 C 6.023438 -2.472656 6.078125 -2.742188 6.078125 -3.046875 C 6.078125 -3.367188 6 -3.628906 5.84375 -3.828125 C 5.695312 -4.035156 5.503906 -4.207031 5.265625 -4.34375 C 5.035156 -4.488281 4.765625 -4.609375 4.453125 -4.703125 C 4.140625 -4.804688 3.820312 -4.90625 3.5 -5 C 3.1875 -5.101562 2.875 -5.222656 2.5625 -5.359375 C 2.257812 -5.492188 1.988281 -5.664062 1.75 -5.875 C 1.507812 -6.09375 1.316406 -6.363281 1.171875 -6.6875 C 1.023438 -7.007812 0.953125 -7.40625 0.953125 -7.875 C 0.953125 -8.257812 1.023438 -8.625 1.171875 -8.96875 C 1.316406 -9.320312 1.53125 -9.632812 1.8125 -9.90625 C 2.09375 -10.1875 2.4375 -10.410156 2.84375 -10.578125 C 3.257812 -10.742188 3.734375 -10.828125 4.265625 -10.828125 C 4.859375 -10.828125 5.398438 -10.726562 5.890625 -10.53125 C 6.378906 -10.34375 6.8125 -10.070312 7.1875 -9.71875 Z M 6.84375 -9.03125 "/></g></g></g><g fill="#f3f6ff" fill-opacity="1"><g transform="translate(234.570843, 116.663317)"><g><path d="M 2.8125 0 L 1.359375 0 L 1.359375 -10.703125 L 2.8125 -10.703125 Z M 2.8125 0 "/></g></g></g><g fill="#f3f6ff" fill-opacity="1"><g transform="translate(241.31018, 116.663317)"><g><path d="M 10.03125 -10.703125 L 10.03125 0 L 9.3125 0 C 9.195312 0 9.097656 -0.0195312 9.015625 -0.0625 C 8.941406 -0.101562 8.867188 -0.171875 8.796875 -0.265625 L 2.609375 -8.328125 C 2.617188 -8.203125 2.625 -8.078125 2.625 -7.953125 C 2.632812 -7.835938 2.640625 -7.726562 2.640625 -7.625 L 2.640625 0 L 1.359375 0 L 1.359375 -10.703125 L 2.109375 -10.703125 C 2.171875 -10.703125 2.222656 -10.695312 2.265625 -10.6875 C 2.316406 -10.6875 2.359375 -10.675781 2.390625 -10.65625 C 2.429688 -10.632812 2.46875 -10.609375 2.5 -10.578125 C 2.53125 -10.546875 2.566406 -10.503906 2.609375 -10.453125 L 8.8125 -2.390625 C 8.800781 -2.523438 8.789062 -2.648438 8.78125 -2.765625 C 8.769531 -2.890625 8.765625 -3.007812 8.765625 -3.125 L 8.765625 -10.703125 Z M 10.03125 -10.703125 "/></g></g></g><g fill="#f3f6ff" fill-opacity="1"><g transform="translate(255.272367, 116.663317)"><g><path d="M 7.96875 -1.1875 L 7.96875 0 L 1.359375 0 L 1.359375 -10.703125 L 7.96875 -10.703125 L 7.96875 -9.515625 L 2.8125 -9.515625 L 2.8125 -5.96875 L 6.984375 -5.96875 L 6.984375 -4.828125 L 2.8125 -4.828125 L 2.8125 -1.1875 Z M 7.96875 -1.1875 "/></g></g></g><g fill="#f3f6ff" fill-opacity="1"><g transform="translate(266.455961, 116.663317)"><g><path d="M 6.84375 -9.03125 C 6.800781 -8.957031 6.753906 -8.898438 6.703125 -8.859375 C 6.648438 -8.828125 6.582031 -8.8125 6.5 -8.8125 C 6.414062 -8.8125 6.316406 -8.851562 6.203125 -8.9375 C 6.085938 -9.019531 5.941406 -9.109375 5.765625 -9.203125 C 5.597656 -9.304688 5.394531 -9.398438 5.15625 -9.484375 C 4.914062 -9.578125 4.625 -9.625 4.28125 -9.625 C 3.957031 -9.625 3.671875 -9.578125 3.421875 -9.484375 C 3.179688 -9.398438 2.972656 -9.28125 2.796875 -9.125 C 2.628906 -8.976562 2.503906 -8.804688 2.421875 -8.609375 C 2.335938 -8.410156 2.296875 -8.191406 2.296875 -7.953125 C 2.296875 -7.648438 2.367188 -7.398438 2.515625 -7.203125 C 2.660156 -7.015625 2.851562 -6.847656 3.09375 -6.703125 C 3.34375 -6.566406 3.617188 -6.445312 3.921875 -6.34375 C 4.234375 -6.238281 4.546875 -6.128906 4.859375 -6.015625 C 5.179688 -5.910156 5.492188 -5.789062 5.796875 -5.65625 C 6.109375 -5.519531 6.382812 -5.347656 6.625 -5.140625 C 6.863281 -4.929688 7.054688 -4.671875 7.203125 -4.359375 C 7.359375 -4.054688 7.4375 -3.6875 7.4375 -3.25 C 7.4375 -2.78125 7.351562 -2.335938 7.1875 -1.921875 C 7.03125 -1.515625 6.796875 -1.160156 6.484375 -0.859375 C 6.179688 -0.554688 5.804688 -0.316406 5.359375 -0.140625 C 4.921875 0.0351562 4.414062 0.125 3.84375 0.125 C 3.144531 0.125 2.507812 0 1.9375 -0.25 C 1.375 -0.507812 0.894531 -0.851562 0.5 -1.28125 L 0.90625 -1.96875 C 0.945312 -2.019531 0.992188 -2.0625 1.046875 -2.09375 C 1.109375 -2.132812 1.175781 -2.15625 1.25 -2.15625 C 1.3125 -2.15625 1.382812 -2.128906 1.46875 -2.078125 C 1.550781 -2.023438 1.644531 -1.957031 1.75 -1.875 C 1.851562 -1.800781 1.972656 -1.71875 2.109375 -1.625 C 2.242188 -1.53125 2.394531 -1.441406 2.5625 -1.359375 C 2.738281 -1.273438 2.9375 -1.207031 3.15625 -1.15625 C 3.375 -1.101562 3.617188 -1.078125 3.890625 -1.078125 C 4.234375 -1.078125 4.539062 -1.125 4.8125 -1.21875 C 5.082031 -1.3125 5.304688 -1.441406 5.484375 -1.609375 C 5.671875 -1.785156 5.816406 -1.992188 5.921875 -2.234375 C 6.023438 -2.472656 6.078125 -2.742188 6.078125 -3.046875 C 6.078125 -3.367188 6 -3.628906 5.84375 -3.828125 C 5.695312 -4.035156 5.503906 -4.207031 5.265625 -4.34375 C 5.035156 -4.488281 4.765625 -4.609375 4.453125 -4.703125 C 4.140625 -4.804688 3.820312 -4.90625 3.5 -5 C 3.1875 -5.101562 2.875 -5.222656 2.5625 -5.359375 C 2.257812 -5.492188 1.988281 -5.664062 1.75 -5.875 C 1.507812 -6.09375 1.316406 -6.363281 1.171875 -6.6875 C 1.023438 -7.007812 0.953125 -7.40625 0.953125 -7.875 C 0.953125 -8.257812 1.023438 -8.625 1.171875 -8.96875 C 1.316406 -9.320312 1.53125 -9.632812 1.8125 -9.90625 C 2.09375 -10.1875 2.4375 -10.410156 2.84375 -10.578125 C 3.257812 -10.742188 3.734375 -10.828125 4.265625 -10.828125 C 4.859375 -10.828125 5.398438 -10.726562 5.890625 -10.53125 C 6.378906 -10.34375 6.8125 -10.070312 7.1875 -9.71875 Z M 6.84375 -9.03125 "/></g></g></g><g fill="#f3f6ff" fill-opacity="1"><g transform="translate(277.11669, 116.663317)"><g><path d="M 6.84375 -9.03125 C 6.800781 -8.957031 6.753906 -8.898438 6.703125 -8.859375 C 6.648438 -8.828125 6.582031 -8.8125 6.5 -8.8125 C 6.414062 -8.8125 6.316406 -8.851562 6.203125 -8.9375 C 6.085938 -9.019531 5.941406 -9.109375 5.765625 -9.203125 C 5.597656 -9.304688 5.394531 -9.398438 5.15625 -9.484375 C 4.914062 -9.578125 4.625 -9.625 4.28125 -9.625 C 3.957031 -9.625 3.671875 -9.578125 3.421875 -9.484375 C 3.179688 -9.398438 2.972656 -9.28125 2.796875 -9.125 C 2.628906 -8.976562 2.503906 -8.804688 2.421875 -8.609375 C 2.335938 -8.410156 2.296875 -8.191406 2.296875 -7.953125 C 2.296875 -7.648438 2.367188 -7.398438 2.515625 -7.203125 C 2.660156 -7.015625 2.851562 -6.847656 3.09375 -6.703125 C 3.34375 -6.566406 3.617188 -6.445312 3.921875 -6.34375 C 4.234375 -6.238281 4.546875 -6.128906 4.859375 -6.015625 C 5.179688 -5.910156 5.492188 -5.789062 5.796875 -5.65625 C 6.109375 -5.519531 6.382812 -5.347656 6.625 -5.140625 C 6.863281 -4.929688 7.054688 -4.671875 7.203125 -4.359375 C 7.359375 -4.054688 7.4375 -3.6875 7.4375 -3.25 C 7.4375 -2.78125 7.351562 -2.335938 7.1875 -1.921875 C 7.03125 -1.515625 6.796875 -1.160156 6.484375 -0.859375 C 6.179688 -0.554688 5.804688 -0.316406 5.359375 -0.140625 C 4.921875 0.0351562 4.414062 0.125 3.84375 0.125 C 3.144531 0.125 2.507812 0 1.9375 -0.25 C 1.375 -0.507812 0.894531 -0.851562 0.5 -1.28125 L 0.90625 -1.96875 C 0.945312 -2.019531 0.992188 -2.0625 1.046875 -2.09375 C 1.109375 -2.132812 1.175781 -2.15625 1.25 -2.15625 C 1.3125 -2.15625 1.382812 -2.128906 1.46875 -2.078125 C 1.550781 -2.023438 1.644531 -1.957031 1.75 -1.875 C 1.851562 -1.800781 1.972656 -1.71875 2.109375 -1.625 C 2.242188 -1.53125 2.394531 -1.441406 2.5625 -1.359375 C 2.738281 -1.273438 2.9375 -1.207031 3.15625 -1.15625 C 3.375 -1.101562 3.617188 -1.078125 3.890625 -1.078125 C 4.234375 -1.078125 4.539062 -1.125 4.8125 -1.21875 C 5.082031 -1.3125 5.304688 -1.441406 5.484375 -1.609375 C 5.671875 -1.785156 5.816406 -1.992188 5.921875 -2.234375 C 6.023438 -2.472656 6.078125 -2.742188 6.078125 -3.046875 C 6.078125 -3.367188 6 -3.628906 5.84375 -3.828125 C 5.695312 -4.035156 5.503906 -4.207031 5.265625 -4.34375 C 5.035156 -4.488281 4.765625 -4.609375 4.453125 -4.703125 C 4.140625 -4.804688 3.820312 -4.90625 3.5 -5 C 3.1875 -5.101562 2.875 -5.222656 2.5625 -5.359375 C 2.257812 -5.492188 1.988281 -5.664062 1.75 -5.875 C 1.507812 -6.09375 1.316406 -6.363281 1.171875 -6.6875 C 1.023438 -7.007812 0.953125 -7.40625 0.953125 -7.875 C 0.953125 -8.257812 1.023438 -8.625 1.171875 -8.96875 C 1.316406 -9.320312 1.53125 -9.632812 1.8125 -9.90625 C 2.09375 -10.1875 2.4375 -10.410156 2.84375 -10.578125 C 3.257812 -10.742188 3.734375 -10.828125 4.265625 -10.828125 C 4.859375 -10.828125 5.398438 -10.726562 5.890625 -10.53125 C 6.378906 -10.34375 6.8125 -10.070312 7.1875 -9.71875 Z M 6.84375 -9.03125 "/></g></g></g></g></g></svg>