<svg xmlns="http://www.w3.org/2000/svg" xmlns:xlink="http://www.w3.org/1999/xlink" width="500" zoomAndPan="magnify" viewBox="0 0 375 374.999991" height="500" preserveAspectRatio="xMidYMid meet" version="1.0"><defs><g/><clipPath id="9f97642ce8"><path d="M 11 10 L 50 10 L 50 49 L 11 49 Z M 11 10 " clip-rule="nonzero"/></clipPath><clipPath id="7269adc810"><path d="M -4.15625 17.378906 L 80.011719 0.078125 L 95.1875 73.90625 L 11.019531 91.207031 Z M -4.15625 17.378906 " clip-rule="nonzero"/></clipPath><clipPath id="adb3373afc"><path d="M -4.15625 17.378906 L 80.011719 0.078125 L 95.1875 73.90625 L 11.019531 91.207031 Z M -4.15625 17.378906 " clip-rule="nonzero"/></clipPath><clipPath id="9a4d2c590b"><path d="M 39 8 L 63 8 L 63 31 L 39 31 Z M 39 8 " clip-rule="nonzero"/></clipPath><clipPath id="00938704b4"><path d="M -4.15625 17.378906 L 80.011719 0.078125 L 95.1875 73.90625 L 11.019531 91.207031 Z M -4.15625 17.378906 " clip-rule="nonzero"/></clipPath><clipPath id="63bf0be778"><path d="M -4.15625 17.378906 L 80.011719 0.078125 L 95.1875 73.90625 L 11.019531 91.207031 Z M -4.15625 17.378906 " clip-rule="nonzero"/></clipPath><clipPath id="c62ed10e89"><path d="M 22 42 L 49 42 L 49 69 L 22 69 Z M 22 42 " clip-rule="nonzero"/></clipPath><clipPath id="fd2d68b9bb"><path d="M -4.15625 17.378906 L 80.011719 0.078125 L 95.1875 73.90625 L 11.019531 91.207031 Z M -4.15625 17.378906 " clip-rule="nonzero"/></clipPath><clipPath id="9a66fef805"><path d="M -4.15625 17.378906 L 80.011719 0.078125 L 95.1875 73.90625 L 11.019531 91.207031 Z M -4.15625 17.378906 " clip-rule="nonzero"/></clipPath><clipPath id="a0b6f31f59"><path d="M 44 37 L 72 37 L 72 65 L 44 65 Z M 44 37 " clip-rule="nonzero"/></clipPath><clipPath id="932c9795ae"><path d="M -4.15625 17.378906 L 80.011719 0.078125 L 95.1875 73.90625 L 11.019531 91.207031 Z M -4.15625 17.378906 " clip-rule="nonzero"/></clipPath><clipPath id="c863c4b392"><path d="M -4.15625 17.378906 L 80.011719 0.078125 L 95.1875 73.90625 L 11.019531 91.207031 Z M -4.15625 17.378906 " clip-rule="nonzero"/></clipPath><clipPath id="1e55f02769"><path d="M 3 14 L 85 14 L 85 63 L 3 63 Z M 3 14 " clip-rule="nonzero"/></clipPath><clipPath id="8a424b1b1d"><path d="M -4.15625 17.378906 L 80.011719 0.078125 L 95.1875 73.90625 L 11.019531 91.207031 Z M -4.15625 17.378906 " clip-rule="nonzero"/></clipPath><clipPath id="714a49a3c6"><path d="M -4.15625 17.378906 L 80.011719 0.078125 L 95.1875 73.90625 L 11.019531 91.207031 Z M -4.15625 17.378906 " clip-rule="nonzero"/></clipPath><clipPath id="02a5c1a95d"><path d="M 35 20 L 62 20 L 62 47 L 35 47 Z M 35 20 " clip-rule="nonzero"/></clipPath><clipPath id="19f90bd68a"><path d="M -4.15625 17.378906 L 80.011719 0.078125 L 95.1875 73.90625 L 11.019531 91.207031 Z M -4.15625 17.378906 " clip-rule="nonzero"/></clipPath><clipPath id="482df246e6"><path d="M -4.15625 17.378906 L 80.011719 0.078125 L 95.1875 73.90625 L 11.019531 91.207031 Z M -4.15625 17.378906 " clip-rule="nonzero"/></clipPath><clipPath id="08fdc81278"><path d="M 15 36 L 42 36 L 42 63 L 15 63 Z M 15 36 " clip-rule="nonzero"/></clipPath><clipPath id="c858ac6e3c"><path d="M -4.15625 17.378906 L 80.011719 0.078125 L 95.1875 73.90625 L 11.019531 91.207031 Z M -4.15625 17.378906 " clip-rule="nonzero"/></clipPath><clipPath id="cac72cd667"><path d="M -4.15625 17.378906 L 80.011719 0.078125 L 95.1875 73.90625 L 11.019531 91.207031 Z M -4.15625 17.378906 " clip-rule="nonzero"/></clipPath><clipPath id="67f1eadf0d"><path d="M 25 29 L 76 29 L 76 56 L 25 56 Z M 25 29 " clip-rule="nonzero"/></clipPath><clipPath id="40af98a8fc"><path d="M -4.15625 17.378906 L 80.011719 0.078125 L 95.1875 73.90625 L 11.019531 91.207031 Z M -4.15625 17.378906 " clip-rule="nonzero"/></clipPath><clipPath id="85be64efde"><path d="M -4.15625 17.378906 L 80.011719 0.078125 L 95.1875 73.90625 L 11.019531 91.207031 Z M -4.15625 17.378906 " clip-rule="nonzero"/></clipPath><clipPath id="37b6130802"><path d="M 26 38 L 64 38 L 64 85 L 26 85 Z M 26 38 " clip-rule="nonzero"/></clipPath><clipPath id="ff15471c38"><path d="M -4.15625 17.378906 L 80.011719 0.078125 L 95.1875 73.90625 L 11.019531 91.207031 Z M -4.15625 17.378906 " clip-rule="nonzero"/></clipPath><clipPath id="1e690f1cbc"><path d="M -4.15625 17.378906 L 80.011719 0.078125 L 95.1875 73.90625 L 11.019531 91.207031 Z M -4.15625 17.378906 " clip-rule="nonzero"/></clipPath><clipPath id="5e45eea176"><path d="M 75.753906 138.296875 L 232.640625 138.296875 L 232.640625 314.175781 L 75.753906 314.175781 Z M 75.753906 138.296875 " clip-rule="nonzero"/></clipPath><clipPath id="73d50fe29b"><path d="M 232.640625 314.175781 L 232.640625 177.890625 L 154.199219 138.671875 L 75.753906 177.890625 L 75.753906 314.175781 Z M 232.640625 314.175781 " clip-rule="nonzero"/></clipPath><clipPath id="cff8490d4e"><path d="M 0.753906 0.601562 L 157.640625 0.601562 L 157.640625 176.175781 L 0.753906 176.175781 Z M 0.753906 0.601562 " clip-rule="nonzero"/></clipPath><clipPath id="49600c32b0"><path d="M 157.640625 176.175781 L 157.640625 39.890625 L 79.199219 0.671875 L 0.753906 39.890625 L 0.753906 176.175781 Z M 157.640625 176.175781 " clip-rule="nonzero"/></clipPath><clipPath id="08245e646d"><rect x="0" width="158" y="0" height="177"/></clipPath><clipPath id="311997dd9a"><path d="M 33.582031 94.65625 L 75.761719 94.65625 L 75.761719 314.160156 L 33.582031 314.160156 Z M 33.582031 94.65625 " clip-rule="nonzero"/></clipPath><clipPath id="84b7c73187"><path d="M 0.582031 0.65625 L 42.761719 0.65625 L 42.761719 220.160156 L 0.582031 220.160156 Z M 0.582031 0.65625 " clip-rule="nonzero"/></clipPath><clipPath id="a4da131b1a"><rect x="0" width="43" y="0" height="221"/></clipPath><clipPath id="4ec35ebd80"><path d="M 33.589844 80.808594 L 75.769531 80.808594 L 75.769531 91.605469 L 33.589844 91.605469 Z M 33.589844 80.808594 " clip-rule="nonzero"/></clipPath><clipPath id="f6e4c314a1"><path d="M 0.589844 0.808594 L 42.769531 0.808594 L 42.769531 11.605469 L 0.589844 11.605469 Z M 0.589844 0.808594 " clip-rule="nonzero"/></clipPath><clipPath id="1039e0eb56"><rect x="0" width="43" y="0" height="12"/></clipPath><clipPath id="09b7862480"><path d="M 154.214844 191.234375 L 181.628906 191.234375 L 181.628906 204.269531 L 154.214844 204.269531 Z M 154.214844 191.234375 " clip-rule="nonzero"/></clipPath><clipPath id="0c8d769b85"><path d="M 0.214844 0.234375 L 27.628906 0.234375 L 27.628906 13.269531 L 0.214844 13.269531 Z M 0.214844 0.234375 " clip-rule="nonzero"/></clipPath><clipPath id="c631c57281"><rect x="0" width="28" y="0" height="14"/></clipPath><clipPath id="2173678b27"><path d="M 154.214844 213.375 L 181.628906 213.375 L 181.628906 226.410156 L 154.214844 226.410156 Z M 154.214844 213.375 " clip-rule="nonzero"/></clipPath><clipPath id="e102d1125b"><path d="M 0.214844 0.375 L 27.628906 0.375 L 27.628906 13.410156 L 0.214844 13.410156 Z M 0.214844 0.375 " clip-rule="nonzero"/></clipPath><clipPath id="2e313dfdf5"><rect x="0" width="28" y="0" height="14"/></clipPath><clipPath id="4efbbeed5b"><path d="M 190.75 213.375 L 218.167969 213.375 L 218.167969 226.410156 L 190.75 226.410156 Z M 190.75 213.375 " clip-rule="nonzero"/></clipPath><clipPath id="b13fdd26f1"><path d="M 0.75 0.375 L 28.167969 0.375 L 28.167969 13.410156 L 0.75 13.410156 Z M 0.75 0.375 " clip-rule="nonzero"/></clipPath><clipPath id="1d405237d7"><rect x="0" width="29" y="0" height="14"/></clipPath><clipPath id="364e8d8283"><path d="M 190.75 191.234375 L 218.167969 191.234375 L 218.167969 204.269531 L 190.75 204.269531 Z M 190.75 191.234375 " clip-rule="nonzero"/></clipPath><clipPath id="bba0d9687a"><path d="M 0.75 0.234375 L 28.167969 0.234375 L 28.167969 13.269531 L 0.75 13.269531 Z M 0.75 0.234375 " clip-rule="nonzero"/></clipPath><clipPath id="721f67654b"><rect x="0" width="29" y="0" height="14"/></clipPath><clipPath id="c1e165904a"><path d="M 190.75 236.105469 L 218.167969 236.105469 L 218.167969 249.140625 L 190.75 249.140625 Z M 190.75 236.105469 " clip-rule="nonzero"/></clipPath><clipPath id="aedcf0c861"><path d="M 0.75 0.105469 L 28.167969 0.105469 L 28.167969 13.140625 L 0.75 13.140625 Z M 0.75 0.105469 " clip-rule="nonzero"/></clipPath><clipPath id="59757ccf73"><rect x="0" width="29" y="0" height="14"/></clipPath><clipPath id="7f6d14ca13"><path d="M 117.75 191.375 L 145.164062 191.375 L 145.164062 204.410156 L 117.75 204.410156 Z M 117.75 191.375 " clip-rule="nonzero"/></clipPath><clipPath id="9e5e3b6567"><path d="M 0.75 0.375 L 28.164062 0.375 L 28.164062 13.410156 L 0.75 13.410156 Z M 0.75 0.375 " clip-rule="nonzero"/></clipPath><clipPath id="9529e99786"><rect x="0" width="29" y="0" height="14"/></clipPath><clipPath id="fdf8e0e754"><path d="M 33.582031 124.871094 L 75.761719 124.871094 L 75.761719 132.949219 L 33.582031 132.949219 Z M 33.582031 124.871094 " clip-rule="nonzero"/></clipPath><clipPath id="edd3f62071"><path d="M 0.582031 0.871094 L 42.761719 0.871094 L 42.761719 8.949219 L 0.582031 8.949219 Z M 0.582031 0.871094 " clip-rule="nonzero"/></clipPath><clipPath id="09fc41c227"><rect x="0" width="43" y="0" height="9"/></clipPath><clipPath id="47bfceff42"><path d="M 33.582031 119.164062 L 75.761719 119.164062 L 75.761719 127.242188 L 33.582031 127.242188 Z M 33.582031 119.164062 " clip-rule="nonzero"/></clipPath><clipPath id="89a48d6133"><path d="M 0.582031 0.164062 L 42.761719 0.164062 L 42.761719 8.242188 L 0.582031 8.242188 Z M 0.582031 0.164062 " clip-rule="nonzero"/></clipPath><clipPath id="6013d2eb4f"><rect x="0" width="43" y="0" height="9"/></clipPath><clipPath id="01139cb8ee"><path d="M 33.582031 112.59375 L 75.761719 112.59375 L 75.761719 120.671875 L 33.582031 120.671875 Z M 33.582031 112.59375 " clip-rule="nonzero"/></clipPath><clipPath id="f6ffb72a11"><path d="M 0.582031 0.59375 L 42.761719 0.59375 L 42.761719 8.671875 L 0.582031 8.671875 Z M 0.582031 0.59375 " clip-rule="nonzero"/></clipPath><clipPath id="adb6e2109f"><rect x="0" width="43" y="0" height="9"/></clipPath><clipPath id="b43ec2bcf4"><path d="M 19.136719 310.121094 L 248.5 310.121094 L 248.5 318.199219 L 19.136719 318.199219 Z M 19.136719 310.121094 " clip-rule="nonzero"/></clipPath><clipPath id="ff147660de"><path d="M 0.136719 0.121094 L 229.5 0.121094 L 229.5 8.199219 L 0.136719 8.199219 Z M 0.136719 0.121094 " clip-rule="nonzero"/></clipPath><clipPath id="5dae8a4ea1"><rect x="0" width="230" y="0" height="9"/></clipPath><clipPath id="0a3bbe6fb7"><rect x="0" width="375" y="0" height="319"/></clipPath></defs><g transform="matrix(1, 0, 0, 1, 0, 15)"><g clip-path="url(#0a3bbe6fb7)"><g clip-path="url(#9f97642ce8)"><g clip-path="url(#7269adc810)"><g clip-path="url(#adb3373afc)"><path fill="#f3f6ff" d="M 26.378906 11.101562 C 25.769531 11.226562 25.171875 11.378906 24.578125 11.5625 C 23.984375 11.746094 23.402344 11.960938 22.832031 12.203125 C 22.257812 12.441406 21.703125 12.710938 21.15625 13.007812 C 20.609375 13.304688 20.082031 13.625 19.566406 13.972656 C 19.054688 14.320312 18.558594 14.691406 18.082031 15.089844 C 17.605469 15.488281 17.148438 15.90625 16.710938 16.347656 C 16.277344 16.789062 15.863281 17.25 15.472656 17.734375 C 15.082031 18.214844 14.714844 18.714844 14.375 19.234375 C 14.03125 19.75 13.71875 20.285156 13.429688 20.832031 C 13.140625 21.382812 12.878906 21.945312 12.644531 22.519531 C 12.410156 23.09375 12.207031 23.679688 12.03125 24.273438 C 11.851562 24.867188 11.707031 25.46875 11.589844 26.078125 C 11.472656 26.6875 11.386719 27.300781 11.328125 27.921875 C 11.273438 28.539062 11.246094 29.15625 11.25 29.777344 C 11.253906 30.398438 11.289062 31.015625 11.351562 31.632812 C 11.417969 32.25 11.511719 32.863281 11.636719 33.472656 C 11.761719 34.078125 11.914062 34.679688 12.101562 35.269531 C 12.285156 35.863281 12.496094 36.445312 12.738281 37.015625 C 12.976562 37.589844 13.246094 38.148438 13.542969 38.691406 C 13.839844 39.238281 14.160156 39.769531 14.507812 40.28125 C 14.855469 40.796875 15.230469 41.289062 15.625 41.765625 C 16.023438 42.246094 16.441406 42.699219 16.882812 43.136719 C 17.324219 43.574219 17.785156 43.984375 18.269531 44.375 C 18.75 44.765625 19.25 45.132812 19.769531 45.472656 C 20.285156 45.816406 20.820312 46.132812 21.367188 46.421875 C 21.917969 46.710938 22.480469 46.96875 23.054688 47.203125 C 23.628906 47.4375 24.214844 47.644531 24.808594 47.820312 C 25.402344 47.996094 26.007812 48.140625 26.613281 48.257812 C 27.222656 48.375 27.839844 48.464844 28.457031 48.519531 C 29.074219 48.578125 29.691406 48.605469 30.3125 48.601562 C 30.933594 48.597656 31.550781 48.5625 32.167969 48.496094 C 32.785156 48.433594 33.398438 48.335938 34.007812 48.210938 C 34.613281 48.085938 35.214844 47.933594 35.808594 47.75 C 36.398438 47.566406 36.980469 47.351562 37.554688 47.113281 C 38.125 46.871094 38.683594 46.601562 39.230469 46.304688 C 39.773438 46.011719 40.304688 45.6875 40.816406 45.339844 C 41.332031 44.992188 41.828125 44.621094 42.304688 44.222656 C 42.78125 43.828125 43.238281 43.40625 43.671875 42.964844 C 44.109375 42.523438 44.523438 42.0625 44.914062 41.582031 C 45.304688 41.097656 45.667969 40.597656 46.011719 40.082031 C 46.351562 39.5625 46.667969 39.027344 46.957031 38.480469 C 47.246094 37.929688 47.507812 37.367188 47.738281 36.792969 C 47.972656 36.21875 48.179688 35.636719 48.355469 35.039062 C 48.53125 34.445312 48.679688 33.84375 48.796875 33.234375 C 48.914062 32.625 49 32.011719 49.054688 31.394531 C 49.113281 30.773438 49.140625 30.15625 49.136719 29.535156 C 49.132812 28.914062 49.097656 28.296875 49.03125 27.679688 C 48.96875 27.0625 48.875 26.449219 48.75 25.84375 C 48.625 25.234375 48.46875 24.632812 48.285156 24.042969 C 48.101562 23.449219 47.886719 22.867188 47.648438 22.296875 C 47.40625 21.722656 47.136719 21.164062 46.84375 20.621094 C 46.546875 20.074219 46.222656 19.546875 45.875 19.03125 C 45.527344 18.519531 45.15625 18.023438 44.757812 17.546875 C 44.363281 17.070312 43.945312 16.613281 43.5 16.175781 C 43.058594 15.742188 42.597656 15.328125 42.117188 14.9375 C 41.632812 14.546875 41.132812 14.179688 40.617188 13.839844 C 40.097656 13.496094 39.566406 13.183594 39.015625 12.894531 C 38.464844 12.605469 37.90625 12.34375 37.328125 12.109375 C 36.753906 11.875 36.171875 11.671875 35.574219 11.492188 C 34.980469 11.316406 34.378906 11.171875 33.769531 11.054688 C 33.160156 10.9375 32.546875 10.847656 31.929688 10.792969 C 31.3125 10.734375 30.691406 10.710938 30.070312 10.714844 C 29.449219 10.71875 28.832031 10.75 28.214844 10.816406 C 27.597656 10.882812 26.984375 10.976562 26.378906 11.101562 Z M 26.378906 11.101562 " fill-opacity="1" fill-rule="nonzero"/></g></g></g><g clip-path="url(#9a4d2c590b)"><g clip-path="url(#00938704b4)"><g clip-path="url(#63bf0be778)"><path fill="#f3f6ff" d="M 49.027344 8.378906 C 48.296875 8.53125 47.585938 8.75 46.898438 9.039062 C 46.210938 9.328125 45.558594 9.683594 44.941406 10.101562 C 44.324219 10.519531 43.75 10.996094 43.226562 11.527344 C 42.703125 12.058594 42.234375 12.636719 41.824219 13.257812 C 41.414062 13.882812 41.066406 14.539062 40.785156 15.230469 C 40.503906 15.921875 40.292969 16.632812 40.152344 17.367188 C 40.011719 18.097656 39.945312 18.839844 39.949219 19.585938 C 39.953125 20.332031 40.03125 21.070312 40.179688 21.800781 C 40.332031 22.53125 40.550781 23.242188 40.84375 23.929688 C 41.132812 24.617188 41.484375 25.269531 41.90625 25.886719 C 42.324219 26.503906 42.796875 27.078125 43.328125 27.601562 C 43.859375 28.125 44.4375 28.59375 45.0625 29.003906 C 45.683594 29.414062 46.339844 29.761719 47.03125 30.042969 C 47.722656 30.324219 48.4375 30.535156 49.167969 30.675781 C 49.902344 30.816406 50.640625 30.882812 51.386719 30.878906 C 52.132812 30.875 52.871094 30.796875 53.605469 30.644531 C 54.335938 30.496094 55.042969 30.277344 55.730469 29.984375 C 56.417969 29.695312 57.070312 29.339844 57.691406 28.921875 C 58.308594 28.503906 58.878906 28.03125 59.402344 27.5 C 59.925781 26.96875 60.394531 26.390625 60.804688 25.765625 C 61.214844 25.144531 61.5625 24.488281 61.84375 23.796875 C 62.125 23.105469 62.335938 22.390625 62.476562 21.660156 C 62.617188 20.925781 62.6875 20.1875 62.679688 19.441406 C 62.675781 18.695312 62.597656 17.957031 62.449219 17.222656 C 62.296875 16.492188 62.078125 15.785156 61.789062 15.097656 C 61.5 14.410156 61.144531 13.753906 60.726562 13.136719 C 60.308594 12.519531 59.832031 11.949219 59.300781 11.425781 C 58.769531 10.898438 58.191406 10.433594 57.570312 10.023438 C 56.945312 9.613281 56.289062 9.265625 55.597656 8.984375 C 54.90625 8.703125 54.195312 8.492188 53.460938 8.351562 C 52.726562 8.210938 51.988281 8.140625 51.242188 8.148438 C 50.496094 8.152344 49.757812 8.230469 49.027344 8.378906 Z M 49.027344 8.378906 " fill-opacity="1" fill-rule="nonzero"/></g></g></g><g clip-path="url(#c62ed10e89)"><g clip-path="url(#fd2d68b9bb)"><g clip-path="url(#9a66fef805)"><path fill="#ffffff" d="M 32.863281 42.644531 C 32.007812 42.820312 31.179688 43.078125 30.378906 43.414062 C 29.574219 43.753906 28.8125 44.167969 28.09375 44.65625 C 27.371094 45.144531 26.703125 45.695312 26.09375 46.316406 C 25.480469 46.9375 24.933594 47.609375 24.457031 48.335938 C 23.976562 49.0625 23.570312 49.832031 23.242188 50.636719 C 22.914062 51.445312 22.667969 52.273438 22.503906 53.128906 C 22.339844 53.984375 22.261719 54.847656 22.265625 55.71875 C 22.269531 56.589844 22.363281 57.453125 22.535156 58.304688 C 22.710938 59.160156 22.96875 59.988281 23.308594 60.789062 C 23.644531 61.59375 24.058594 62.355469 24.546875 63.074219 C 25.035156 63.796875 25.589844 64.460938 26.210938 65.074219 C 26.832031 65.6875 27.503906 66.230469 28.230469 66.710938 C 28.960938 67.191406 29.726562 67.59375 30.535156 67.921875 C 31.339844 68.25 32.171875 68.496094 33.027344 68.660156 C 33.882812 68.824219 34.746094 68.902344 35.617188 68.894531 C 36.488281 68.890625 37.347656 68.800781 38.203125 68.625 C 39.054688 68.449219 39.882812 68.191406 40.6875 67.855469 C 41.488281 67.515625 42.25 67.101562 42.972656 66.613281 C 43.691406 66.125 44.359375 65.574219 44.972656 64.953125 C 45.585938 64.332031 46.128906 63.660156 46.609375 62.933594 C 47.089844 62.207031 47.492188 61.4375 47.820312 60.632812 C 48.148438 59.824219 48.394531 58.996094 48.558594 58.140625 C 48.726562 57.285156 48.804688 56.421875 48.800781 55.550781 C 48.792969 54.679688 48.703125 53.816406 48.527344 52.964844 C 48.351562 52.109375 48.09375 51.28125 47.757812 50.480469 C 47.417969 49.675781 47.003906 48.914062 46.515625 48.195312 C 46.027344 47.472656 45.472656 46.808594 44.851562 46.195312 C 44.234375 45.582031 43.558594 45.039062 42.832031 44.558594 C 42.105469 44.078125 41.339844 43.675781 40.53125 43.347656 C 39.722656 43.019531 38.894531 42.773438 38.039062 42.609375 C 37.183594 42.445312 36.320312 42.367188 35.449219 42.375 C 34.578125 42.378906 33.714844 42.46875 32.863281 42.644531 Z M 32.863281 42.644531 " fill-opacity="1" fill-rule="nonzero"/></g></g></g><g clip-path="url(#a0b6f31f59)"><g clip-path="url(#932c9795ae)"><g clip-path="url(#c863c4b392)"><path fill="#ffffff" d="M 55.128906 38.070312 C 54.277344 38.242188 53.449219 38.5 52.644531 38.839844 C 51.84375 39.175781 51.082031 39.589844 50.359375 40.078125 C 49.636719 40.566406 48.972656 41.121094 48.359375 41.738281 C 47.746094 42.359375 47.203125 43.03125 46.722656 43.757812 C 46.242188 44.488281 45.839844 45.253906 45.511719 46.058594 C 45.183594 46.867188 44.9375 47.699219 44.769531 48.554688 C 44.605469 49.410156 44.527344 50.273438 44.53125 51.144531 C 44.539062 52.015625 44.628906 52.875 44.804688 53.730469 C 44.980469 54.582031 45.234375 55.410156 45.574219 56.210938 C 45.914062 57.015625 46.328125 57.777344 46.816406 58.496094 C 47.304688 59.21875 47.859375 59.886719 48.476562 60.496094 C 49.097656 61.109375 49.769531 61.652344 50.5 62.132812 C 51.226562 62.613281 51.992188 63.015625 52.800781 63.34375 C 53.605469 63.671875 54.4375 63.917969 55.292969 64.082031 C 56.148438 64.246094 57.011719 64.324219 57.882812 64.320312 C 58.753906 64.3125 59.617188 64.222656 60.46875 64.046875 C 61.324219 63.871094 62.148438 63.617188 62.953125 63.277344 C 63.753906 62.9375 64.519531 62.527344 65.238281 62.039062 C 65.960938 61.550781 66.625 60.996094 67.238281 60.375 C 67.851562 59.757812 68.398438 59.082031 68.875 58.355469 C 69.355469 57.628906 69.757812 56.863281 70.089844 56.054688 C 70.417969 55.25 70.664062 54.417969 70.828125 53.5625 C 70.992188 52.707031 71.070312 51.84375 71.066406 50.972656 C 71.058594 50.101562 70.96875 49.238281 70.792969 48.386719 C 70.621094 47.535156 70.363281 46.707031 70.023438 45.902344 C 69.683594 45.101562 69.273438 44.339844 68.785156 43.617188 C 68.292969 42.898438 67.742188 42.230469 67.121094 41.617188 C 66.5 41.007812 65.828125 40.460938 65.097656 39.980469 C 64.371094 39.503906 63.605469 39.097656 62.796875 38.773438 C 61.992188 38.445312 61.160156 38.199219 60.304688 38.035156 C 59.449219 37.871094 58.585938 37.789062 57.714844 37.796875 C 56.84375 37.800781 55.980469 37.894531 55.128906 38.070312 Z M 55.128906 38.070312 " fill-opacity="1" fill-rule="nonzero"/></g></g></g><g clip-path="url(#1e55f02769)"><g clip-path="url(#8a424b1b1d)"><g clip-path="url(#714a49a3c6)"><path fill="#f3f6ff" d="M 15.894531 30.660156 C 15.378906 30.769531 14.867188 30.898438 14.363281 31.054688 C 13.859375 31.210938 13.367188 31.390625 12.878906 31.597656 C 12.394531 31.800781 11.917969 32.03125 11.457031 32.28125 C 10.992188 32.535156 10.542969 32.808594 10.105469 33.101562 C 9.667969 33.398438 9.246094 33.714844 8.84375 34.050781 C 8.4375 34.390625 8.046875 34.746094 7.679688 35.121094 C 7.308594 35.496094 6.957031 35.890625 6.625 36.296875 C 6.292969 36.707031 5.980469 37.132812 5.691406 37.574219 C 5.402344 38.015625 5.132812 38.46875 4.886719 38.933594 C 4.640625 39.402344 4.417969 39.878906 4.21875 40.367188 C 4.023438 40.855469 3.847656 41.351562 3.699219 41.859375 C 3.546875 42.363281 3.421875 42.875 3.324219 43.394531 C 3.222656 43.910156 3.148438 44.433594 3.101562 44.957031 C 3.054688 45.484375 3.03125 46.007812 3.035156 46.535156 C 3.039062 47.0625 3.066406 47.589844 3.121094 48.113281 C 3.175781 48.640625 3.257812 49.160156 3.363281 49.675781 C 3.46875 50.191406 3.601562 50.703125 3.757812 51.207031 C 3.914062 51.710938 4.09375 52.203125 4.300781 52.691406 C 4.503906 53.175781 4.730469 53.652344 4.984375 54.113281 C 5.234375 54.578125 5.507812 55.027344 5.804688 55.464844 C 6.101562 55.902344 6.417969 56.324219 6.753906 56.726562 C 7.089844 57.132812 7.449219 57.523438 7.824219 57.890625 C 8.199219 58.261719 8.589844 58.613281 9 58.945312 C 9.410156 59.277344 9.835938 59.589844 10.277344 59.878906 C 10.714844 60.167969 11.167969 60.4375 11.636719 60.683594 C 12.101562 60.929688 12.582031 61.152344 13.070312 61.347656 C 13.558594 61.546875 14.054688 61.722656 14.558594 61.871094 C 15.066406 62.023438 15.578125 62.148438 16.09375 62.246094 C 16.613281 62.347656 17.136719 62.421875 17.660156 62.46875 C 18.183594 62.515625 18.710938 62.539062 19.238281 62.535156 C 19.765625 62.53125 20.292969 62.503906 20.816406 62.449219 C 21.339844 62.394531 21.863281 62.3125 22.378906 62.207031 C 22.894531 62.101562 23.40625 61.96875 23.910156 61.8125 C 24.414062 61.65625 24.90625 61.476562 25.394531 61.269531 C 25.878906 61.066406 26.355469 60.835938 26.816406 60.585938 C 27.28125 60.335938 27.730469 60.0625 28.167969 59.765625 C 28.605469 59.46875 29.023438 59.152344 29.429688 58.816406 C 29.835938 58.480469 30.222656 58.121094 30.59375 57.746094 C 30.964844 57.371094 31.316406 56.980469 31.648438 56.570312 C 31.980469 56.160156 32.292969 55.734375 32.582031 55.292969 C 32.871094 54.855469 33.140625 54.402344 33.386719 53.933594 C 33.628906 53.46875 33.851562 52.988281 34.050781 52.5 C 34.25 52.011719 34.425781 51.515625 34.574219 51.011719 C 34.722656 50.503906 34.847656 49.992188 34.949219 49.476562 C 35.046875 48.957031 35.121094 48.433594 35.171875 47.910156 C 35.21875 47.386719 35.242188 46.859375 35.238281 46.332031 C 35.234375 45.804688 35.207031 45.277344 35.152344 44.753906 C 35.09375 44.230469 35.015625 43.707031 34.910156 43.191406 C 34.800781 42.675781 34.671875 42.164062 34.515625 41.660156 C 34.359375 41.15625 34.179688 40.664062 33.972656 40.175781 C 33.769531 39.691406 33.539062 39.214844 33.289062 38.753906 C 33.035156 38.289062 32.761719 37.839844 32.46875 37.402344 C 32.171875 36.964844 31.855469 36.546875 31.519531 36.140625 C 31.179688 35.734375 30.824219 35.347656 30.449219 34.976562 C 30.074219 34.605469 29.679688 34.253906 29.273438 33.921875 C 28.863281 33.589844 28.4375 33.277344 27.996094 32.988281 C 27.554688 32.699219 27.101562 32.429688 26.636719 32.183594 C 26.167969 31.9375 25.691406 31.71875 25.203125 31.519531 C 24.714844 31.320312 24.21875 31.144531 23.710938 30.996094 C 23.207031 30.847656 22.695312 30.722656 22.175781 30.621094 C 21.660156 30.523438 21.136719 30.449219 20.613281 30.398438 C 20.085938 30.351562 19.5625 30.328125 19.035156 30.332031 C 18.507812 30.335938 17.980469 30.363281 17.457031 30.417969 C 16.929688 30.476562 16.410156 30.554688 15.894531 30.660156 Z M 62.066406 15.367188 C 61.460938 15.492188 60.859375 15.648438 60.265625 15.832031 C 59.675781 16.015625 59.09375 16.226562 58.519531 16.46875 C 57.949219 16.710938 57.390625 16.980469 56.84375 17.273438 C 56.300781 17.570312 55.769531 17.894531 55.257812 18.242188 C 54.742188 18.589844 54.246094 18.960938 53.769531 19.359375 C 53.292969 19.753906 52.835938 20.171875 52.402344 20.613281 C 51.964844 21.054688 51.550781 21.519531 51.160156 22 C 50.769531 22.484375 50.40625 22.984375 50.0625 23.5 C 49.722656 24.019531 49.40625 24.550781 49.117188 25.101562 C 48.828125 25.648438 48.566406 26.210938 48.332031 26.785156 C 48.101562 27.363281 47.894531 27.945312 47.71875 28.542969 C 47.542969 29.136719 47.394531 29.738281 47.277344 30.347656 C 47.160156 30.957031 47.074219 31.570312 47.015625 32.1875 C 46.960938 32.804688 46.933594 33.425781 46.9375 34.046875 C 46.941406 34.664062 46.976562 35.285156 47.042969 35.902344 C 47.105469 36.519531 47.199219 37.132812 47.324219 37.738281 C 47.449219 38.347656 47.605469 38.945312 47.789062 39.539062 C 47.972656 40.132812 48.183594 40.714844 48.425781 41.285156 C 48.667969 41.855469 48.9375 42.414062 49.230469 42.960938 C 49.527344 43.507812 49.851562 44.035156 50.199219 44.550781 C 50.546875 45.0625 50.917969 45.558594 51.316406 46.035156 C 51.710938 46.511719 52.128906 46.96875 52.570312 47.40625 C 53.011719 47.839844 53.476562 48.253906 53.957031 48.644531 C 54.4375 49.035156 54.9375 49.402344 55.457031 49.742188 C 55.976562 50.082031 56.507812 50.398438 57.058594 50.6875 C 57.605469 50.976562 58.167969 51.238281 58.742188 51.472656 C 59.316406 51.707031 59.902344 51.910156 60.496094 52.085938 C 61.09375 52.261719 61.695312 52.410156 62.304688 52.527344 C 62.914062 52.644531 63.527344 52.730469 64.144531 52.789062 C 64.761719 52.84375 65.382812 52.871094 66.003906 52.867188 C 66.621094 52.863281 67.242188 52.828125 67.859375 52.765625 C 68.476562 52.699219 69.085938 52.605469 69.695312 52.480469 C 70.304688 52.355469 70.902344 52.199219 71.496094 52.015625 C 72.089844 51.832031 72.671875 51.621094 73.242188 51.378906 C 73.8125 51.136719 74.371094 50.871094 74.917969 50.574219 C 75.464844 50.277344 75.992188 49.957031 76.507812 49.609375 C 77.019531 49.261719 77.515625 48.886719 77.992188 48.492188 C 78.46875 48.09375 78.925781 47.675781 79.363281 47.234375 C 79.796875 46.792969 80.210938 46.332031 80.601562 45.847656 C 80.992188 45.367188 81.359375 44.867188 81.699219 44.347656 C 82.039062 43.832031 82.355469 43.296875 82.644531 42.746094 C 82.933594 42.199219 83.195312 41.636719 83.429688 41.0625 C 83.664062 40.488281 83.867188 39.902344 84.042969 39.308594 C 84.21875 38.714844 84.367188 38.109375 84.484375 37.5 C 84.601562 36.890625 84.6875 36.277344 84.746094 35.660156 C 84.800781 35.042969 84.828125 34.425781 84.824219 33.804688 C 84.820312 33.183594 84.785156 32.566406 84.722656 31.949219 C 84.65625 31.332031 84.5625 30.71875 84.4375 30.109375 C 84.3125 29.503906 84.15625 28.902344 83.972656 28.308594 C 83.789062 27.71875 83.578125 27.136719 83.335938 26.5625 C 83.09375 25.992188 82.828125 25.433594 82.53125 24.886719 C 82.234375 24.34375 81.914062 23.8125 81.566406 23.300781 C 81.21875 22.785156 80.84375 22.289062 80.449219 21.8125 C 80.050781 21.335938 79.632812 20.878906 79.191406 20.445312 C 78.75 20.007812 78.289062 19.59375 77.804688 19.203125 C 77.324219 18.8125 76.824219 18.449219 76.304688 18.105469 C 75.789062 17.765625 75.253906 17.449219 74.703125 17.160156 C 74.15625 16.871094 73.59375 16.609375 73.019531 16.375 C 72.445312 16.144531 71.859375 15.9375 71.265625 15.761719 C 70.667969 15.585938 70.066406 15.4375 69.457031 15.320312 C 68.847656 15.203125 68.234375 15.117188 67.617188 15.0625 C 67 15.003906 66.382812 14.976562 65.761719 14.980469 C 65.140625 14.984375 64.519531 15.019531 63.90625 15.085938 C 63.289062 15.148438 62.675781 15.242188 62.066406 15.367188 Z M 62.066406 15.367188 " fill-opacity="1" fill-rule="nonzero"/></g></g></g><g clip-path="url(#02a5c1a95d)"><g clip-path="url(#19f90bd68a)"><g clip-path="url(#482df246e6)"><path fill="#ffffff" d="M 45.75 20.65625 C 44.894531 20.832031 44.066406 21.089844 43.265625 21.425781 C 42.464844 21.765625 41.703125 22.179688 40.980469 22.667969 C 40.261719 23.15625 39.59375 23.710938 38.980469 24.328125 C 38.371094 24.949219 37.824219 25.621094 37.34375 26.347656 C 36.867188 27.078125 36.464844 27.84375 36.136719 28.648438 C 35.808594 29.457031 35.5625 30.285156 35.394531 31.140625 C 35.230469 31.996094 35.152344 32.859375 35.15625 33.730469 C 35.164062 34.601562 35.253906 35.464844 35.429688 36.316406 C 35.605469 37.167969 35.859375 37.996094 36.199219 38.796875 C 36.539062 39.601562 36.953125 40.363281 37.441406 41.082031 C 37.929688 41.804688 38.480469 42.46875 39.101562 43.082031 C 39.722656 43.695312 40.394531 44.238281 41.121094 44.71875 C 41.847656 45.199219 42.617188 45.601562 43.421875 45.929688 C 44.226562 46.257812 45.058594 46.503906 45.914062 46.667969 C 46.769531 46.832031 47.632812 46.910156 48.503906 46.90625 C 49.375 46.902344 50.234375 46.808594 51.089844 46.636719 C 51.941406 46.460938 52.769531 46.203125 53.570312 45.863281 C 54.375 45.527344 55.136719 45.113281 55.855469 44.625 C 56.578125 44.136719 57.242188 43.582031 57.855469 42.960938 C 58.464844 42.34375 59.011719 41.667969 59.492188 40.941406 C 59.96875 40.214844 60.375 39.449219 60.703125 38.640625 C 61.03125 37.835938 61.277344 37.003906 61.441406 36.148438 C 61.605469 35.296875 61.683594 34.433594 61.679688 33.5625 C 61.671875 32.691406 61.582031 31.828125 61.40625 30.976562 C 61.230469 30.125 60.976562 29.296875 60.636719 28.492188 C 60.296875 27.691406 59.886719 26.929688 59.398438 26.207031 C 58.910156 25.488281 58.355469 24.820312 57.734375 24.210938 C 57.117188 23.597656 56.441406 23.050781 55.714844 22.574219 C 54.988281 22.09375 54.222656 21.691406 53.414062 21.363281 C 52.609375 21.035156 51.777344 20.789062 50.921875 20.625 C 50.066406 20.460938 49.203125 20.378906 48.332031 20.386719 C 47.464844 20.390625 46.601562 20.480469 45.75 20.65625 Z M 45.75 20.65625 " fill-opacity="1" fill-rule="nonzero"/></g></g></g><g clip-path="url(#08fdc81278)"><g clip-path="url(#c858ac6e3c)"><g clip-path="url(#cac72cd667)"><path fill="#ffffff" d="M 25.769531 36.367188 C 24.917969 36.542969 24.089844 36.800781 23.289062 37.136719 C 22.484375 37.476562 21.722656 37.890625 21.003906 38.378906 C 20.28125 38.867188 19.617188 39.421875 19.003906 40.039062 C 18.390625 40.660156 17.847656 41.332031 17.367188 42.058594 C 16.886719 42.785156 16.484375 43.554688 16.15625 44.359375 C 15.828125 45.167969 15.582031 45.996094 15.417969 46.851562 C 15.253906 47.707031 15.175781 48.570312 15.179688 49.441406 C 15.183594 50.3125 15.277344 51.171875 15.449219 52.027344 C 15.625 52.878906 15.882812 53.707031 16.222656 54.507812 C 16.558594 55.3125 16.972656 56.074219 17.460938 56.792969 C 17.949219 57.515625 18.503906 58.179688 19.125 58.792969 C 19.742188 59.40625 20.417969 59.949219 21.144531 60.429688 C 21.871094 60.910156 22.636719 61.3125 23.445312 61.640625 C 24.25 61.96875 25.082031 62.214844 25.9375 62.378906 C 26.789062 62.542969 27.652344 62.621094 28.523438 62.617188 C 29.394531 62.613281 30.257812 62.519531 31.109375 62.347656 C 31.960938 62.171875 32.789062 61.914062 33.59375 61.574219 C 34.394531 61.238281 35.15625 60.824219 35.878906 60.335938 C 36.597656 59.847656 37.265625 59.292969 37.875 58.671875 C 38.488281 58.054688 39.035156 57.378906 39.511719 56.652344 C 39.992188 55.925781 40.394531 55.160156 40.722656 54.351562 C 41.050781 53.546875 41.296875 52.714844 41.460938 51.859375 C 41.625 51.003906 41.707031 50.144531 41.699219 49.273438 C 41.695312 48.402344 41.605469 47.539062 41.429688 46.6875 C 41.253906 45.832031 40.996094 45.007812 40.660156 44.203125 C 40.320312 43.402344 39.90625 42.640625 39.417969 41.917969 C 38.929688 41.199219 38.375 40.53125 37.757812 39.921875 C 37.136719 39.308594 36.464844 38.761719 35.738281 38.285156 C 35.007812 37.804688 34.242188 37.402344 33.4375 37.074219 C 32.628906 36.746094 31.800781 36.5 30.945312 36.335938 C 30.089844 36.171875 29.226562 36.089844 28.355469 36.097656 C 27.484375 36.101562 26.621094 36.191406 25.769531 36.367188 Z M 25.769531 36.367188 " fill-opacity="1" fill-rule="nonzero"/></g></g></g><g clip-path="url(#67f1eadf0d)"><g clip-path="url(#40af98a8fc)"><g clip-path="url(#85be64efde)"><path fill="#ffffff" d="M 32.046875 29.273438 C 31.5625 29.375 31.085938 29.523438 30.628906 29.714844 C 30.171875 29.910156 29.734375 30.144531 29.324219 30.425781 C 28.910156 30.703125 28.53125 31.019531 28.179688 31.375 C 27.832031 31.726562 27.519531 32.113281 27.246094 32.527344 C 26.972656 32.945312 26.742188 33.382812 26.554688 33.84375 C 26.367188 34.304688 26.226562 34.777344 26.132812 35.265625 C 26.039062 35.753906 25.992188 36.25 25.996094 36.746094 C 26 37.242188 26.050781 37.734375 26.152344 38.222656 C 26.25 38.710938 26.398438 39.183594 26.589844 39.640625 C 26.785156 40.101562 27.019531 40.535156 27.300781 40.949219 C 27.578125 41.359375 27.894531 41.738281 28.25 42.089844 C 28.605469 42.4375 28.988281 42.75 29.402344 43.023438 C 29.820312 43.296875 30.257812 43.527344 30.71875 43.714844 C 31.179688 43.902344 31.652344 44.042969 32.144531 44.140625 C 32.632812 44.234375 33.125 44.277344 33.621094 44.273438 C 34.121094 44.273438 34.613281 44.21875 35.097656 44.121094 C 35.585938 44.019531 36.058594 43.871094 36.519531 43.679688 C 36.976562 43.484375 37.410156 43.25 37.824219 42.972656 C 38.234375 42.691406 38.617188 42.375 38.964844 42.019531 C 39.316406 41.667969 39.628906 41.28125 39.902344 40.867188 C 40.175781 40.453125 40.40625 40.011719 40.59375 39.550781 C 40.78125 39.089844 40.921875 38.617188 41.015625 38.128906 C 41.109375 37.640625 41.152344 37.148438 41.152344 36.648438 C 41.148438 36.152344 41.097656 35.660156 40.996094 35.171875 C 40.894531 34.683594 40.75 34.210938 40.554688 33.753906 C 40.363281 33.292969 40.125 32.859375 39.847656 32.449219 C 39.566406 32.035156 39.25 31.65625 38.898438 31.304688 C 38.542969 30.957031 38.160156 30.644531 37.742188 30.371094 C 37.328125 30.097656 36.890625 29.867188 36.429688 29.679688 C 35.96875 29.492188 35.492188 29.351562 35.003906 29.257812 C 34.515625 29.164062 34.023438 29.117188 33.523438 29.121094 C 33.027344 29.125 32.535156 29.175781 32.046875 29.273438 Z M 59.171875 29.503906 C 58.316406 29.675781 57.488281 29.933594 56.6875 30.273438 C 55.886719 30.609375 55.125 31.023438 54.402344 31.511719 C 53.683594 32 53.015625 32.554688 52.402344 33.175781 C 51.792969 33.792969 51.246094 34.46875 50.769531 35.195312 C 50.289062 35.921875 49.886719 36.6875 49.558594 37.496094 C 49.230469 38.300781 48.984375 39.132812 48.816406 39.988281 C 48.652344 40.84375 48.574219 41.703125 48.578125 42.574219 C 48.585938 43.445312 48.675781 44.308594 48.851562 45.160156 C 49.027344 46.015625 49.285156 46.839844 49.621094 47.644531 C 49.960938 48.445312 50.375 49.207031 50.863281 49.929688 C 51.351562 50.648438 51.902344 51.316406 52.523438 51.925781 C 53.144531 52.539062 53.816406 53.085938 54.542969 53.5625 C 55.269531 54.042969 56.039062 54.445312 56.84375 54.773438 C 57.652344 55.101562 58.480469 55.347656 59.335938 55.511719 C 60.191406 55.675781 61.054688 55.757812 61.925781 55.75 C 62.796875 55.746094 63.65625 55.65625 64.511719 55.480469 C 65.363281 55.304688 66.191406 55.046875 66.992188 54.710938 C 67.796875 54.371094 68.558594 53.957031 69.277344 53.46875 C 70 52.980469 70.664062 52.425781 71.277344 51.808594 C 71.886719 51.1875 72.433594 50.515625 72.914062 49.789062 C 73.390625 49.0625 73.796875 48.292969 74.125 47.488281 C 74.453125 46.679688 74.699219 45.851562 74.863281 44.996094 C 75.027344 44.140625 75.105469 43.277344 75.101562 42.40625 C 75.09375 41.535156 75.003906 40.675781 74.828125 39.820312 C 74.652344 38.96875 74.398438 38.140625 74.058594 37.339844 C 73.71875 36.535156 73.308594 35.773438 72.820312 35.054688 C 72.332031 34.332031 71.777344 33.667969 71.15625 33.054688 C 70.539062 32.441406 69.863281 31.898438 69.136719 31.417969 C 68.410156 30.9375 67.644531 30.535156 66.835938 30.207031 C 66.03125 29.878906 65.199219 29.632812 64.34375 29.46875 C 63.488281 29.304688 62.625 29.226562 61.753906 29.230469 C 60.886719 29.234375 60.023438 29.328125 59.171875 29.503906 Z M 59.171875 29.503906 " fill-opacity="1" fill-rule="nonzero"/></g></g></g><g clip-path="url(#37b6130802)"><g clip-path="url(#ff15471c38)"><g clip-path="url(#1e690f1cbc)"><path fill="#98b1fd" d="M 52.769531 83.035156 C 51.65625 83.265625 50.761719 82.675781 50.53125 81.5625 L 44.808594 53.726562 C 44.582031 52.613281 45.171875 51.71875 46.285156 51.492188 C 47.398438 51.261719 48.292969 51.851562 48.519531 52.964844 L 54.242188 80.796875 C 54.472656 81.910156 53.882812 82.808594 52.769531 83.035156 Z M 62.253906 50.140625 C 62.066406 50.179688 62.066406 50.179688 61.882812 50.21875 C 60.914062 50.222656 59.984375 49.449219 59.9375 48.296875 L 59.910156 42.5 C 59.902344 41.535156 60.679688 40.601562 61.828125 40.558594 C 62.796875 40.554688 63.730469 41.328125 63.773438 42.480469 L 63.804688 48.277344 C 63.621094 49.28125 62.996094 49.988281 62.253906 50.140625 Z M 62.046875 81.128906 C 61.859375 81.167969 61.859375 81.167969 61.675781 81.203125 C 60.710938 81.210938 59.777344 80.433594 59.734375 79.28125 L 59.796875 56.0625 C 59.789062 55.097656 60.566406 54.164062 61.714844 54.121094 C 62.683594 54.117188 63.617188 54.890625 63.660156 56.042969 L 63.597656 79.261719 C 63.601562 80.226562 62.972656 80.9375 62.046875 81.128906 Z M 31.078125 56.550781 C 30.152344 56.742188 29.292969 56.335938 28.917969 55.445312 L 26.660156 50.109375 C 26.285156 49.21875 26.613281 47.992188 27.6875 47.578125 C 28.578125 47.199219 29.804688 47.527344 30.21875 48.605469 L 32.476562 53.941406 C 32.851562 54.832031 32.523438 56.058594 31.449219 56.472656 C 31.449219 56.472656 31.265625 56.511719 31.078125 56.550781 Z M 43.492188 84.941406 C 42.5625 85.132812 41.707031 84.730469 41.328125 83.839844 L 32.113281 62.527344 C 31.738281 61.636719 32.066406 60.410156 33.140625 59.996094 C 34.03125 59.617188 35.257812 59.945312 35.671875 61.019531 L 44.886719 82.335938 C 45.265625 83.222656 44.9375 84.453125 43.863281 84.867188 C 43.675781 84.90625 43.675781 84.90625 43.492188 84.941406 Z M 45.519531 47.78125 C 44.40625 48.007812 43.511719 47.417969 43.285156 46.304688 L 42.140625 40.738281 C 41.910156 39.625 42.5 38.730469 43.613281 38.5 C 44.726562 38.273438 45.621094 38.863281 45.851562 39.976562 L 46.996094 45.542969 C 47.222656 46.65625 46.636719 47.550781 45.519531 47.78125 Z M 45.519531 47.78125 " fill-opacity="1" fill-rule="nonzero"/></g></g></g><g clip-path="url(#5e45eea176)"><g clip-path="url(#73d50fe29b)"><g transform="matrix(1, 0, 0, 1, 75, 138)"><g clip-path="url(#08245e646d)"><g clip-path="url(#cff8490d4e)"><g clip-path="url(#49600c32b0)"><path fill="#f3f6ff" d="M 157.640625 176.175781 L 0.753906 176.175781 L 0.753906 0.910156 L 157.640625 0.910156 Z M 157.640625 176.175781 " fill-opacity="1" fill-rule="nonzero"/></g></g></g></g></g></g><g clip-path="url(#311997dd9a)"><g transform="matrix(1, 0, 0, 1, 33, 94)"><g clip-path="url(#a4da131b1a)"><g clip-path="url(#84b7c73187)"><path fill="#f3f6ff" d="M 0.582031 220.160156 L 0.582031 0.703125 L 42.761719 0.703125 L 42.761719 220.160156 Z M 0.582031 220.160156 " fill-opacity="1" fill-rule="nonzero"/></g></g></g></g><g clip-path="url(#4ec35ebd80)"><g transform="matrix(1, 0, 0, 1, 33, 80)"><g clip-path="url(#1039e0eb56)"><g clip-path="url(#f6e4c314a1)"><path fill="#98b1fd" d="M 0.589844 11.605469 L 0.589844 0.808594 L 42.765625 0.808594 L 42.765625 11.605469 Z M 0.589844 11.605469 " fill-opacity="1" fill-rule="nonzero"/></g></g></g></g><g clip-path="url(#09b7862480)"><g transform="matrix(1, 0, 0, 1, 154, 191)"><g clip-path="url(#c631c57281)"><g clip-path="url(#0c8d769b85)"><path fill="#98b1fd" d="M 0.214844 13.269531 L 0.214844 0.234375 L 27.609375 0.234375 L 27.609375 13.269531 Z M 0.214844 13.269531 " fill-opacity="1" fill-rule="nonzero"/></g></g></g></g><g clip-path="url(#2173678b27)"><g transform="matrix(1, 0, 0, 1, 154, 213)"><g clip-path="url(#2e313dfdf5)"><g clip-path="url(#e102d1125b)"><path fill="#98b1fd" d="M 0.214844 13.410156 L 0.214844 0.375 L 27.609375 0.375 L 27.609375 13.410156 Z M 0.214844 13.410156 " fill-opacity="1" fill-rule="nonzero"/></g></g></g></g><g clip-path="url(#4efbbeed5b)"><g transform="matrix(1, 0, 0, 1, 190, 213)"><g clip-path="url(#1d405237d7)"><g clip-path="url(#b13fdd26f1)"><path fill="#98b1fd" d="M 0.75 13.410156 L 0.75 0.375 L 28.148438 0.375 L 28.148438 13.410156 Z M 0.75 13.410156 " fill-opacity="1" fill-rule="nonzero"/></g></g></g></g><g clip-path="url(#364e8d8283)"><g transform="matrix(1, 0, 0, 1, 190, 191)"><g clip-path="url(#721f67654b)"><g clip-path="url(#bba0d9687a)"><path fill="#98b1fd" d="M 0.75 13.269531 L 0.75 0.234375 L 28.148438 0.234375 L 28.148438 13.269531 Z M 0.75 13.269531 " fill-opacity="1" fill-rule="nonzero"/></g></g></g></g><g clip-path="url(#c1e165904a)"><g transform="matrix(1, 0, 0, 1, 190, 236)"><g clip-path="url(#59757ccf73)"><g clip-path="url(#aedcf0c861)"><path fill="#98b1fd" d="M 0.75 13.140625 L 0.75 0.105469 L 28.148438 0.105469 L 28.148438 13.140625 Z M 0.75 13.140625 " fill-opacity="1" fill-rule="nonzero"/></g></g></g></g><g clip-path="url(#7f6d14ca13)"><g transform="matrix(1, 0, 0, 1, 117, 191)"><g clip-path="url(#9529e99786)"><g clip-path="url(#9e5e3b6567)"><path fill="#98b1fd" d="M 0.75 13.410156 L 0.75 0.375 L 28.144531 0.375 L 28.144531 13.410156 Z M 0.75 13.410156 " fill-opacity="1" fill-rule="nonzero"/></g></g></g></g><g clip-path="url(#fdf8e0e754)"><g transform="matrix(1, 0, 0, 1, 33, 124)"><g clip-path="url(#09fc41c227)"><g clip-path="url(#edd3f62071)"><path fill="#98b1fd" d="M 0.582031 8.949219 L 0.582031 0.871094 L 42.773438 0.871094 L 42.773438 8.949219 Z M 0.582031 8.949219 " fill-opacity="1" fill-rule="nonzero"/></g></g></g></g><g clip-path="url(#47bfceff42)"><g transform="matrix(1, 0, 0, 1, 33, 119)"><g clip-path="url(#6013d2eb4f)"><g clip-path="url(#89a48d6133)"><path fill="#98b1fd" d="M 0.582031 8.242188 L 0.582031 0.164062 L 42.773438 0.164062 L 42.773438 8.242188 Z M 0.582031 8.242188 " fill-opacity="1" fill-rule="nonzero"/></g></g></g></g><g clip-path="url(#01139cb8ee)"><g transform="matrix(1, 0, 0, 1, 33, 112)"><g clip-path="url(#adb6e2109f)"><g clip-path="url(#f6ffb72a11)"><path fill="#98b1fd" d="M 0.582031 8.671875 L 0.582031 0.59375 L 42.773438 0.59375 L 42.773438 8.671875 Z M 0.582031 8.671875 " fill-opacity="1" fill-rule="nonzero"/></g></g></g></g><g clip-path="url(#b43ec2bcf4)"><g transform="matrix(1, 0, 0, 1, 19, 310)"><g clip-path="url(#5dae8a4ea1)"><g clip-path="url(#ff147660de)"><path fill="#f3f6ff" d="M 0.136719 8.199219 L 0.136719 0.121094 L 229.492188 0.121094 L 229.492188 8.199219 Z M 0.136719 8.199219 " fill-opacity="1" fill-rule="nonzero"/></g></g></g></g><g fill="#ffffff" fill-opacity="1"><g transform="translate(81.843808, 123.638656)"><g><path d="M 16.015625 0 C 12.804688 0 9.78125 -1.066406 6.9375 -3.203125 C 4.09375 -5.335938 2.671875 -9.609375 2.671875 -16.015625 L 2.671875 -26.6875 C 2.671875 -33.09375 4.09375 -37.363281 6.9375 -39.5 C 9.78125 -41.632812 12.804688 -42.703125 16.015625 -42.703125 L 54.984375 -42.703125 L 54.984375 -32.03125 L 19.75 -32.03125 C 18.320312 -32.03125 17.34375 -31.582031 16.8125 -30.6875 C 16.28125 -29.800781 16.015625 -28.828125 16.015625 -27.765625 L 16.015625 -13.34375 C 16.015625 -12.28125 16.28125 -11.390625 16.8125 -10.671875 C 17.34375 -9.960938 18.320312 -9.609375 19.75 -9.609375 L 40.5625 -9.609375 C 41.144531 -9.609375 41.644531 -9.804688 42.0625 -10.203125 C 42.488281 -10.609375 42.703125 -11.125 42.703125 -11.75 L 42.703125 -13.875 C 42.703125 -14.457031 42.488281 -14.957031 42.0625 -15.375 C 41.644531 -15.800781 41.144531 -16.015625 40.5625 -16.015625 L 28.296875 -16.015625 L 28.296875 -23.625 L 44.3125 -23.625 C 47.863281 -23.625 50.707031 -23.066406 52.84375 -21.953125 C 54.976562 -20.835938 56.046875 -18.503906 56.046875 -14.953125 L 56.046875 -10.671875 C 56.046875 -7.117188 54.976562 -4.453125 52.84375 -2.671875 C 50.707031 -0.890625 47.863281 0 44.3125 0 Z M 16.015625 0 "/></g></g></g><g fill="#ffffff" fill-opacity="1"><g transform="translate(140.566445, 123.638656)"><g><path d="M 36.828125 -8.546875 C 37.410156 -8.546875 37.910156 -8.742188 38.328125 -9.140625 C 38.753906 -9.535156 38.96875 -10.046875 38.96875 -10.671875 L 38.96875 -12.8125 C 38.96875 -13.382812 38.753906 -13.882812 38.328125 -14.3125 C 37.910156 -14.738281 37.410156 -14.953125 36.828125 -14.953125 L 18.15625 -14.953125 C 17.53125 -14.953125 17.015625 -14.738281 16.609375 -14.3125 C 16.210938 -13.882812 16.015625 -13.382812 16.015625 -12.8125 L 16.015625 -10.671875 C 16.015625 -10.046875 16.210938 -9.535156 16.609375 -9.140625 C 17.015625 -8.742188 17.53125 -8.546875 18.15625 -8.546875 Z M 13.34375 0 C 6.226562 0 2.671875 -3.554688 2.671875 -10.671875 L 2.671875 -12.28125 C 2.671875 -19.394531 6.226562 -22.953125 13.34375 -22.953125 L 36.828125 -22.953125 C 37.367188 -22.953125 37.859375 -23.171875 38.296875 -23.609375 C 38.742188 -24.054688 38.96875 -24.550781 38.96875 -25.09375 L 38.96875 -25.625 C 38.96875 -26.332031 38.789062 -26.863281 38.4375 -27.21875 C 38.082031 -27.582031 37.546875 -27.765625 36.828125 -27.765625 L 3.734375 -27.765625 L 3.734375 -37.359375 L 41.703125 -37.359375 C 48.773438 -37.359375 52.3125 -33.800781 52.3125 -26.6875 L 52.3125 0 Z M 13.34375 0 "/></g></g></g><g fill="#ffffff" fill-opacity="1"><g transform="translate(195.552188, 123.638656)"><g><path d="M 2.671875 -26.6875 L 29.359375 -26.6875 L 29.359375 -17.078125 L 2.671875 -17.078125 Z M 2.671875 -26.6875 "/></g></g></g><g fill="#ffffff" fill-opacity="1"><g transform="translate(227.582719, 123.638656)"><g><path d="M 40.5625 -8.546875 C 41.144531 -8.546875 41.644531 -8.742188 42.0625 -9.140625 C 42.488281 -9.535156 42.703125 -10.046875 42.703125 -10.671875 L 42.703125 -26.6875 C 42.703125 -27.269531 42.488281 -27.769531 42.0625 -28.1875 C 41.644531 -28.613281 41.144531 -28.828125 40.5625 -28.828125 L 18.15625 -28.828125 C 17.53125 -28.828125 17.015625 -28.613281 16.609375 -28.1875 C 16.210938 -27.769531 16.015625 -27.269531 16.015625 -26.6875 L 16.015625 -10.671875 C 16.015625 -10.046875 16.210938 -9.535156 16.609375 -9.140625 C 17.015625 -8.742188 17.53125 -8.546875 18.15625 -8.546875 Z M 42.703125 -37.359375 C 48.046875 -37.359375 51.601562 -36.46875 53.375 -34.6875 C 55.15625 -32.914062 56.046875 -30.25 56.046875 -26.6875 L 56.046875 -10.671875 C 56.046875 -3.554688 51.664062 0 42.90625 0 L 18.15625 0 C 17.570312 0 17.066406 0.195312 16.640625 0.59375 C 16.222656 1 16.015625 1.515625 16.015625 2.140625 L 16.015625 5.34375 L 2.671875 5.34375 L 2.671875 -37.359375 Z M 42.703125 -37.359375 "/></g></g></g><g fill="#ffffff" fill-opacity="1"><g transform="translate(286.305356, 123.638656)"><g><path d="M 2.140625 0 L 2.140625 -37.359375 L 26.15625 -37.359375 L 26.15625 -28.828125 L 17.609375 -28.828125 C 16.992188 -28.828125 16.484375 -28.613281 16.078125 -28.1875 C 15.679688 -27.769531 15.484375 -27.269531 15.484375 -26.6875 L 15.484375 0 Z M 2.140625 0 "/></g></g></g><g fill="#ffffff" fill-opacity="1"><g transform="translate(314.598991, 123.638656)"><g><path d="M 40.5625 -8.546875 C 41.144531 -8.546875 41.644531 -8.742188 42.0625 -9.140625 C 42.488281 -9.535156 42.703125 -10.046875 42.703125 -10.671875 L 42.703125 -26.6875 C 42.703125 -27.269531 42.488281 -27.769531 42.0625 -28.1875 C 41.644531 -28.613281 41.144531 -28.828125 40.5625 -28.828125 L 18.15625 -28.828125 C 17.53125 -28.828125 17.015625 -28.613281 16.609375 -28.1875 C 16.210938 -27.769531 16.015625 -27.269531 16.015625 -26.6875 L 16.015625 -10.671875 C 16.015625 -10.046875 16.210938 -9.535156 16.609375 -9.140625 C 17.015625 -8.742188 17.53125 -8.546875 18.15625 -8.546875 Z M 16.015625 0 C 12.453125 0 9.335938 -0.890625 6.671875 -2.671875 C 4.003906 -4.453125 2.671875 -7.117188 2.671875 -10.671875 L 2.671875 -26.6875 C 2.671875 -30.25 4.003906 -32.914062 6.671875 -34.6875 C 9.335938 -36.46875 12.453125 -37.359375 16.015625 -37.359375 L 42.703125 -37.359375 C 46.265625 -37.359375 49.378906 -36.46875 52.046875 -34.6875 C 54.710938 -32.914062 56.046875 -30.25 56.046875 -26.6875 L 56.046875 -10.671875 C 56.046875 -7.117188 54.710938 -4.453125 52.046875 -2.671875 C 49.378906 -0.890625 46.265625 0 42.703125 0 Z M 16.015625 0 "/></g></g></g><g fill="#f3f6ff" fill-opacity="1"><g transform="translate(252.69138, 151.496842)"><g><path d="M 6.671875 -1.5 C 7.210938 -1.5 7.675781 -1.5625 8.0625 -1.6875 C 8.457031 -1.8125 8.78125 -1.984375 9.03125 -2.203125 C 9.28125 -2.429688 9.460938 -2.695312 9.578125 -3 C 9.691406 -3.3125 9.75 -3.648438 9.75 -4.015625 C 9.75 -4.734375 9.492188 -5.300781 8.984375 -5.71875 C 8.472656 -6.144531 7.703125 -6.359375 6.671875 -6.359375 L 3.65625 -6.359375 L 3.65625 -1.5 Z M 3.65625 -12.453125 L 3.65625 -7.703125 L 6.15625 -7.703125 C 6.6875 -7.703125 7.144531 -7.757812 7.53125 -7.875 C 7.925781 -7.988281 8.25 -8.148438 8.5 -8.359375 C 8.757812 -8.566406 8.953125 -8.816406 9.078125 -9.109375 C 9.203125 -9.410156 9.265625 -9.734375 9.265625 -10.078125 C 9.265625 -10.910156 9.015625 -11.515625 8.515625 -11.890625 C 8.023438 -12.265625 7.265625 -12.453125 6.234375 -12.453125 Z M 6.234375 -13.953125 C 7.085938 -13.953125 7.820312 -13.863281 8.4375 -13.6875 C 9.0625 -13.519531 9.570312 -13.28125 9.96875 -12.96875 C 10.375 -12.664062 10.671875 -12.285156 10.859375 -11.828125 C 11.046875 -11.378906 11.140625 -10.875 11.140625 -10.3125 C 11.140625 -9.96875 11.082031 -9.632812 10.96875 -9.3125 C 10.863281 -9 10.703125 -8.707031 10.484375 -8.4375 C 10.273438 -8.164062 10.003906 -7.921875 9.671875 -7.703125 C 9.347656 -7.484375 8.96875 -7.304688 8.53125 -7.171875 C 9.550781 -6.972656 10.316406 -6.609375 10.828125 -6.078125 C 11.347656 -5.546875 11.609375 -4.84375 11.609375 -3.96875 C 11.609375 -3.375 11.5 -2.832031 11.28125 -2.34375 C 11.0625 -1.863281 10.742188 -1.445312 10.328125 -1.09375 C 9.910156 -0.75 9.394531 -0.476562 8.78125 -0.28125 C 8.175781 -0.09375 7.484375 0 6.703125 0 L 1.78125 0 L 1.78125 -13.953125 Z M 6.234375 -13.953125 "/></g></g></g><g fill="#f3f6ff" fill-opacity="1"><g transform="translate(268.599085, 151.496842)"><g><path d="M 7.171875 -1.5 C 7.742188 -1.5 8.253906 -1.59375 8.703125 -1.78125 C 9.160156 -1.976562 9.546875 -2.253906 9.859375 -2.609375 C 10.179688 -2.960938 10.421875 -3.378906 10.578125 -3.859375 C 10.742188 -4.347656 10.828125 -4.882812 10.828125 -5.46875 L 10.828125 -13.953125 L 12.71875 -13.953125 L 12.71875 -5.46875 C 12.71875 -4.664062 12.585938 -3.921875 12.328125 -3.234375 C 12.066406 -2.546875 11.695312 -1.945312 11.21875 -1.4375 C 10.75 -0.9375 10.171875 -0.539062 9.484375 -0.25 C 8.796875 0.03125 8.023438 0.171875 7.171875 0.171875 C 6.304688 0.171875 5.53125 0.03125 4.84375 -0.25 C 4.15625 -0.539062 3.570312 -0.9375 3.09375 -1.4375 C 2.613281 -1.945312 2.242188 -2.546875 1.984375 -3.234375 C 1.734375 -3.921875 1.609375 -4.664062 1.609375 -5.46875 L 1.609375 -13.953125 L 3.484375 -13.953125 L 3.484375 -5.484375 C 3.484375 -4.898438 3.566406 -4.363281 3.734375 -3.875 C 3.898438 -3.382812 4.140625 -2.960938 4.453125 -2.609375 C 4.765625 -2.265625 5.148438 -1.992188 5.609375 -1.796875 C 6.066406 -1.597656 6.585938 -1.5 7.171875 -1.5 Z M 7.171875 -1.5 "/></g></g></g><g fill="#f3f6ff" fill-opacity="1"><g transform="translate(286.23835, 151.496842)"><g><path d="M 8.921875 -11.765625 C 8.859375 -11.671875 8.789062 -11.597656 8.71875 -11.546875 C 8.65625 -11.503906 8.578125 -11.484375 8.484375 -11.484375 C 8.367188 -11.484375 8.234375 -11.535156 8.078125 -11.640625 C 7.929688 -11.753906 7.742188 -11.875 7.515625 -12 C 7.296875 -12.132812 7.03125 -12.253906 6.71875 -12.359375 C 6.40625 -12.472656 6.023438 -12.53125 5.578125 -12.53125 C 5.148438 -12.53125 4.773438 -12.472656 4.453125 -12.359375 C 4.140625 -12.253906 3.875 -12.101562 3.65625 -11.90625 C 3.4375 -11.707031 3.269531 -11.476562 3.15625 -11.21875 C 3.050781 -10.957031 3 -10.671875 3 -10.359375 C 3 -9.972656 3.09375 -9.648438 3.28125 -9.390625 C 3.476562 -9.140625 3.734375 -8.921875 4.046875 -8.734375 C 4.359375 -8.554688 4.710938 -8.398438 5.109375 -8.265625 C 5.515625 -8.128906 5.925781 -7.988281 6.34375 -7.84375 C 6.757812 -7.707031 7.164062 -7.550781 7.5625 -7.375 C 7.96875 -7.195312 8.328125 -6.96875 8.640625 -6.6875 C 8.953125 -6.414062 9.203125 -6.082031 9.390625 -5.6875 C 9.585938 -5.289062 9.6875 -4.804688 9.6875 -4.234375 C 9.6875 -3.617188 9.582031 -3.046875 9.375 -2.515625 C 9.164062 -1.984375 8.859375 -1.519531 8.453125 -1.125 C 8.054688 -0.726562 7.566406 -0.414062 6.984375 -0.1875 C 6.410156 0.0390625 5.753906 0.15625 5.015625 0.15625 C 4.109375 0.15625 3.285156 -0.00390625 2.546875 -0.328125 C 1.804688 -0.660156 1.171875 -1.109375 0.640625 -1.671875 L 1.1875 -2.5625 C 1.238281 -2.632812 1.300781 -2.691406 1.375 -2.734375 C 1.445312 -2.785156 1.53125 -2.8125 1.625 -2.8125 C 1.707031 -2.8125 1.800781 -2.773438 1.90625 -2.703125 C 2.019531 -2.640625 2.144531 -2.554688 2.28125 -2.453125 C 2.414062 -2.347656 2.570312 -2.234375 2.75 -2.109375 C 2.925781 -1.984375 3.125 -1.867188 3.34375 -1.765625 C 3.5625 -1.660156 3.8125 -1.570312 4.09375 -1.5 C 4.382812 -1.4375 4.710938 -1.40625 5.078125 -1.40625 C 5.523438 -1.40625 5.921875 -1.46875 6.265625 -1.59375 C 6.617188 -1.71875 6.914062 -1.890625 7.15625 -2.109375 C 7.40625 -2.335938 7.59375 -2.609375 7.71875 -2.921875 C 7.84375 -3.234375 7.90625 -3.582031 7.90625 -3.96875 C 7.90625 -4.382812 7.8125 -4.726562 7.625 -5 C 7.4375 -5.269531 7.1875 -5.492188 6.875 -5.671875 C 6.5625 -5.859375 6.203125 -6.015625 5.796875 -6.140625 C 5.398438 -6.265625 4.992188 -6.390625 4.578125 -6.515625 C 4.160156 -6.648438 3.75 -6.804688 3.34375 -6.984375 C 2.945312 -7.160156 2.59375 -7.390625 2.28125 -7.671875 C 1.96875 -7.953125 1.710938 -8.300781 1.515625 -8.71875 C 1.328125 -9.132812 1.234375 -9.648438 1.234375 -10.265625 C 1.234375 -10.765625 1.328125 -11.242188 1.515625 -11.703125 C 1.710938 -12.160156 1.992188 -12.566406 2.359375 -12.921875 C 2.722656 -13.285156 3.171875 -13.570312 3.703125 -13.78125 C 4.242188 -14 4.863281 -14.109375 5.5625 -14.109375 C 6.332031 -14.109375 7.035156 -13.984375 7.671875 -13.734375 C 8.316406 -13.484375 8.882812 -13.128906 9.375 -12.671875 Z M 8.921875 -11.765625 "/></g></g></g><g fill="#f3f6ff" fill-opacity="1"><g transform="translate(300.12264, 151.496842)"><g><path d="M 3.671875 0 L 1.78125 0 L 1.78125 -13.953125 L 3.671875 -13.953125 Z M 3.671875 0 "/></g></g></g><g fill="#f3f6ff" fill-opacity="1"><g transform="translate(308.899798, 151.496842)"><g><path d="M 13.078125 -13.953125 L 13.078125 0 L 12.140625 0 C 11.992188 0 11.867188 -0.0234375 11.765625 -0.078125 C 11.660156 -0.128906 11.5625 -0.21875 11.46875 -0.34375 L 3.390625 -10.859375 C 3.410156 -10.691406 3.421875 -10.53125 3.421875 -10.375 C 3.429688 -10.21875 3.4375 -10.070312 3.4375 -9.9375 L 3.4375 0 L 1.78125 0 L 1.78125 -13.953125 L 2.75 -13.953125 C 2.832031 -13.953125 2.90625 -13.945312 2.96875 -13.9375 C 3.03125 -13.925781 3.082031 -13.910156 3.125 -13.890625 C 3.164062 -13.867188 3.207031 -13.832031 3.25 -13.78125 C 3.300781 -13.738281 3.351562 -13.6875 3.40625 -13.625 L 11.484375 -3.125 C 11.460938 -3.289062 11.445312 -3.453125 11.4375 -3.609375 C 11.425781 -3.773438 11.421875 -3.925781 11.421875 -4.0625 L 11.421875 -13.953125 Z M 13.078125 -13.953125 "/></g></g></g><g fill="#f3f6ff" fill-opacity="1"><g transform="translate(327.083832, 151.496842)"><g><path d="M 10.390625 -1.53125 L 10.375 0 L 1.78125 0 L 1.78125 -13.953125 L 10.375 -13.953125 L 10.375 -12.40625 L 3.671875 -12.40625 L 3.671875 -7.78125 L 9.109375 -7.78125 L 9.109375 -6.296875 L 3.671875 -6.296875 L 3.671875 -1.53125 Z M 10.390625 -1.53125 "/></g></g></g><g fill="#f3f6ff" fill-opacity="1"><g transform="translate(341.649088, 151.496842)"><g><path d="M 8.921875 -11.765625 C 8.859375 -11.671875 8.789062 -11.597656 8.71875 -11.546875 C 8.65625 -11.503906 8.578125 -11.484375 8.484375 -11.484375 C 8.367188 -11.484375 8.234375 -11.535156 8.078125 -11.640625 C 7.929688 -11.753906 7.742188 -11.875 7.515625 -12 C 7.296875 -12.132812 7.03125 -12.253906 6.71875 -12.359375 C 6.40625 -12.472656 6.023438 -12.53125 5.578125 -12.53125 C 5.148438 -12.53125 4.773438 -12.472656 4.453125 -12.359375 C 4.140625 -12.253906 3.875 -12.101562 3.65625 -11.90625 C 3.4375 -11.707031 3.269531 -11.476562 3.15625 -11.21875 C 3.050781 -10.957031 3 -10.671875 3 -10.359375 C 3 -9.972656 3.09375 -9.648438 3.28125 -9.390625 C 3.476562 -9.140625 3.734375 -8.921875 4.046875 -8.734375 C 4.359375 -8.554688 4.710938 -8.398438 5.109375 -8.265625 C 5.515625 -8.128906 5.925781 -7.988281 6.34375 -7.84375 C 6.757812 -7.707031 7.164062 -7.550781 7.5625 -7.375 C 7.96875 -7.195312 8.328125 -6.96875 8.640625 -6.6875 C 8.953125 -6.414062 9.203125 -6.082031 9.390625 -5.6875 C 9.585938 -5.289062 9.6875 -4.804688 9.6875 -4.234375 C 9.6875 -3.617188 9.582031 -3.046875 9.375 -2.515625 C 9.164062 -1.984375 8.859375 -1.519531 8.453125 -1.125 C 8.054688 -0.726562 7.566406 -0.414062 6.984375 -0.1875 C 6.410156 0.0390625 5.753906 0.15625 5.015625 0.15625 C 4.109375 0.15625 3.285156 -0.00390625 2.546875 -0.328125 C 1.804688 -0.660156 1.171875 -1.109375 0.640625 -1.671875 L 1.1875 -2.5625 C 1.238281 -2.632812 1.300781 -2.691406 1.375 -2.734375 C 1.445312 -2.785156 1.53125 -2.8125 1.625 -2.8125 C 1.707031 -2.8125 1.800781 -2.773438 1.90625 -2.703125 C 2.019531 -2.640625 2.144531 -2.554688 2.28125 -2.453125 C 2.414062 -2.347656 2.570312 -2.234375 2.75 -2.109375 C 2.925781 -1.984375 3.125 -1.867188 3.34375 -1.765625 C 3.5625 -1.660156 3.8125 -1.570312 4.09375 -1.5 C 4.382812 -1.4375 4.710938 -1.40625 5.078125 -1.40625 C 5.523438 -1.40625 5.921875 -1.46875 6.265625 -1.59375 C 6.617188 -1.71875 6.914062 -1.890625 7.15625 -2.109375 C 7.40625 -2.335938 7.59375 -2.609375 7.71875 -2.921875 C 7.84375 -3.234375 7.90625 -3.582031 7.90625 -3.96875 C 7.90625 -4.382812 7.8125 -4.726562 7.625 -5 C 7.4375 -5.269531 7.1875 -5.492188 6.875 -5.671875 C 6.5625 -5.859375 6.203125 -6.015625 5.796875 -6.140625 C 5.398438 -6.265625 4.992188 -6.390625 4.578125 -6.515625 C 4.160156 -6.648438 3.75 -6.804688 3.34375 -6.984375 C 2.945312 -7.160156 2.59375 -7.390625 2.28125 -7.671875 C 1.96875 -7.953125 1.710938 -8.300781 1.515625 -8.71875 C 1.328125 -9.132812 1.234375 -9.648438 1.234375 -10.265625 C 1.234375 -10.765625 1.328125 -11.242188 1.515625 -11.703125 C 1.710938 -12.160156 1.992188 -12.566406 2.359375 -12.921875 C 2.722656 -13.285156 3.171875 -13.570312 3.703125 -13.78125 C 4.242188 -14 4.863281 -14.109375 5.5625 -14.109375 C 6.332031 -14.109375 7.035156 -13.984375 7.671875 -13.734375 C 8.316406 -13.484375 8.882812 -13.128906 9.375 -12.671875 Z M 8.921875 -11.765625 "/></g></g></g><g fill="#f3f6ff" fill-opacity="1"><g transform="translate(355.533377, 151.496842)"><g><path d="M 8.921875 -11.765625 C 8.859375 -11.671875 8.789062 -11.597656 8.71875 -11.546875 C 8.65625 -11.503906 8.578125 -11.484375 8.484375 -11.484375 C 8.367188 -11.484375 8.234375 -11.535156 8.078125 -11.640625 C 7.929688 -11.753906 7.742188 -11.875 7.515625 -12 C 7.296875 -12.132812 7.03125 -12.253906 6.71875 -12.359375 C 6.40625 -12.472656 6.023438 -12.53125 5.578125 -12.53125 C 5.148438 -12.53125 4.773438 -12.472656 4.453125 -12.359375 C 4.140625 -12.253906 3.875 -12.101562 3.65625 -11.90625 C 3.4375 -11.707031 3.269531 -11.476562 3.15625 -11.21875 C 3.050781 -10.957031 3 -10.671875 3 -10.359375 C 3 -9.972656 3.09375 -9.648438 3.28125 -9.390625 C 3.476562 -9.140625 3.734375 -8.921875 4.046875 -8.734375 C 4.359375 -8.554688 4.710938 -8.398438 5.109375 -8.265625 C 5.515625 -8.128906 5.925781 -7.988281 6.34375 -7.84375 C 6.757812 -7.707031 7.164062 -7.550781 7.5625 -7.375 C 7.96875 -7.195312 8.328125 -6.96875 8.640625 -6.6875 C 8.953125 -6.414062 9.203125 -6.082031 9.390625 -5.6875 C 9.585938 -5.289062 9.6875 -4.804688 9.6875 -4.234375 C 9.6875 -3.617188 9.582031 -3.046875 9.375 -2.515625 C 9.164062 -1.984375 8.859375 -1.519531 8.453125 -1.125 C 8.054688 -0.726562 7.566406 -0.414062 6.984375 -0.1875 C 6.410156 0.0390625 5.753906 0.15625 5.015625 0.15625 C 4.109375 0.15625 3.285156 -0.00390625 2.546875 -0.328125 C 1.804688 -0.660156 1.171875 -1.109375 0.640625 -1.671875 L 1.1875 -2.5625 C 1.238281 -2.632812 1.300781 -2.691406 1.375 -2.734375 C 1.445312 -2.785156 1.53125 -2.8125 1.625 -2.8125 C 1.707031 -2.8125 1.800781 -2.773438 1.90625 -2.703125 C 2.019531 -2.640625 2.144531 -2.554688 2.28125 -2.453125 C 2.414062 -2.347656 2.570312 -2.234375 2.75 -2.109375 C 2.925781 -1.984375 3.125 -1.867188 3.34375 -1.765625 C 3.5625 -1.660156 3.8125 -1.570312 4.09375 -1.5 C 4.382812 -1.4375 4.710938 -1.40625 5.078125 -1.40625 C 5.523438 -1.40625 5.921875 -1.46875 6.265625 -1.59375 C 6.617188 -1.71875 6.914062 -1.890625 7.15625 -2.109375 C 7.40625 -2.335938 7.59375 -2.609375 7.71875 -2.921875 C 7.84375 -3.234375 7.90625 -3.582031 7.90625 -3.96875 C 7.90625 -4.382812 7.8125 -4.726562 7.625 -5 C 7.4375 -5.269531 7.1875 -5.492188 6.875 -5.671875 C 6.5625 -5.859375 6.203125 -6.015625 5.796875 -6.140625 C 5.398438 -6.265625 4.992188 -6.390625 4.578125 -6.515625 C 4.160156 -6.648438 3.75 -6.804688 3.34375 -6.984375 C 2.945312 -7.160156 2.59375 -7.390625 2.28125 -7.671875 C 1.96875 -7.953125 1.710938 -8.300781 1.515625 -8.71875 C 1.328125 -9.132812 1.234375 -9.648438 1.234375 -10.265625 C 1.234375 -10.765625 1.328125 -11.242188 1.515625 -11.703125 C 1.710938 -12.160156 1.992188 -12.566406 2.359375 -12.921875 C 2.722656 -13.285156 3.171875 -13.570312 3.703125 -13.78125 C 4.242188 -14 4.863281 -14.109375 5.5625 -14.109375 C 6.332031 -14.109375 7.035156 -13.984375 7.671875 -13.734375 C 8.316406 -13.484375 8.882812 -13.128906 9.375 -12.671875 Z M 8.921875 -11.765625 "/></g></g></g></g></g></svg>